<?xml version="1.0" encoding="utf-8"?>
<!-- Generator: Adobe Illustrator 22.0.1, SVG Export Plug-In . SVG Version: 6.00 Build 0)  -->
<svg version="1.1" id="Layer_1" xmlns="http://www.w3.org/2000/svg" xmlns:xlink="http://www.w3.org/1999/xlink" x="0px" y="0px"
	 viewBox="0 0 156 156" style="enable-background:new 0 0 156 156;" xml:space="preserve">
<style type="text/css">
	.st0{fill:#FBAC02;}
	.st1{fill:#5D5D5C;}
	.st2{fill:#3A3935;}
	.st3{fill:#0A0B0D;}
	.st4{fill:#FCCD0C;}
	.st5{fill:#3B3B39;}
	.st6{fill:#404040;}
	.st7{fill:#21201C;}
	.st8{fill:#FCCD0A;}
	.st9{fill:#C6C6C4;}
	.st10{fill:#FBC606;}
	.st11{fill:#2C2C2C;}
	.st12{fill:#2D2D2D;}
	.st13{fill:#FFFFFF;}
	.st14{fill:#454545;}
	.st15{fill:#FFCE05;}
	.st16{fill:#585A59;}
	.st17{fill:#4E4F4A;}
	.st18{fill:#616362;}
	.st19{fill:#393937;}
	.st20{fill:#595758;}
	.st21{fill:#4E4E4E;}
	.st22{fill:#7E7E7E;}
	.st23{fill:#FDCE0D;}
	.st24{fill:#7D827C;}
	.st25{fill:#7F8180;}
	.st26{fill:#7C7B77;}
	.st27{fill:#81807D;}
	.st28{fill:#7E7D79;}
	.st29{fill:#FFD101;}
	.st30{fill:#686A69;}
	.st31{fill:#797977;}
	.st32{fill:#444444;}
	.st33{fill:#9D9D9D;}
	.st34{fill:#A6A5A3;}
	.st35{fill:#898989;}
	.st36{fill:#686868;}
	.st37{fill:#969694;}
	.st38{fill:#2F2E2C;}
	.st39{fill:#5D5D5D;}
	.st40{fill:#0D0D0D;}
	.st41{opacity:0.71;}
	.st42{fill:#888886;}
	.st43{fill:#888984;}
	.st44{fill:#6F6F6D;}
	.st45{fill:#616161;}
	.st46{fill:#555555;}
	.st47{fill:#FDFCF9;}
	.st48{opacity:0.37;}
	.st49{fill:#FFCB05;}
	.st50{fill:#7B7A76;}
	.st51{fill:#747570;}
	.st52{fill:#747474;}
	.st53{fill:#797C7B;}
	.st54{fill:#383838;}
	.st55{fill:#999998;}
	.st56{fill:#4D4B4C;}
	.st57{fill:#52524A;}
	.st58{fill:#AAAAA0;}
	.st59{fill:#030303;}
	.st60{fill:#545452;}
	.st61{fill:#FDCE04;}
	.st62{fill:#767674;}
	.st63{fill:#333333;}
	.st64{fill:#ABA9AA;}
	.st65{fill:#585954;}
	.st66{fill:#5E5D5B;}
	.st67{fill:#1A1615;}
	.st68{fill:#A0A19C;}
	.st69{fill:#8E9494;}
	.st70{fill:#464646;}
</style>
<g id="Car_Wash">
	<g>
		<g>
			<path d="M123.0778732,80.8253098c-0.2749023-0.3095703-0.246582-0.7836914,0.0634766-1.0585938l9.9897385-8.8598633
				c0.3100586-0.2749023,0.784668-0.2456055,1.0585938,0.0634766c0.2749023,0.3095703,0.246582,0.7836914-0.0634766,1.0585938
				l-9.9897385,8.8598633C123.825798,81.1643448,123.3518753,81.1345825,123.0778732,80.8253098z"/>
		</g>
		<g>
			<path d="M137.7878265,61.7779503c-0.4057617,0-0.7392578-0.3237305-0.7495117-0.7314453
				c-0.0046234-0.1899719-1.1370544-34.1456604-1.1181641-34.3535156c-1.3703766-0.2248268-2.0156403,0.0375919-2.5078125,0.1157227
				c-0.1166992,0.0268555-0.3452148,0.0795898-0.503418,0.1352539c0.0824585,5.2755871,0.5365143,33.3515396,0.5395508,33.4755859
				c0.0097656,0.4145508-0.3173828,0.7583008-0.7319336,0.7685547c-0.3657227,0.0053711-0.7573242-0.3173828-0.7680664-0.7319336
				c-0.1148071-4.7158737-0.5368958-33.335495-0.5395508-33.5058594c-0.0549927-1.0742779,0.5953979-1.35709,1.6674805-1.6035156
				c0.1785889-0.0277176,1.2177734-0.4171867,2.8452148-0.1694336c1.2758179,0.1731663,1.5609741,0.594347,1.4931641,1.6445313
				c1.8058167,54.9766922,0.638031,19.4244671,1.0473633,31.8862324c0.0288086,0.7675781,0.0571289,1.534668,0.0761719,2.3017578
				c0.0097656,0.4140625-0.3173828,0.7578125-0.7319336,0.7680664
				C137.8005219,61.7779503,137.7941742,61.7779503,137.7878265,61.7779503z M136.1432953,26.7457218L136.1432953,26.7457218
				L136.1432953,26.7457218z M135.9255219,26.4351749L135.9255219,26.4351749L135.9255219,26.4351749z"/>
		</g>
		<g>
			<path d="M121.0685959,77.8179855c-0.6396332,0-0.9927063-0.7647781-0.5585938-1.2495117l8.2197189-9.2001953
				c0.2749023-0.3085938,0.7490234-0.3359375,1.0585938-0.0595703c0.309082,0.2758789,0.3359375,0.75,0.0595703,1.0585938
				C121.3400421,77.7464371,121.7086258,77.8179855,121.0685959,77.8179855z"/>
		</g>
		<g>
			<path d="M134.6487274,60.0881042c-3.170105,0-5.7398682,2.5700111-5.7398682,5.7398605
				c0,3.1698456,2.5697632,5.7398605,5.7398682,5.7398605c3.1698456,0,5.7398529-2.570015,5.7398529-5.7398605
				C140.3885803,62.6581154,137.818573,60.0881042,134.6487274,60.0881042z M134.4185028,68.2180481
				c-1.5898132,0-2.869812-1.2800064-2.869812-2.8700562c0-1.58004,1.2799988-2.8698044,2.869812-2.8698044
				c1.5800476,0,2.8700562,1.2897644,2.8700562,2.8698044C137.288559,66.9380417,135.9985504,68.2180481,134.4185028,68.2180481z"/>
		</g>
		<path class="st61" d="M101.6887207,81.8047104c0.4981537,0.9610367,1.7923737,5.7064667,6.5732803,10.2662811
			c0.4534225,0.4324417,0.9711838,0.8696213,1.5957947,0.9191437c0.9510727,0.0754089,1.6152573-0.5938034,5.1012802-3.1237793
			c1.3103943-0.9510193,1.2721939-1.5771179,0.490303-2.5745621c-2.0921173-2.6688766-4.1842346-5.3377457-6.2763443-8.0066147
			c-1.5813065-2.0172348-2.3181686-1.8003387-4.4314651-0.5354156c-0.7444992,0.4456253-1.4699554,0.9230804-2.1736908,1.4306488
			c-0.2572174,0.1855164-0.8321533,0.4681396-0.9530563,0.766304
			C101.509964,81.2053452,101.5614166,81.5591202,101.6887207,81.8047104z"/>
		<path class="st61" d="M24.9124012,79.4768524l-5.9034958,7.5518799c-0.3010941,0.3851624-0.2777901,0.9317093,0.0508652,1.2936478
			c1.6503334,1.8174286,3.4933186,3.1911545,5.5438271,4.0867081c0.4333439,0.1892624,0.9409084,0.0508194,1.2167969-0.3332291
			l6.6175823-9.211937c0.3849869-0.5359192,0.1537933-1.2912369-0.4652061-1.5198441l-5.9273205-2.189064
			C25.6379642,79.0045166,25.1799297,79.1346207,24.9124012,79.4768524z"/>
		<path class="st61" d="M36.9398766,71.2322159c-3.1208611,4.0511398-3.1335831,4.1451035-3.5279083,4.3642426
			c-0.7594833,0.422081-2.4559345-0.11483-2.3997364-1.1410599c0.0295448-0.5395432,0.5549145-0.9887009,0.8863411-1.3615112
			C33.9491043,70.7872772,34.2324982,69.8447723,36.9398766,71.2322159z"/>
		<g>
			<path d="M22.0959358,69.2047043c-0.5268555-0.0209961-1.3110352-0.0527344-1.9399414-0.8564453
				c-1.1460705-1.4624405-0.9272461-4.7756195-0.9741211-6.6904259c-1.1362209-45.7560043,0.2709942,10.760128-0.8330078-33.081543
				c-0.0410156-0.3950195-0.1030273-0.9916992,0.3637695-1.3330078c0.5356731-0.3843384,1.2486401-0.1404572,2.4169922,0.0229492
				c1.1205044,0.1533794,1.2727737-0.2170143,1.3730469-0.2612305c0.7686176-0.700798,1.5365772-0.57864,1.8779297-0.0952148
				c0.226778,0.3188896,0.1975002,0.7140217,0.1713867,1.1582031c1.3400345,40.3239517,1.2855339,37.4753113,1.1508789,38.1328125
				C25.3076782,68.132843,24.1118259,69.2837601,22.0959358,69.2047043z M19.8557014,28.5855656
				c0.0300484,0.3906345,0.8217621,32.896698,0.8251953,33.0351563c0.0347614,1.3854561-0.1207314,4.8108406,0.65625,5.8027306
				c0.1914063,0.2451172,0.3579102,0.2641602,0.8105469,0.2822266c1.0391464,0.0405121,1.7849884-0.334343,2.0854492-1.8056641
				c0.0959415-0.4663162,0.1170387,1.6047821-1.1689453-37.4458008
				C22.0874443,29.0247116,20.9496689,28.7592201,19.8557014,28.5855656z"/>
		</g>
		<g>
			<path d="M57.6304741,132.6665192c-0.1512337-2.6763153-1.5374641-3.0521393-4.2101097-2.9899292
				c-5.2498779,0.1000977-10.5095253-0.5700531-15.5694656-1.9899368c-0.5700569-0.170166-1.1899147-0.3400803-1.7499619-0.1501465
				c-1.3798485,0.4599533-0.9499283,2.9401169-0.9301529,3.9798965c0.0286522,1.7699127,0.2399025,6.6578674,1.1301003,8.2798309
				c0.9201469,1.6999054,3.5299492,1.7301788,5.2098427,1.7899933c3.4000664,0.1201172,6.8099022,0.1201172,10.2099686,0
				c4.0111961-0.1487122,5.1986046-1.3353729,5.6995773-4.4598541
				C57.6404839,135.6464233,57.7103043,134.1564789,57.6304741,132.6665192z M40.6706581,140.8862915
				c-0.3498459,0-0.6699066-0.2599945-0.7299652-0.6201019c-0.5200081-2.7897186-0.7197075-5.6397552-0.5898285-8.4797821
				c0.0200195-0.4199066,0.3798714-0.7299652,0.7800102-0.7199554c0.4199142,0.0200195,0.739975,0.3701172,0.7199554,0.780014
				c-0.1201172,2.7299194,0.0600548,5.4698486,0.5600433,8.1497192
				C41.5021935,140.465332,41.1352997,140.8862915,40.6706581,140.8862915z M46.4205246,140.1062927
				c-0.3598557,0-0.6799164-0.2700195-0.739727-0.6398773c-0.3200607-2.1000519-0.3600998-4.2398987-0.1201172-6.3599701
				c0.0500488-0.4098969,0.4199142-0.7099457,0.8300591-0.6598969c0.4199142,0.0498047,0.7099457,0.4199066,0.6699066,0.8300629
				c-0.2299728,1.9897003-0.1899376,3.9896545,0.1000977,5.9695892
				C47.2385254,139.6919556,46.872963,140.1062927,46.4205246,140.1062927z M53.9804115,138.7862549
				c0.0557137,0.4565887-0.3045731,0.8500671-0.7499847,0.8500671c-0.3698654,0-0.6899261-0.2700043-0.7399712-0.6498871
				c-0.2399864-1.7201691-0.2099571-3.4598846,0.0800743-5.1800537c0.0600586-0.4098969,0.4599495-0.6799164,0.8600883-0.6198578
				c0.4099007,0.0700684,0.6799164,0.4599457,0.6198578,0.8698578
				C53.7804642,135.616394,53.7604446,137.2064514,53.9804115,138.7862549z"/>
		</g>
		<g>
			<path d="M121.8789978,127.8565674c-0.5600433-0.1899338-1.1799088-0.0200195-1.7499619,0.1398926
				c-5.0599442,1.4301453-10.3198318,2.1000519-15.5697098,1.9999542c-2.6909637-0.0618896-4.0609665,0.3245544-4.2098618,2.9901581
				c-0.0984955,1.8203583,0.0257034,5.2315216,0.9299088,6.8196716c1.0300064,1.8200226,3.0900192,2.0299835,4.979866,2.1000519
				c3.4000702,0.1201172,6.8098984,0.1201172,10.2099686,0c4.4301987-0.1583862,5.4537354-0.8042908,5.9297943-4.4898834
				c0.2399902-1.8500671,0.3798752-3.7198944,0.4099045-5.5799561
				C122.8389359,130.7964478,123.2588501,128.3165131,121.8789978,127.8565674z M105.4892349,139.3062592
				c-0.0500488,0.3701019-0.3698654,0.6501312-0.739975,0.6501312c-0.4342651,0-0.8071365-0.3995361-0.7399673-0.8600922
				c0.2101974-1.5697937,0.1901779-3.1598358-0.079834-4.7298737c-0.0600586-0.3998871,0.2099533-0.7900238,0.6198578-0.8598328
				c0.4099045-0.0700684,0.8000336,0.2099457,0.8600845,0.6198578
				C105.69944,135.8363647,105.7292252,137.5763092,105.4892349,139.3062592z M112.2991409,139.7862244
				c-0.0600586,0.3701172-0.3801193,0.6301117-0.739975,0.6301117h-0.1098633
				c-0.410141-0.0700684-0.7001801-0.4499359-0.6301117-0.8600922c0.2900314-1.9699249,0.3300705-3.9798889,0.1101074-5.9598236
				c-0.0500488-0.4098969,0.2397385-0.7799988,0.6598969-0.8300476c0.4099045-0.0498047,0.780014,0.2499847,0.8298111,0.660141
				C112.6592407,135.5363159,112.6192017,137.6764069,112.2991409,139.7862244z M118.0389938,140.5862579
				c-0.060051,0.3600922-0.3798676,0.6100922-0.7299576,0.6100922c-0.507843,0-0.8260193-0.4501495-0.739975-0.8801117
				c0.4999847-2.6798706,0.6899261-5.4197998,0.5600433-8.149704c-0.0200195-0.4099121,0.3000412-0.7599945,0.7199554-0.780014
				s0.7599945,0.3000336,0.780014,0.7099457C118.7589493,134.9364777,118.5590057,137.7962799,118.0389938,140.5862579z"/>
		</g>
		<path class="st63" d="M44.6207924,103.119606c0.5939713,0.4083099,1.4469681,0.3932648,2.0261726-0.0357361
			c0.5792007-0.4289932,0.8422394-1.2405624,0.6248055-1.9277573c-0.1255188-0.3967056-0.3893585-0.7387543-0.5126228-1.1361618
			c-0.3948784-1.2731247,0.6009407-2.0952911-0.9583092-3.6910706c-2.8271866-2.8934097-7.3485565-2.9644623-9.3101273-1.3403778
			c-0.8467636,0.7010803-1.0989418,1.6435165-1.3209114,2.670433c-0.1759262,0.8138809-0.2079391,1.6587448-0.0940247,2.4836044
			c0.1871834,1.3553848,0.2529335,1.7878265,1.7698174,2.045929c2.4912415,0.4239044,5.0017395,0.7345963,7.5211563,0.9308167"/>
		<path class="st63" d="M112.2464905,101.7104568c-0.5693359,0.3457413-1.3555756,0.2873611-1.8675995-0.1386719
			s-0.7123795-1.1885529-0.475914-1.8112564c0.1365051-0.3594742,0.3977814-0.6613007,0.5322418-1.0215454
			c0.2577286-0.6904831,0.0146332-1.4842758,0.2369537-2.1869583c0.4650269-1.46978,3.7225647-3.6469727,7.2278748-2.9708633
			c0.8301468,0.1601181,1.6521683,0.4761276,2.271904,1.0512009c0.7446976,0.6910324,0.9282074,1.5737305,1.0794373,2.5327988
			c0.1198578,0.7601166,0.1053238,1.5413055-0.0428085,2.2964249c-0.2434158,1.2407913-0.3266373,1.6363602-1.7396698,1.795372
			c-2.3206787,0.2611465-4.6532135,0.4168472-6.9880142,0.4664536"/>
		<g>
			<path class="st63" d="M123.9089813,111.8168945c-2.0731659-4.2551498-6.41642-8.0310059-10.929924-10.019783
				c-0.3498459-0.1499023-1.1598892-0.3298264-1.3398132-0.7299652
				c-5.5911865-12.4608307-6.4460678-14.6430435-8.3999557-17.3094177
				c-2.0817032-2.8734436-3.2383041-3.5776825-6.4898376-4.4601059c-6.8864822-1.8816605-22.6395569-1.6145554-29.7393112-1.2099304
				c-6.574028,0.3696518-12.7123871,1.1739426-15.5096512,7.1099396c-9.1937943,19.29142-4.3942719,15.1508789-9.5295677,17.4495544
				c-1.7301865,0.7900238-3.4300957,1.699913-4.9100418,2.9098434c-5.9006977,4.8474197-6.0379848,12.1611023-4.3998032,19.6597061
				c0.1899376,0.8798599,0.4299202,1.7499619,0.6298676,2.6298218c0.3182793,1.3711243,1.7323761,1.7217255,3.100029,1.9198761
				c16.4035873,2.5757904,39.5584755,3.7905426,63.538578,2.2602081c9.0684814-0.5875702,15.287674-1.3127441,22.1694107-2.18013
				c2.3500443-0.3000488,2.7299194-0.6999359,3.1898727-3.0697556
				C126.1241608,122.434082,125.859787,115.8443985,123.9089813,111.8168945z M54.8204803,123.4267349
				c-0.8200493,0.5500412-1.8698311,0.8998871-2.8300133,1.1000748c-3.6197929,0.7597504-7.3997345,0.1098633-10.9496994-0.9501724
				c-1.3100319-0.3898849-2.6298256-0.8498383-3.7399063-1.659874c-2.3452454-1.7117996-3.1722183-5.5306702-0.6398773-8.0999146
				c2.2130775-2.234375,5.1897087-2.5116882,8.3098679-2.1298294c2.1298332,0.2499924,4.2396469,0.7499771,6.2596207,1.4799423
				c1.5199852,0.5500412,3.1100349,1.3698425,4.0499573,2.7399292
				C57.1797142,118.6461411,56.0047951,122.6192322,54.8204803,123.4267349z M94.5495453,123.1266937
				c-0.1301193,1.4399109-0.919899,2.8300171-2.110054,3.4198456c-2.049057,1.0353622-3.745369-0.1623306-26.2493973,0.4201584
				c-0.9897232,0.0200195-1.7299423-0.1000977-2.4498978-0.959938c-1.7833061-2.1403732-1.5960732-5.4873505-0.1799278-6.6800232
				c0.9799614-0.8100433,3.0900154-0.780014,4.2899437-0.9299088c3.6855927-0.4534225,6.5845871-0.4129181,18.4395142-0.5300217
				c2.2099075-0.0200195,5.7999191-0.739975,7.5298538,1.3000183
				C94.7094574,120.2168503,94.6694183,121.7666168,94.5495453,123.1266937z M48.5205765,100.9672928
				c0.0400352-0.2001877,0.1000938-0.3901291,0.1498985-0.5800629c1.3653374-4.7786942,3.4882202-10.1239471,6.0899467-14.409584
				c0.8200493-1.3400574,1.529995-2.3400345,3.0199509-3.0399704c1.4098778-0.6501312,2.969902-0.8801041,4.5099068-1.0700378
				c7.5899086-0.9399261,15.2696648-1.169899,22.8993721-0.6899261c1.8200302,0.1098557,3.6200333,0.3798676,5.4300537,0.5400238
				c3.9718857,0.3822021,6.9556427,0.8726959,9.739769,3.6798477c1.2599792,1.2499695,2.0199738,3.0499802,2.8297653,4.6300201
				c1.8000107,3.5096817,3.3400116,7.1397247,4.6200104,10.8696213
				C85.3454056,97.205101,55.2603226,99.3033829,48.5205765,100.9672928z M121.219101,118.6268005
				c-0.4702072,0.8698502-1.2402039,1.659874-1.9999542,2.2799759c-2.8700485,2.3397903-6.5198669,3.4999161-10.1599274,4.199852
				c-1.3500595,0.25-2.7299118,0.4499435-4.0897446,0.25c-2.9503479-0.4568405-5.3493042-3.5763092-4.2899399-6.8997498
				c0.4299164-1.4101181,1.3798523-2.7101364,2.4896851-3.6100235c2.4624939-2.0124359,6.9595184-3.2516937,10.1399078-3.669838
				c1.6000595-0.2099533,3.3900528-0.2199631,4.8597488,0.560051
				C121.1060944,113.2873993,121.90625,117.3606949,121.219101,118.6268005z"/>
		</g>
		<g>
			<path class="st61" d="M101.509346,91.117424c-0.7599869-1.4699402-1.4699326-3.1398239-2.6398315-4.3099594
				c-2.6307068-2.607048-5.3515091-3.0549164-9.1098938-3.4198456c-1.6899033-0.1499023-3.3697968-0.3998947-5.0699539-0.4999924
				c-7.1297226-0.4499359-14.3094864-0.2399826-21.3994102,0.6401291c-1.4399109,0.179924-2.8998375,0.3898773-4.2198753,0.9999771
				c-1.3898621,0.6398773-2.0500031,1.5797958-2.8200035,2.8297653c-2.4367332,4.0097656-4.8297043,9.9494019-5.6697922,13.3097534
				c18.2626915-2.6660233,36.8810539-2.7114105,55.0087471-0.1000977
				C104.4494629,97.32724,103.0793762,94.1673965,101.509346,91.117424z M58.9104729,97.5472031
				c-0.2624817,0.3149796-0.7480698,0.3473969-1.0600357,0.0800781c-0.3200607-0.2700119-0.35009-0.739975-0.0800743-1.0500259
				l9.1399231-10.5996094c0.2700195-0.310051,0.7499847-0.35009,1.0600357-0.0800781
				c0.3098068,0.2700195,0.3498459,0.739975,0.079834,1.0600357L58.9104729,97.5472031z M69.080162,91.8774109l-2.9498825,3.8600235
				c-0.242981,0.3235779-0.6950226,0.4034729-1.0500259,0.1498947c-0.3300705-0.2499924-0.3901291-0.7299576-0.1401367-1.0600357
				l2.9401169-3.8597717c0.2600098-0.3300705,0.7299652-0.4001389,1.0597916-0.1401291
				C69.2600861,91.0773849,69.3301544,91.5473404,69.080162,91.8774109z M82.2898178,95.0274887
				c-0.3169022,0.2957382-0.7900085,0.2688217-1.0600357-0.0200195c-0.2900314-0.3000412-0.2797775-0.780014,0.0200195-1.0600357
				l9.4797668-9.1199036c0.3000412-0.2900391,0.7800064-0.2800293,1.0600281,0.0200195
				c0.2900391,0.3000412,0.2800293,0.7699966-0.0200119,1.0600281L82.2898178,95.0274887z M93.0395737,90.4575272
				l-5.0499344,4.6798248c-0.7651443,0.6629562-1.7428665-0.446991-1.0197525-1.1000748l5.0496902-4.6798248
				c0.3000412-0.2800217,0.7800064-0.2700119,1.0600357,0.0400391
				C93.3596344,89.6975327,93.3396149,90.1774979,93.0395737,90.4575272z"/>
		</g>
		<g>
			<path d="M77.9875412,85.9859543c-0.4140625,0-0.75-0.3359375-0.75-0.75v-4.2602539c0-0.4140625,0.3359375-0.75,0.75-0.75
				s0.75,0.3359375,0.75,0.75v4.2602539C78.7375412,85.6500168,78.4016037,85.9859543,77.9875412,85.9859543z"/>
		</g>
		<path d="M83.3463745,87.5867691c-6.2607803,0.0256805-10.8034439,0.0546494-10.9155579,0.024231
			c-0.2557526-0.0693817-0.137146-0.3805923-0.1078491-0.5584335c0.2745667-1.6664734,1.7266541-2.8716278,3.3882065-2.8716278
			c0.0005264,0,4.2321548,0,4.2323227,0c2.0283813,0,3.4663773,1.7513351,3.4319077,3.3121719
			C83.3746643,87.5266953,83.3682251,87.5618668,83.3463745,87.5867691z"/>
		<path class="st61" d="M116.0780792,107.3371506c-8.6538849,0.1542053-13.5175171,4.7483978-15.523819,5.9339523
			c-0.9707642,0.5703354-1.9224396,0.8523407-3.0085907,1.0958481c-0.9868774,0.2242737-2.0314102,0.134552-3.047081,0.134552
			H82.9287109c-15.2259598,0-23.2850304,1.1324539-28.6733589-2.0441666
			c-0.6247787-0.3653107-1.1373863-0.8395081-1.7205467-1.2560501c-0.5446777-0.3876801-1.1823654-0.7048798-1.7718658-1.0349121
			c-2.9927711-1.6827164-6.9222221-3.3917923-10.3716354-3.3739014c-0.307579,0.0032043-1.2046547,0.2018967-1.3584442-0.2050247
			c-0.0673523-0.1730347,0.0896454-0.3428574,0.2306023-0.4614487c1.9160347-1.5892105,4.0403786-2.918869,6.2992668-3.9634018
			c0.5671272-0.2627563,1.0636978-0.5991211,1.5795898-0.9195328c8.9425507-1.4610748,17.9748993-2.3903046,27.0328293-2.7876053
			c12.7097702-0.5606995,27.5513611,1.0989914,31.1275787,2.1563339c1.8744202,0.5703354,3.4764557,1.5827942,5.2354889,2.4575806
			c1.9801025,0.9868011,3.9281998,2.0409546,5.837822,3.1591797
			C117.1753082,106.6971664,117.0582886,107.3175659,116.0780792,107.3371506z"/>
		<g>
			<path d="M60.2453499,112.6568527c-4.3798065-0.1106186-4.3821754-0.9517517-8.347168-4.8129883
				c-1.9288597-1.8778229-1.3132133-1.347023-5.3500977-5.6328125c-0.2827148-0.3027344-0.2661133-0.7773438,0.0371094-1.0595703
				c0.3027344-0.2822266,0.7773438-0.2666016,1.0595703,0.0371094c3.7546234,3.9861984,3.4594498,3.7905121,5.2998047,5.5805664
				c3.7361755,3.638298,3.5107384,4.2908096,7.28125,4.387207c7.1850624,0.1791992,14.4106483,0.1464844,21.5336952-0.0957031
				c6.0252151,0.0037918,9.9381714,0.0067368,12.9794922-0.0004883c1.7124023-0.0039063,3.3349609-0.4848633,4.5698242-1.3540039
				c1.3247833-0.932251,1.8818588-1.6397324,7.8642578-8.2456055c0.277832-0.3081055,0.7519531-0.3305664,1.059082-0.0522461
				c0.3071289,0.277832,0.3305664,0.7519531,0.0522461,1.059082c-5.474762,6.0453873-6.5222168,7.3459625-8.1123047,8.465332
				c-1.4838867,1.0449219-3.4121094,1.6230469-5.4296875,1.6274414
				C74.0084076,112.6094055,71.6255264,112.9428711,60.2453499,112.6568527z"/>
		</g>
		<g>
			<path d="M48.6765022,125.610466c-3.3411942,0-9.3073196-1.2566605-11.8178711-3.0878906
				c-2.7191467-1.9850235-3.5908966-6.331459-0.7319336-9.2319336c2.39077-2.4141769,5.5721092-2.759407,8.9355469-2.3481445
				c2.1801758,0.2563477,4.3427734,0.7675781,6.4233398,1.519043c2.0952148,0.7583008,3.5390625,1.746582,4.4135742,3.0209961
				c2.1225586,3.061676,0.916378,7.4908447-0.6557617,8.5639648
				C53.4663391,125.2374573,50.7797813,125.610466,48.6765022,125.610466z M40.6926155,112.4913254
				c-2.0569344,0.4266434-4.1958771,1.8618927-4.703125,3.9335938c-0.434082,1.8051758,0.2871094,3.8154297,1.753418,4.8857422
				c1.0200195,0.7446289,2.2905273,1.1835938,3.5117188,1.5473633c4.234375,1.2641602,7.5966797,1.5615234,10.581543,0.9350586
				c0.7231445-0.1508789,1.7543945-0.4448242,2.5668945-0.9892578c0.1538086-0.1049805,0.5644531-0.5053711,0.9331055-1.8725586
				c0-0.0004883,0.0004883-0.0009766,0.0004883-0.0014648c0.4433594-1.6308594,0.1918945-3.3491211-0.6723633-4.5957031
				c-0.6928711-1.0097656-1.8989258-1.8139648-3.6889648-2.4619141
				C47.9886589,112.7933197,43.5912323,111.8922958,40.6926155,112.4913254z"/>
		</g>
		
			<ellipse transform="matrix(0.3310342 -0.9436188 0.9436188 0.3310342 -83.6960449 115.3436661)" class="st61" cx="39.5017586" cy="116.7011261" rx="3.7712052" ry="3.2688553"/>
		
			<ellipse transform="matrix(0.3310342 -0.9436188 0.9436188 0.3310342 -77.9022293 129.1362762)" class="st61" cx="52.1263428" cy="119.5111618" rx="3.7712052" ry="3.2688553"/>
		<g>
			<path d="M104.8600998,126.0987473c-3.4335861-0.5319214-6.092514-4.1156998-4.8950195-7.8696289
				c0.9890671-3.2421265,3.6840515-4.9911652,6.8369141-6.1928711c2.0883789-0.7792969,4.2431641-1.3178711,6.409668-1.6030273
				c2.2099609-0.2910156,3.9477539-0.0805664,5.3085938,0.6411133c3.2672501,1.7249756,4.271492,6.2240524,3.3583984,7.9086914l0,0
				c-0.5761719,1.065918-1.5063477,1.9506836-2.1855469,2.5048828c-2.5605469,2.0874023-5.8945313,3.4711914-10.4921875,4.3549805
				C107.7641068,126.109436,106.3208542,126.3131256,104.8600998,126.0987473z M115.0173264,111.8067551
				c-2.8906937,0-8.7147293,1.44944-11.3735352,3.6206055c-1.0615234,0.8608398-1.8793945,2.0439453-2.2470703,3.2480469
				c-0.9356766,2.9382401,1.2497482,5.5627594,3.6875,5.9399414c1.2895508,0.190918,2.6577148-0.027832,3.8383789-0.2460938
				c4.3393555-0.8344727,7.4619141-2.1196289,9.8222656-4.043457c0.5742188-0.46875,1.3549805-1.2055664,1.8144531-2.0556641
				c0-0.0004883,0.0004883-0.0009766,0.0004883-0.0014648c0.1948242-0.3583984,0.1826172-1.1381836-0.0322266-2.0864258
				c-0.3564453-1.6411133-1.3935547-3.0878906-2.7089844-3.7822266
				C117.070549,112.0035324,116.1462326,111.8067551,115.0173264,111.8067551z"/>
		</g>
		
			<ellipse transform="matrix(0.9900622 -0.1406303 0.1406303 0.9900622 -15.7962189 15.8888502)" class="st61" cx="104.5236053" cy="119.7107315" rx="3.2688553" ry="3.7712052"/>
		
			<ellipse transform="matrix(0.9900622 -0.1406303 0.1406303 0.9900622 -15.2053089 17.6138287)" class="st61" cx="117.0241699" cy="116.3922272" rx="3.2688553" ry="3.7712052"/>
		<g>
			<path d="M69.6779709,127.6368332c-3.742424,0.0148621-5.1085968,0.528511-6.5126991-1.1484375
				c-2.0356331-2.443306-1.8514214-6.2512817-0.0878906-7.7353516c1.1982384-0.990593,3.3968315-0.9404831,4.6801796-1.1005859
				c5.7765121-0.7107849,15.8749619-0.3494797,19.8623047-0.597168c2.2836914-0.140625,5.125-0.3149414,6.7714844,1.6259766
				c1.135582,1.3409805,0.9650421,3.0161285,0.9052734,4.5126953c-0.1591797,1.7636719-1.1499023,3.3432617-2.5239258,4.0244141
				C90.4801407,128.3774872,88.0238342,127.2006149,69.6779709,127.6368332z M77.2941818,126.0919113
				c5.1280899,0.0308914,5.5449142-0.0629044,12.0483398,0.1352539c0.9589844,0.0268555,1.9555664,0.0566406,2.7587891-0.3500977
				c0.9077148-0.449707,1.5893555-1.5805664,1.7011719-2.8164063l0,0c0.1137695-1.2954102,0.1254883-2.6054688-0.5551758-3.4091797
				c-1.1601563-1.3681641-3.5859375-1.2182617-5.5356445-1.0991211c-4.2919083,0.2643738-13.9941025-0.1208649-19.7700195,0.5883789
				c-1.1068802,0.1391296-3.1464996,0.1386032-3.9033203,0.7641602c-1.1221313,0.9440002-1.2132187,3.8312149,0.277832,5.6220703
				C65.2378769,126.6279449,64.8670959,126.0554504,77.2941818,126.0919113z M94.5495529,123.1265793h0.0097656H94.5495529z"/>
		</g>
		<g>
			<path d="M91.9050217,121.3160324H65.5475998c-0.4140625,0-0.75-0.3359375-0.75-0.75s0.3359375-0.75,0.75-0.75h26.3574219
				c0.4140625,0,0.75,0.3359375,0.75,0.75S92.3190842,121.3160324,91.9050217,121.3160324z"/>
		</g>
		<g>
			<path d="M90.3381271,124.6011887H65.6447678c-0.4140625,0-0.75-0.3359375-0.75-0.75s0.3359375-0.75,0.75-0.75h24.6933594
				c0.4140625,0,0.75,0.3359375,0.75,0.75S90.7521896,124.6011887,90.3381271,124.6011887z"/>
		</g>
		<g>
			<path d="M129.1266937,25.4166203c-0.0974884,0-103.92659-0.0263062-104.0356445-0.0522461
				c-1.0071754-0.2466183-0.8143196-1.4615383-0.8608398-1.6958008c-0.1567745-0.7826958-1.1688519-3.1085186-0.3789063-4.2592773
				c0.3397465-0.4952374,0.7821674-0.551054,1.328125-0.5375977c119.6424561,0.0033989,101.1596832,0.0028744,103.1391602,0.0029297
				c0.6277161,0,1.6831207-0.2696857,2.1191406,0.3339844c0.3039093,0.4202862,0.1317902,0.8698769-0.0600586,1.3447266
				c-0.3897705,0.9629765-0.3808899,2.0682545-0.050293,3.0146484c0.0770721,0.2233753,0.1599121,0.44631,0.1503906,0.7392578
				C130.4573822,24.9317341,130.002655,25.4166203,129.1266937,25.4166203z M128.9860687,24.2007999
				c-0.0039063,0.0185547-0.0068359,0.0375977-0.0073242,0.0571289l0.6967773-0.2807617L128.9860687,24.2007999z
				 M25.8166389,23.884882c1.9629612,0.0003262-16.4266167-0.0027237,103.0419922,0.0170898
				c-0.3770142-1.1990929-0.3537903-2.4949646-0.0058594-3.5561523
				c-0.5120544,0.0436096-103.6870728,0.0254574-103.7880859,0.0234375
				c-0.1329041,1.0613861,0.6612873,2.3724651,0.6762695,3.5170898
				C25.7668343,23.8853703,25.7922249,23.884882,25.8166389,23.884882z"/>
		</g>
		<path d="M46.3988724,33.7789421c-0.0215797,0.4371033,0.0489388,1.0341187,0.6118965,1.0974846
			c1.4044685,0.1580925,3.8845901-0.0033836,5.2891808-0.157299c1.4539757-0.1593246,1.6835136-0.6677895,1.6379776-1.7008858
			c-0.1124306-2.5506687-0.0652466-2.9165287-0.3933563-3.2618141c-0.305851-0.3218632-0.812088-0.3144588-1.2550468-0.2839546
			c-3.6469917,0.2511539-4.0476952,0.2410774-4.6346016,0.4489498c-0.4516754,0.1599751-1.0917931,0.5308304-1.1154251,1.0094185
			C46.4926224,31.8802071,46.4457474,32.8295746,46.3988724,33.7789421z"/>
		<path class="st61" d="M58.0288391,44.6887779c-2.532692,0.4318047-5.0834198,0.8031654-7.6535568,0.9042702
			c-3.4889946,0.1372452-4.6510124-0.2187347-5.4754219-0.307682c-0.5167122-0.055748-0.9673157,0.1301804-1.4866104-0.0671158
			c-1.0176277-0.386631-1.0156441-1.1686707-1.2020569-2.0870667c-0.2125931-1.0473633-0.3692017-2.1137428-0.3301811-3.1852684
			c0.0565186-1.5518494,0.5697365-3.1496696,1.710556-4.2032166c1.0315514-0.9526329,2.4450989-1.3590393,3.818615-1.6506767
			c2.3150864-0.4915581,4.6807823-0.7444038,7.0474586-0.7532234c6.4534912-0.0240555,6.3028564,3.3191032,7.2364349,9.8273544
			c0.0527649,0.3678474-0.0582962,0.5198135-0.348793,0.7515678C61.0098114,44.18536,60.7830505,44.2192039,58.0288391,44.6887779z"
			/>
		<path d="M40.9334793,43.9204636c0.9793739-0.5971298,2.1541862-0.7594795,3.2914543-0.909008
			c3.4348145-0.4515991,15.3526306-2.1217346,18.4700584-0.5324936c0.9801674,0.4996796,1.7765198,1.5121078,1.7006073,2.6096725
			c-0.0069275,0.100811-10.7926674,0.6681252-11.7868118,0.7526093c-9.0713577,0.7708931-9.1331406,1.1557655-11.7399254,1.246376
			C38.6033134,47.1663704,39.7574883,44.6374702,40.9334793,43.9204636z"/>
		<path class="st61" d="M36.0093307,47.431633c0.5415916-0.6568298,1.4023895-0.9419327,2.2196007-1.1804924
			c13.9473419-4.0580254,28.8341637-2.5194168,30.1498909-1.4955215c1.0176468,0.7919312,1.4386368,2.6790123,0.5257187,3.9246216
			c-0.8077698,1.1021423-2.2616272,1.4735069-3.6005325,1.7465096c-9.5825653,1.9538879-20.0190353,2.5924034-25.1018066,2.2928696
			c-0.9762001-0.0575256-2.13237-0.0445213-3.0027275-0.5104904C35.3873672,51.238945,34.9890594,48.6689835,36.0093307,47.431633z"
			/>
		<g>
			<path d="M37.7272835,49.5679893c-0.1152344-0.3979492,0.1132813-0.8139648,0.5112305-0.9291992
				c0.6035156-0.175293,14.9248047-4.25,27.4687538-1.1860352c0.4023438,0.0981445,0.6484375,0.5043945,0.550293,0.9067383
				s-0.5043945,0.6479492-0.9067383,0.550293c-12.1572304-2.9711914-26.5507851,1.1274414-26.6943398,1.1694336
				C38.2639847,50.1944962,37.84375,49.9693527,37.7272835,49.5679893z"/>
		</g>
		<path class="st61" d="M39.6051941,20.9075699c0.4606514,2.350647,1.0724945,4.7010117,1.9072418,6.9483757
			c0.6518936,1.7550812,1.6003189,3.4742832,3.6314278,3.817358c0.9539185,0.1611252,1.2495842,0.1015377,8.2343941-0.9023132
			c1.5881844-0.2282524,2.4576721-0.9322586,2.4831085-2.6518269c0.016777-1.1344299,0.1202278-2.1399612-0.1291847-2.5446568
			c-0.1730728-0.2808247-0.6309509-0.2089348-0.924118-0.3393269c-1.8092117-0.8046722-2.6907883-4.4449501-1.4792633-5.7610283
			c0.3429794-0.3725815,0.8738556-0.5996208,1.3696556-0.6650772c-0.3944321-1.3180676-0.3541985-1.3823757-0.8534241-2.1050358
			c-1.3789368-1.9960909-3.4298668-2.3115072-5.8032608-2.118187c-1.7166977,0.1398306-3.4178123,0.4687099-5.0633278,0.9773846
			C39.9289703,16.5059109,38.9453468,17.5399055,39.6051941,20.9075699z"/>
		<g>
			<path d="M48.1110725,26.8956242l-2.4243164-8.7602539c-0.1108398-0.3994141,0.1235352-0.8125,0.5224609-0.9228516
				c0.3974609-0.1108398,0.8125,0.1230469,0.9228516,0.5224609l2.4243164,8.7602539
				c0.1108398,0.3994141-0.1235352,0.8125-0.5224609,0.9228516C48.6371155,27.5281487,48.2219238,27.2965717,48.1110725,26.8956242z
				"/>
		</g>
		<path d="M111.2616882,33.1320038c0.0378113,0.4360008-0.0104675,1.0352249-0.5706787,1.1194725
			c-1.3976212,0.210186-3.8820343,0.1410065-5.2913742,0.0394096c-0.567131-0.0408859-1.2154465-0.1430779-1.5155334-0.626049
			c-0.2351303-0.378437-0.1871567-0.631382-0.1690979-3.2589798c0.0070343-1.0230198,0.2953568-1.3964462,1.5000305-1.3583908
			c3.6538086,0.1154213,4.0538635,0.0904579,4.6480865,0.276371c0.4573135,0.1430779,1.1107712,0.4898834,1.1521759,0.9672623
			C111.0974274,31.2380676,111.1795578,32.1850357,111.2616882,33.1320038z"/>
		<path class="st61" d="M100.0452805,44.4665833c3.786171,0.5015068,7.683815,0.8760529,11.4934464,0.3997002
			c0.5557022-0.0694847,1.0992508-0.2114944,1.6486282-0.291523c0.5142822-0.0749168,0.971489,0.0941353,1.4830856-0.1223259
			c1.0025558-0.4241905,0.9715042-1.205616,1.1236572-2.1303062c0.1735153-1.0545425,0.2903748-2.1260071,0.2115555-3.1953392
			c-0.1141586-1.5486794-0.6864166-3.1263199-1.8656082-4.1367302c-1.066246-0.9136314-2.493927-1.2672157-3.8773346-1.5075989
			c-2.331749-0.4051704-4.7052155-0.5699043-7.0705795-0.4907532c-6.4499283,0.2158394-6.1751328,3.5510902-6.8661575,10.0895424
			c-0.0390549,0.3695564,0.0775833,0.5172844,0.3764877,0.7380829
			C97.0476532,44.0743179,97.2755127,44.0997124,100.0452805,44.4665833z"/>
		<path d="M117.1002655,43.0633698c-1.0008926-0.5603142-2.1809311-0.6788864-3.3229675-0.7860336
			c-3.4492264-0.3236198-15.4208832-1.549614-18.4770889,0.1543999c-0.9609146,0.5357666-1.7190857,1.577095-1.6024323,2.6710777
			c0.0106735,0.1004906,10.8100433,0.2665062,11.8066406,0.3139801c9.0937424,0.4331779,9.1697922,0.8154869,11.7781448,0.8091431
			C119.549469,46.2204247,118.3020935,43.7361717,117.1002655,43.0633698z"/>
		<path class="st61" d="M121.6620178,46.8973045c-0.5587082-0.6423302-1.4267197-0.9046555-2.2499313-1.1215973
			c-14.6608047-3.849659-29.0597534-1.6198006-30.1788254-0.7005844c-0.9964294,0.81847-1.3675537,2.7159882-0.4221344,3.9371109
			c0.8365326,1.0804749,2.2996674,1.4134026,3.6453018,1.6510315c9.630722,1.7007217,20.0803986,2.0640259,25.153511,1.6306686
			c0.9743423-0.0832291,2.130455-0.1006927,2.9882355-0.5894318
			C122.3840866,50.6869049,122.7145386,48.1073456,121.6620178,46.8973045z"/>
		<g>
			<path d="M119.0856857,49.6138878c-0.1445313-0.0380859-14.6523438-3.753418-26.7163086-0.4658203
				c-0.3999023,0.1088867-0.8120117-0.1269531-0.9208984-0.5263672c-0.1088867-0.3999023,0.1269531-0.8120117,0.5263672-0.9208984
				c12.4584961-3.3930664,26.8828125,0.3032227,27.4907227,0.4619141c0.4003906,0.1049805,0.6401367,0.5146484,0.5356445,0.9150391
				C119.8959961,49.4794197,119.4867783,49.7179871,119.0856857,49.6138878z"/>
		</g>
		<path class="st61" d="M117.5722427,20.0170078c-0.3729553,2.3661442-0.8970108,4.737627-1.6476517,7.0144653
			c-0.5862045,1.7780991-1.4700699,3.5313644-3.48703,3.9496994c-0.9472656,0.1964722-1.2449417,0.1479149-8.2622375-0.5956192
			c-2.6364746-0.2793522-2.709053-1.8873978-2.5836487-4.526207c0.01194-0.2512302-0.0268784-0.4067726,0.2157211-0.500227
			c0.2499771-0.0962982,0.6945496,0.0711346,0.9564133,0.0885029c1.0850906,0.0719604,2.1315079-0.6971779,2.519104-1.7132263
			c0.5619431-1.4730701-0.0500565-3.4545841-2.1042709-4.5959949c-0.2138596-0.1188316-0.7949142-0.2667294-0.8678055-0.4759731
			c-0.0698318-0.2004452,0.1702042-0.7352886,0.2346802-0.9346638c0.4168243-1.2889328,1.236908-2.4165764,2.4423752-3.067338
			c2.2234344-1.2002974,6.586441-0.5115147,9.0147858,0.141324
			C117.085083,15.6304255,118.1064606,16.6271439,117.5722427,20.0170078z"/>
		<g>
			<path d="M108.3928146,26.8741398c-0.4033203-0.0957031-0.6523438-0.5-0.5571289-0.902832l2.0966797-8.8447266
				c0.0957031-0.4033203,0.4990234-0.6533203,0.902832-0.5571289c0.4033203,0.0957031,0.6523438,0.5,0.5571289,0.902832
				l-2.0966797,8.8447266C109.1994934,26.7216358,108.7945633,26.9686699,108.3928146,26.8741398z"/>
		</g>
		<g>
			<path d="M46.7145882,69.294548c-0.4072266,0-0.7416992-0.3266602-0.7495117-0.7358398l-0.2050781-10.8100548
				c-0.0078125-0.4140625,0.3217773-0.7563477,0.7358398-0.7641602c0.4086914,0.0024414,0.7558594,0.3217773,0.7641602,0.7358398
				l0.2050781,10.8100548c0.0078125,0.4140625-0.3217773,0.7563477-0.7358398,0.7641602
				C46.7243538,69.294548,46.719471,69.294548,46.7145882,69.294548z"/>
		</g>
		<g>
			<path d="M56.7433968,76.969841l-4.8222656-20.1352501c-0.0961914-0.402832,0.1518555-0.8076172,0.5546875-0.9042969
				c0.4038086-0.097168,0.8081055,0.1523438,0.9042969,0.5546875l4.8222656,20.1352501
				c0.0961914,0.402832-0.1518555,0.8076172-0.5546875,0.9042969C57.2478943,77.6203537,56.840538,77.3745041,56.7433968,76.969841z
				"/>
		</g>
		<g>
			<path d="M63.4343147,67.3521652c-0.269043,0-0.5297852-0.1455078-0.6640625-0.4003906l-5.2890625-10.0331993
				c-0.1928711-0.3662109-0.0527344-0.8198242,0.3139648-1.0131836c0.3652344-0.1918945,0.8198242-0.0532227,1.0131836,0.3139648
				l5.2890663,10.0331993c0.1928711,0.3662109,0.0527344,0.8198242-0.3139687,1.0131836
				C63.6721077,67.3243332,63.5524788,67.3521652,63.4343147,67.3521652z"/>
		</g>
		<g>
			<path d="M94.9235764,66.544548c-0.3974609-0.1157227-0.6264648-0.5317383-0.5107422-0.9296875l3.5527344-12.2265587
				c0.1157227-0.3974609,0.5292969-0.6279297,0.9296875-0.5107422c0.3974609,0.1157227,0.6264648,0.5317383,0.5107422,0.9296875
				l-3.5527344,12.2265587C95.7363205,66.436203,95.3153305,66.6588135,94.9235764,66.544548z"/>
		</g>
		<g>
			<path d="M101.8420334,71.829216c-0.4463425,0-0.7913895-0.3846893-0.7470703-0.824707l1.5292969-15.2446251
				c0.0410156-0.4121094,0.4018555-0.7216797,0.8208008-0.6713867c0.4121094,0.0410156,0.7128906,0.4086914,0.6713867,0.8208008
				l-1.5292969,15.2446251C102.5485764,71.5406418,102.2224045,71.829216,101.8420334,71.829216z"/>
		</g>
		<g>
			<path d="M110.3444748,67.9581223c-0.4018555,0-0.734375-0.3183594-0.7490234-0.7231445l-0.3964844-11.063961
				c-0.0146484-0.4140625,0.3085938-0.7617188,0.7226563-0.7763672c0.4121094-0.0263672,0.7612305,0.3081055,0.7763672,0.7226563
				l0.3964844,11.063961c0.0146484,0.4140625-0.3085938,0.7617188-0.7226563,0.7763672
				C110.3625412,67.9581223,110.3537521,67.9581223,110.3444748,67.9581223z"/>
		</g>
		<g>
			<path d="M21.3512764,17.9291611c-3.1698494,0-5.7398577,2.5697651-5.7398577,5.7398586
				c0,3.1698494,2.5700083,5.7398586,5.7398577,5.7398586s5.7398586-2.5700092,5.7398586-5.7398586
				C27.091135,20.4989262,24.5211258,17.9291611,21.3512764,17.9291611z M21.1112919,26.0688667
				c-1.5800419,0-2.8700504-1.2799988-2.8700504-2.8698063c0-1.5900517,1.2900085-2.8700523,2.8700504-2.8700523
				c1.5900517,0,2.8698082,1.2800007,2.8698082,2.8700523C23.9811001,24.788868,22.7013435,26.0688667,21.1112919,26.0688667z"/>
		</g>
		<path class="st63" d="M25.1221237,69.0335236c0-0.6189728-0.004406-1.2381363,0-1.8571014
			c0.0036659-0.5149002,0.3253098-1.0296249-1.1021748-1.3186417c-0.6329308-0.1281433-2.3426075-0.1005936-3.121067,0.1543503
			c-0.5427723,0.1777573-1.0532112,0.5372543-1.2784023,1.0621185c-0.2263622,0.5276031-0.1612816,0.2913361-0.2113857,10.2293549
			c-0.0072498,1.4379807-0.3965225,4.4108734,1.7118092,4.5847702c1.5388107,0.126915,2.6229649-1.2777176,4.0199757-1.754837
			c1.2731953-0.4348297,2.7127075-0.0684052,3.8438683,0.6600037c1.18326,0.7619629,4.0187969,3.0402985,1.9377861,4.4366608
			c0.562027,0.2501831,1.2394657,0.0836334,1.7449169-0.2670593c0.6277351-0.435524,0.8250999-0.7921371,3.3153-4.2622833
			c1.464344-2.0405884,1.7363815-3.3843994-0.4328117-4.7722702c-3.3051147-2.1146469-3.71315-1.2884903-4.3111362-2.1859131
			c-0.5066032-0.7602844-0.151144-1.8488159,1.072382-2.1860657c0.4843102-0.1334991,0.994709-0.126358,1.4970169-0.118248
			c4.808506,0.077652,5.2808723,0.1966476,5.7346191-0.2685699c0.3581734-0.3672333,0.3082008-0.9992218,0.0105858-1.4170456
			c-0.2976112-0.4178162-0.7797318-0.66185-1.2585716-0.8458557c-3.9359703-1.5124893-8.1228123-0.0336609-11.6916752,2.1741409
			c-0.3512039,0.2172623-1.1838951,0.7779388-1.4459515,0.163765C25.045042,70.9819183,25.1221237,70.9726868,25.1221237,69.0335236
			z"/>
		<path class="st63" d="M119.7343903,76.5046387c0.9065323-0.6718292,1.5393677-0.8256454,2.5950317,0.3500595
			c0.6375275,0.710022,1.2053452,1.4826202,1.692627,2.3030624c0.2374039,0.3997116,0.4625015,0.8705063,0.319313,1.3127975
			c-0.1360703,0.4203186-0.1661987,0.3586807-5.2498703,4.9889603c-1.4340973,1.3061905-3.9668121,3.4650345-5.8148651,4.0428772
			c-1.7172012,0.5369339-2.9278641-0.3712387-2.9869003-1.4256363c-0.1027603-1.8355713,2.7919693-2.3426208,3.0188065-4.0910797
			c0.1538391-1.1857605-1.3174591-1.984993-2.0936432-2.6912918c-3.459465-3.1479797-3.5511093-3.3061371-4.0389786-3.4389038
			c-1.3045654-0.3550034-2.2366333,1.3475494-3.5306244,1.3057785c-0.8710403-0.0281219-1.5512848-0.9603729-1.4325027-1.8237305
			c0.1696548-1.2331696,1.3405228-1.8803482,4.2360687-3.9924316c1.0306854-0.7518158,1.6773224-0.94944,2.9610138,0.0203629
			c2.2200241,1.6772003,3.8924789,4.4547653,6.7995377,4.9801178c0.2572403,0.0464859,0.6837463,0.1512299,0.9383087,0.0656281
			c0.252388-0.0848694,0.5072021-0.3654938,0.7225647-0.5250778
			C118.4916687,77.4256592,119.1130219,76.9651337,119.7343903,76.5046387z"/>
		<g>
			<path d="M44.7888069,101.6402512c-0.0708008-0.4082031,0.2026367-0.7963867,0.6108398-0.8666992
				c19.7258186-3.4212799,43.3718987-4.8103943,62.9487343-0.296875c0.4038086,0.0932617,0.6552734,0.4960938,0.5625,0.8994141
				c-0.0932617,0.4038086-0.4941406,0.6533203-0.8994141,0.5625c-19.3092957-4.4601974-42.832901-3.0688858-62.3559608,0.3125
				C45.2610893,102.3228073,44.8608971,102.0576935,44.7888069,101.6402512z"/>
		</g>
		<g>
			<path d="M134.0186157,16.3891582c-3.1698608,0-5.7498779,2.5700092-5.7498779,5.7398586s2.5800171,5.7398567,5.7498779,5.7398567
				c3.1698456,0,5.7398529-2.5700092,5.7398529-5.7398567S137.1884613,16.3891582,134.0186157,16.3891582z M133.7786255,24.529108
				c-1.5900574,0-2.869812-1.2900105-2.869812-2.8700523c0-1.5900517,1.2797546-2.8700504,2.869812-2.8700504
				c1.5800476,0,2.8700562,1.2799988,2.8700562,2.8700504C136.6486816,23.2390976,135.3586731,24.529108,133.7786255,24.529108z"/>
		</g>
		<g>
			<path d="M42.0661507,82.1798019l-3.3432617-4.7080078c-0.2397461-0.3374023-0.1606445-0.8056641,0.1772461-1.0454102
				c0.3374023-0.2397461,0.8056641-0.1611328,1.0454102,0.1772461l3.3432617,4.7080078
				c0.2397461,0.3374023,0.1606445,0.8056641-0.1772461,1.0454102
				C42.7727432,82.5979843,42.3045578,82.5162811,42.0661507,82.1798019z"/>
		</g>
		<g>
			<path d="M42.2184944,75.3072433l-2.4785156-1.1113281c-0.3779297-0.1694336-0.546875-0.6132813-0.3769531-0.9912109
				c0.1689453-0.3774414,0.6113281-0.5478516,0.9912109-0.3769531l2.4785156,1.1113281
				c0.3779297,0.1694336,0.546875,0.6132813,0.3769531,0.9912109
				C43.0406723,75.3074722,42.5968018,75.4770203,42.2184944,75.3072433z"/>
		</g>
	</g>
</g>
</svg>
