<?xml version="1.0" encoding="utf-8"?>
<!-- Generator: Adobe Illustrator 22.0.1, SVG Export Plug-In . SVG Version: 6.00 Build 0)  -->
<svg version="1.1" id="Layer_1" xmlns="http://www.w3.org/2000/svg" xmlns:xlink="http://www.w3.org/1999/xlink" x="0px" y="0px"
	 viewBox="0 0 156 156" style="enable-background:new 0 0 156 156;" xml:space="preserve">
<style type="text/css">
	.st0{fill:#FBAC02;}
	.st1{fill:#5D5D5C;}
	.st2{fill:#3A3935;}
	.st3{fill:#0A0B0D;}
	.st4{fill:#FCCD0C;}
	.st5{fill:#3B3B39;}
	.st6{fill:#404040;}
	.st7{fill:#21201C;}
	.st8{fill:#FCCD0A;}
	.st9{fill:#C6C6C4;}
	.st10{fill:#FBC606;}
	.st11{fill:#2C2C2C;}
	.st12{fill:#2D2D2D;}
	.st13{fill:#FFFFFF;}
	.st14{fill:#454545;}
	.st15{fill:#FFCE05;}
	.st16{fill:#585A59;}
	.st17{fill:#4E4F4A;}
	.st18{fill:#616362;}
	.st19{fill:#393937;}
	.st20{fill:#595758;}
	.st21{fill:#4E4E4E;}
	.st22{fill:#7E7E7E;}
	.st23{fill:#FDCE0D;}
	.st24{fill:#7D827C;}
	.st25{fill:#7F8180;}
	.st26{fill:#7C7B77;}
	.st27{fill:#81807D;}
	.st28{fill:#7E7D79;}
	.st29{fill:#FFD101;}
	.st30{fill:#686A69;}
	.st31{fill:#797977;}
	.st32{fill:#444444;}
	.st33{fill:#9D9D9D;}
	.st34{fill:#A6A5A3;}
	.st35{fill:#898989;}
	.st36{fill:#686868;}
	.st37{fill:#969694;}
	.st38{fill:#2F2E2C;}
	.st39{fill:#5D5D5D;}
	.st40{fill:#0D0D0D;}
	.st41{opacity:0.71;}
	.st42{fill:#888886;}
	.st43{fill:#888984;}
	.st44{fill:#6F6F6D;}
	.st45{fill:#616161;}
	.st46{fill:#555555;}
	.st47{fill:#FDFCF9;}
	.st48{opacity:0.37;}
	.st49{fill:#FFCB05;}
	.st50{fill:#7B7A76;}
	.st51{fill:#747570;}
	.st52{fill:#747474;}
	.st53{fill:#797C7B;}
	.st54{fill:#383838;}
	.st55{fill:#999998;}
	.st56{fill:#4D4B4C;}
	.st57{fill:#52524A;}
	.st58{fill:#AAAAA0;}
	.st59{fill:#030303;}
	.st60{fill:#545452;}
	.st61{fill:#FDCE04;}
	.st62{fill:#767674;}
	.st63{fill:#333333;}
	.st64{fill:#ABA9AA;}
	.st65{fill:#585954;}
	.st66{fill:#5E5D5B;}
	.st67{fill:#1A1615;}
	.st68{fill:#A0A19C;}
	.st69{fill:#8E9494;}
	.st70{fill:#464646;}
</style>
<g id="Forecast_Robot">
	<g>
		<path d="M76.7511444,123.6656265c-20.3974342,0-34.1024323-2.9109726-37.7737503-5.5518188
			c22.780571-4.333313,54.9796753-4.1058197,75.9476089-0.3302002
			C111.9639664,120.5145798,97.9788361,123.6656265,76.7511444,123.6656265z"/>
		<path d="M138.1234436,128.4874573c-0.7002563,2.8909454-3.1911621,4.4715881-5.772049,5.7220459
			c-4.101532,1.9706879-8.6131821,3.1212463-13.0447922,4.0715485c-36.1371689,7.7887421-98.4455795,2.5968781-101.506897-9.0032806
			c-0.3760204-1.4144745-0.310091-6.6436157-0.2400761-8.1130524c0.0436611-0.9653854,0.5194626-1.1308517,1.3104744-0.6301117
			c2.5883369,1.6503067,2.8348846,1.8502502,3.4412537,2.0608063c0.5901814,0.2000275,1.080349,0.2100372,1.5905437-0.1101456
			c1.3352585-0.7925491,5.8048801-2.1923599,7.9228668-2.7509995c1.7806778-0.4801559,3.5813179-0.9002304,5.3919754-1.2704849
			c7.9793892,9.0572815,73.1767578,8.8577881,79.348877-0.3800201c2.5909653,0.4901657,5.16185,1.0702133,7.7028122,1.7606506
			c8.864624,2.4018555,7.6479645,3.4910202,9.6134796,2.8208542c0.7703094-0.2601089,1.5105591-0.6401291,2.1907959-1.1102676
			c0.2400818-0.1699829,1.8206787-1.2804947,1.7306213-1.6006851
			C138.5683136,122.5767365,138.7322998,125.4506378,138.1234436,128.4874573z"/>
		<path class="st23" d="M115.5152512,116.743187c0,0.34021-0.2000885,0.6901932-0.5902481,1.0404205
			c-2.9610367,2.7309723-16.946167,5.882019-38.1738586,5.882019c-22.3728294,0-38.7641029-3.7550812-38.7641029-6.9224396
			c0-2.880928,14.7453575-6.9124222,38.7641029-6.9124222S115.5152512,113.8622589,115.5152512,116.743187z"/>
		<g>
			<path class="st23" d="M77.841507,107.1796494c-32.881958,0-59.621666,5.9523621-60.1418762,13.3349304
				c-0.0100136,0.0700912-0.0100136,0.1499557-0.0100136,0.220047c0,7.4827042,26.9398556,13.554985,60.151886,13.554985
				c33.2221069,0,60.151886-6.0722809,60.151886-13.554985v-0.0700912
				C137.823349,113.2118759,110.9636078,107.1796494,77.841507,107.1796494z M76.7511444,125.1661758
				c-17.3663025,0-35.6829643-2.3306808-39.5344009-6.7023926c-0.4801559-0.5402374-0.7302475-1.1202774-0.7302475-1.7205963
				c0-5.4619446,20.7375259-8.4129715,40.2646484-8.4129715c19.5171127,0,40.2646484,2.9510269,40.2646484,8.4129715
				c0,0.4701462-0.1500778,0.9102478-0.4501724,1.3405762C113.4844818,122.6953049,94.6076202,125.1661758,76.7511444,125.1661758z"
				/>
		</g>
		<g>
			<path d="M29.0459023,121.6548004c-8.9780846,0-8.9909325-6.2861328,0-6.2861328
				C38.0246544,115.3686676,38.0355263,121.6548004,29.0459023,121.6548004z M29.0459023,116.8696442
				c-3.2456055,0-5.2314453,1.0629883-5.2314453,1.6420898s1.9858398,1.6420898,5.2314453,1.6420898
				c3.2451172,0,5.230957-1.0629883,5.230957-1.6420898S32.2910194,116.8696442,29.0459023,116.8696442z"/>
		</g>
		<g>
			<path d="M35.6557655,126.8637848c0-4.2440491,15.0947266-4.2585144,15.0947266,0
				C50.7504921,131.1078339,35.6557655,131.1222992,35.6557655,126.8637848z M43.2031288,125.1684723
				c-3.9892578,0-6.0463867,1.1884766-6.0463867,1.6953125s2.0571289,1.6953125,6.0463867,1.6953125
				s6.0463867-1.1884766,6.0463867-1.6953125S47.1923866,125.1684723,43.2031288,125.1684723z"/>
		</g>
		<g>
			<path d="M74.9101639,133.1396637c-10.6696472,0-10.6718903-6.8759766,0-6.8759766
				C85.5798035,126.2636871,85.5820465,133.1396637,74.9101639,133.1396637z M74.9101639,127.7646637
				c-4.2016602,0-6.4931641,1.2792969-6.4931641,1.9370117s2.2915039,1.9370117,6.4931641,1.9370117
				s6.4931641-1.2792969,6.4931641-1.9370117S79.111824,127.7646637,74.9101639,127.7646637z"/>
		</g>
		<g>
			<path d="M99.2919998,126.5351715c0-3.8112717,14.4350586-3.8362198,14.4350586,0
				C113.7270584,130.3700409,99.2919998,130.3509216,99.2919998,126.5351715z M106.5097733,125.1684723
				c-3.7358398,0-5.628418,0.9951172-5.7177734,1.3735352c0.0898438,0.3642578,1.9833984,1.359375,5.7177734,1.359375
				c3.7114258,0,5.6044922-0.9829102,5.715332-1.3662109C112.1147537,126.1518707,110.2221756,125.1684723,106.5097733,125.1684723z
				 M112.2270584,126.5420074h0.0097656H112.2270584z"/>
		</g>
		<g>
			<path d="M117.7636795,118.8203278c0-3.9645691,13.9692307-4.0078735,13.9692307,0
				C131.7329102,122.7870483,117.7636795,122.8222656,117.7636795,118.8203278z M124.7485428,117.3325348
				c-3.5625,0-5.4838867,1.0561523-5.4838867,1.487793c0,0.4321289,1.9213867,1.4882813,5.4838867,1.4882813
				c3.5620041,0,5.4833908-1.0561523,5.4833908-1.4882813C130.2319336,118.3886871,128.3105469,117.3325348,124.7485428,117.3325348
				z"/>
		</g>
		<path d="M50.7948265,29.8689003c-2.5028152,3.0914917-1.5743027,8.6478233,2.4437256,11.4138336
			c0.3594055,0.2474136,0.7456436,0.4716606,1.1724281,0.5624237c0.4267883,0.0907631,0.9028053,0.0318756,1.2433853-0.2408714
			c0.5537491-0.4434662,0.5842476-1.2600822,0.5675621-1.9693222c-0.0602264-2.5598869-0.1204491-5.1197701-0.1806717-7.6796532
			c-0.0243263-1.0341091,0.3947563-3.5181999-0.9560471-3.9336472C53.601181,27.5652428,51.6795845,28.776041,50.7948265,29.8689003
			z"/>
		<path d="M98.5874481,28.8859882c1.1948242,1.4758568,1.5758896,3.5012074,1.3038635,5.3805103
			c-0.7406082,5.1164703-6.850296,9.4578209-6.7309647,4.3855515c0.0602264-2.5598831,0.1204453-5.1197701,0.1806717-7.6796532
			c0.0243301-1.0341091-0.3947601-3.5181999,0.9560471-3.9336452
			C95.7810974,26.5823288,97.7026901,27.7931271,98.5874481,28.8859882z"/>
		<path class="st36" d="M96.3278427,58.955677c3.0064545,2.6521225,7.1304779,3.9496384,11.1619263,3.6794434
			c1.6280594-0.1091156,3.3854065-0.5661354,4.9629593-0.9852524c1.3040619-0.3464584,2.1831894-1.0946999,3.1314774-1.9978752
			c0.9165955-0.8729935,2.3390884-0.1873093,3.5167389-0.0463066c3.177597,0.380455,6.4107132,0.2972069,9.5638657-0.2508736
			c-0.4163513,1.3904114-1.3998947,2.6018066-2.675148,3.2948647c-1.3704224,0.7447777-2.7591629,0.7161598-4.2442703,0.4764977
			c-0.9199295,2.1211777-3.643425,4.0444717-5.5321808,5.2503128c-7.0956955,4.5301361-15.8255997,4.1939392-22.3679123,0.017807"/>
		<path d="M67.1684723,118.8864441c-5.4725838,3.2477341-12.6020546,3.4387817-18.1376343,0.5014496
			c-0.4528313-0.2386856-0.7115746-0.7399292-0.6307297-1.2494736c1.6851921-10.9897385,15.7183228-14.1009674,19.3182297-0.5981827
			C67.8557892,118.061821,67.6293793,118.6116333,67.1684723,118.8864441z"/>
		<path d="M67.1684723,118.8864441c-5.4725838,3.2477341-12.6020546,3.4387817-18.1376343,0.5014496
			c-0.4528313-0.2386856-0.7115746-0.7399292-0.6307297-1.2494736c0.0849152-0.5537643,0.2102509-1.1035767,0.367939-1.6454926
			c0,0,11.086338,5.7575531,18.319561-0.9217529c0.2466278,0.6427994,0.4528275,1.3017807,0.6307297,1.9690628
			C67.8557892,118.061821,67.6293793,118.6116333,67.1684723,118.8864441z"/>
		<path class="st9" d="M61.5521698,112.5105515c-2.0653038,0.9584122-4.1020546,0.6489792-6.1124992-0.8023071
			c-0.0962219-0.069458,0.168293-1.3622284,0.1878815-1.5334625c0.9131088-7.9832764,0.895298-16.1620102,2.947876-23.9432526
			c0.1087799-0.412384,0.1225166-1.0388031,0.5514641-1.221138c1.7008286-0.7229843,5.8641052-0.510376,6.6445694,0.0456924
			c0.8276215,0.5896683-0.5422668,1.144455-2.2598801,12.1989975
			C62.725441,102.3146744,62.2229538,107.3993912,61.5521698,112.5105515z"/>
		<g>
			<path d="M54.554203,112.0381012c-0.3422852-0.2333984-0.4306641-0.7001953-0.1967773-1.0424805
				c0.2333984-0.3427734,0.7011719-0.4301758,1.0424805-0.1967773c1.9106445,1.3046875,4.5288086,1.5810547,6.6708984,0.7055664
				c0.3867188-0.1577148,0.8217773,0.0268555,0.9785156,0.4101563c0.1567383,0.3837891-0.0268555,0.8217773-0.4101563,0.9785156
				C60.02808,113.9613113,56.9276505,113.6581268,54.554203,112.0381012z"/>
		</g>
		<g>
			<path d="M56.4277382,108.390152c-0.3520508-0.2177734-0.4609375-0.6801758-0.2426758-1.0327148
				c0.2172852-0.3515625,0.6801758-0.4609375,1.0327148-0.2426758c0.8037109,0.4970703,1.8305664,0.6552734,2.7436523,0.4199219
				c0.4023438-0.1005859,0.8095703,0.1396484,0.9130859,0.5410156c0.1025391,0.4013672-0.1396484,0.8100586-0.5410156,0.9130859
				C59.0043983,109.3274155,57.5856094,109.1068649,56.4277382,108.390152z"/>
		</g>
		<g>
			<path d="M57.7407265,101.7251129c-0.3632813-0.1992188-0.496582-0.6552734-0.2978516-1.0185547
				c0.1992188-0.3632813,0.65625-0.4960938,1.0185547-0.2978516c0.8457031,0.4633789,1.8374023,0.6323242,2.7885742,0.4775391
				c0.4111328-0.0698242,0.7944336,0.2104492,0.8613281,0.6191406c0.0668945,0.4091797-0.2104492,0.7949219-0.6191406,0.8613281
				C60.1990547,102.5785065,58.8686066,102.3426971,57.7407265,101.7251129z"/>
		</g>
		<path d="M83.3445816,118.8864441c5.4725876,3.2477341,12.6020584,3.4387817,18.1376343,0.5014496
			c0.4528351-0.2386856,0.7115784-0.7399292,0.6307373-1.2494736c-1.6711807-10.8983841-15.7051926-14.1501999-19.3182297-0.5981827
			C82.6572647,118.061821,82.8836823,118.6116333,83.3445816,118.8864441z"/>
		<path d="M83.3445816,118.8864441c5.4725876,3.2477341,12.6020584,3.4387817,18.1376343,0.5014496
			c0.4528351-0.2386856,0.7115784-0.7399292,0.6307373-1.2494736c-0.0849152-0.5537643-0.2102509-1.1035767-0.3679428-1.6454926
			c0,0-11.0863419,5.7575531-18.3195572-0.9217529c-0.2466278,0.6427994-0.4528351,1.3017807-0.6307297,1.9690628
			C82.6572647,118.061821,82.8836823,118.6116333,83.3445816,118.8864441z"/>
		<path class="st9" d="M88.9608841,112.5105515c2.0653076,0.9584122,4.1020584,0.6489792,6.1125031-0.8023071
			c-1.2739105-9.7071228-0.8772507-19.7041245-4.2364502-29.0268936c-0.4662857-1.2940903-1.1613159-2.6705093-2.6100311-2.9857559
			c-1.8253403-0.3972015-3.8087921,0.4203568-5.4433975,1.1373367
			C86.8664627,90.9957123,87.5514221,101.7708359,88.9608841,112.5105515z"/>
		<g>
			<path d="M87.8740311,112.8930817c-0.3833008-0.1567383-0.5668945-0.5947266-0.4101563-0.9785156
				c0.15625-0.3833008,0.5932617-0.5678711,0.9785156-0.4101563c2.1411133,0.8754883,4.7592773,0.5991211,6.6704102-0.7055664
				c0.3422852-0.2329102,0.8085938-0.1459961,1.0424805,0.1967773c0.2333984,0.3417969,0.1455078,0.8085938-0.1967773,1.0424805
				C93.5991058,113.6490784,90.502449,113.968399,87.8740311,112.8930817z"/>
		</g>
		<g>
			<path d="M90.1796951,108.9887848c-0.4013672-0.1030273-0.6435547-0.5117188-0.5410156-0.9130859
				s0.5097656-0.6416016,0.9130859-0.5410156c0.9135742,0.2348633,1.9394531,0.0771484,2.7436523-0.4199219
				c0.3520508-0.2182617,0.8149414-0.1088867,1.0327148,0.2426758c0.2182617,0.3525391,0.109375,0.8149414-0.2426758,1.0327148
				C92.9206696,109.1111374,91.4966354,109.3258972,90.1796951,108.9887848z"/>
		</g>
		<g>
			<path d="M89.0210037,102.3667145c-0.4086914-0.0664063-0.6860352-0.4521484-0.6191406-0.8613281
				c0.0668945-0.4086914,0.4541016-0.6875,0.8613281-0.6191406c0.9516602,0.1547852,1.9423828-0.0141602,2.7885742-0.4775391
				c0.3632813-0.1982422,0.8188477-0.0654297,1.0185547,0.2978516c0.1987305,0.3632813,0.0654297,0.8193359-0.2978516,1.0185547
				C91.6477585,102.3409576,90.3187103,102.5789185,89.0210037,102.3667145z"/>
		</g>
		
			<rect x="69.0044708" y="45.8089828" transform="matrix(0.9996434 -0.026704 0.026704 0.9996434 -1.2957566 2.0337896)" width="12.9893036" height="7.4445205"/>
		<path class="st36" d="M98.8491516,59.9725342c-0.282547,4.9118423-0.4533844,8.5785065-3.6813354,21.357872
			c-1.5664215,6.2100143-3.6105652,7.5140457-9.6534729,7.7528152c-11.6925812,0.4790726-11.0470657,0.6126022-18.2566452,0.1499557
			c-5.1986008-0.3252182-8.8324051-0.9978638-10.5838623-5.882019c0.1042175-0.0048523,10.0841446-0.4697266,9.4534531-0.4403458
			c0.9703217-0.0398102,1.6605759-0.9402847,1.4604874-1.8805695l-4.6917076-22.0680847
			c-0.1700439-0.7903252-0.9002914-1.320549-1.7005692-1.2304268c-0.1007118,0.011013-10.2468643,1.1207962-9.6035309,1.0504303
			c-0.0556908-3.8956261,3.3703423-5.2656364,7.1725922-6.0322266c9.8650703-1.9680214,17.537487-1.6037102,27.5400505-1.2404404
			c3.1405029,0.1168633,9.0120239,1.0467072,11.1940689,3.0611725
			C99.1993179,56.1410637,98.9592361,57.9217415,98.8491516,59.9725342z"/>
		<g>
			<path d="M88.189949,88.6591949c-0.3803711-0.1650391-0.5546875-0.6069336-0.3901367-0.9868164
				c5.0473633-11.6420898,4.0913086-34.4321289,4.0810547-34.6606445c-0.0185547-0.4140625,0.3017578-0.7646484,0.7158203-0.7832031
				c0.4208984-0.0141602,0.7646484,0.3022461,0.7832031,0.7158203c0.0424805,0.9482422,0.9824219,23.3637695-4.203125,35.324707
				C89.0140228,88.6451035,88.5745468,88.8254013,88.189949,88.6591949z"/>
		</g>
		<g>
			<path d="M61.2622108,88.6152496c-0.4345703-1.3330078-0.8666992-3.1210938-1.2836914-5.3139648
				c-0.0776367-0.4072266,0.1894531-0.7998047,0.5966797-0.8769531c0.402832-0.0800781,0.7993164,0.1889648,0.8769531,0.5966797
				c0.4057617,2.1303711,0.8217773,3.8564453,1.2368164,5.1293945c0.128418,0.3935547-0.0869141,0.8173828-0.480957,0.9458008
				C61.8076744,89.2254257,61.3893356,89.004425,61.2622108,88.6152496z"/>
		</g>
		<g>
			<path d="M56.9462929,58.1718903c-0.2109375-2.6376953-0.3208008-4.3125-0.3208008-4.3125
				c-0.0273438-0.4135742,0.2856445-0.7709961,0.6992188-0.7978516c0.4106445-0.0263672,0.7709961,0.2861328,0.7978516,0.6992188
				c0.0004883,0.0029297,0.1098633,1.6689453,0.3198242,4.2910156c0.0327148,0.4130859-0.2753906,0.7749023-0.6879883,0.8081055
				C57.321682,58.8907852,56.9784775,58.5699806,56.9462929,58.1718903z"/>
		</g>
		<path class="st23" d="M62.1698189,57.9940414c0.4201851,0.0541039,0.8576088,0.0088501,1.2590828,0.1441345
			c1.0485306,0.3533249,1.3163986,1.5503769,1.4941406,2.5679779c1.5178833,8.6901703,1.0374832,8.1643143,3.3302307,8.2412109
			c5.0899048,0.1707306,15.2329025,0.3287582,20.0349121-1.2390823c0.6465607-0.2110977,1.0993881-0.7904282,1.1585388-1.4679947
			l0.7487335-8.5761986c0.0837555-0.959343-0.6437531-1.7967873-1.6055527-1.8447189
			c-5.2361374-0.2609558-20.6888275-0.9111023-25.9774895,0.199276c-0.5383682,0.1130333-0.9513931,0.4645576-1.202877,0.9441757
			C61.0917053,57.568985,61.4916344,57.9067192,62.1698189,57.9940414z"/>
		<g>
			<path class="st36" d="M83.5036011,19.3278656c-2.5069122-1.014082-5.1561203-1.0304031-7.682785-1.0304031
				c-0.2601089,0-0.5202103,0-0.7803116,0.0100117V29.351532c0,0.4100609-0.3400955,0.7502728-0.7502747,0.7502728
				c-0.4201355,0-0.7502747-0.3402119-0.7502747-0.7502728V18.3572979
				c-2.0707626,0.1001339-4.1715012,0.3702526-6.1122055,1.0704575c-3.3312302,1.1903744-5.7420807,3.7113113-6.6123924,6.9124279
				c-1.1004372,4.081562-1.5705795,8.2730293-1.3805084,12.4747505c0.0956764,1.7607346,1.6085739,2.1477928,3.3912468,2.4808846
				c5.6620331,1.0501862,11.4541168,1.3903999,17.2062149,1.0203896c3.8155365-0.2532082,5.9140396-0.844059,8.1129913-1.4507217
				c0.6602173-0.1900101,1.2804413-0.359993,1.6806107-0.7600403c0.3119202-0.3122406,0.6354523-3.9845238,0.6702271-4.561718
				C90.8862915,29.6016235,89.9959564,21.9587059,83.5036011,19.3278656z M65.9071732,34.1831245
				c-1.5005417,0-2.7109451-1.8705559-2.7109451-4.1814537c0-2.3008862,1.2104034-4.1714401,2.7109451-4.1714401
				c1.4905319,0,2.7009964,1.870554,2.7009964,4.1714401C68.6081696,32.3125687,67.3977051,34.1831245,65.9071732,34.1831245z
				 M79.4020767,33.3129349c-1.5260849,2.601265-5.3105545,2.975956-7.9528503,1.4004097
				c-0.3601761-0.2100372-0.480217-0.670166-0.2701187-1.0203896c0.2200546-0.359993,0.6802444-0.4801559,1.0303497-0.2701187
				c2.0674362,1.2101479,4.863266,0.8953056,5.9021683-0.8601761c0.2100983-0.3602371,0.6702271-0.4801559,1.0203934-0.2701187
				C79.4921341,32.5025787,79.612175,32.9627075,79.4020767,33.3129349z M84.603981,32.8327789
				c-1.4905319,0-2.7009964-1.8707981-2.7009964-4.1816978c0-2.3006401,1.2104645-4.1714382,2.7009964-4.1714382
				c1.5005417,0,2.7110062,1.8707981,2.7110062,4.1714382C87.3149872,30.9619808,86.1045227,32.8327789,84.603981,32.8327789z"/>
		</g>
		<g>
			<path class="st36" d="M85.4843063,15.4062729c-3.1811523-1.2804947-6.7124634-1.4204388-10.1536636-1.390398
				c-3.7313995,0.0300398-7.5227509,0.2500906-11.024025,1.5005455c-4.4716606,1.6004353-7.8028297,5.0018196-9.0132904,9.4634037
				c-1.4405251,5.2719383-2.0507355,10.7439003-1.8006439,16.1958351c0.1292076,2.7868729,2.3508835,3.5665512,5.1018333,4.0615349
				c9.7040367,1.8101616,22.8085289,2.3963356,32.3017921-0.4501152c1.0503693-0.310173,2.1807861-0.5502472,2.9710464-1.3305626
				c0.2601089-0.2601051,0.3501053-0.600071,0.4401627-0.9302711c0.2971115-1.0468216,0.6124802-4.2923622,0.6902542-5.4919853
				C95.5379486,28.9512405,94.2774811,18.957613,85.4843063,15.4062729z M91.9966812,35.6436157
				c-0.1085739,1.5565262-0.293541,2.8312263-0.310112,2.9710503c-0.307579,2.4606438-0.5684586,2.9575806-3.4512634,3.79142
				c-7.5564651,2.2583504-18.0069275,1.7931328-25.6793251,0.3702507c-0.8602982-0.1602135-1.700634-0.3301964-2.4908981-0.7202301
				c-1.3605423-0.6704102-2.0607491-1.700573-2.1207657-3.1813354c-0.2000847-4.341423,0.2800674-8.6931038,1.4305115-12.9246235
				c1.0003662-3.6812706,3.7513657-6.5724583,7.5427208-7.9328175c2.8810577-1.0304031,5.9722061-1.2006321,8.8932495-1.2204151
				c2.5709457-0.0300388,5.5419998,0.0500679,8.253006,1.1403084
				C89.8659058,20.2881756,92.6068878,26.4102764,91.9966812,35.6436157z"/>
		</g>
		<g>
			<path d="M57.6611366,95.9658356c-0.3491211-0.2231445-0.4511719-0.6870117-0.2280273-1.0366211
				c0.2236328-0.3491211,0.6879883-0.4506836,1.0366211-0.2280273c1.2597656,0.8056641,2.8642578,1.0258789,4.2963867,0.5927734
				c0.3974609-0.1225586,0.8154297,0.1035156,0.9355469,0.5c0.1206055,0.3964844-0.1035156,0.8154297-0.5,0.9355469
				C61.3743019,97.2845993,59.3006592,97.0134964,57.6611366,95.9658356z"/>
		</g>
		<g>
			<path d="M59.5434608,90.9853668c-0.3569336-0.2104492-0.4755859-0.6704102-0.2646484-1.0273438
				c0.2104492-0.3574219,0.6723633-0.4750977,1.0273438-0.2646484c0.824707,0.4863281,1.8081055,0.7285156,2.7626953,0.6811523
				c0.4238281-0.012207,0.7661133,0.2988281,0.7866211,0.7124023c0.0205078,0.4140625-0.2988281,0.7661133-0.7124023,0.7866211
				C61.8447113,91.935379,60.5788651,91.5963593,59.5434608,90.9853668z"/>
		</g>
		<g>
			<path d="M87.6972733,97.0957184c-0.4082031-0.0732422-0.6796875-0.4628906-0.6069336-0.8706055
				c0.0732422-0.4082031,0.4677734-0.6782227,0.8706055-0.6069336c1.2124023,0.2163086,2.5083008,0.0810547,3.6494141-0.3818359
				c0.3857422-0.15625,0.8212891,0.0292969,0.9770508,0.4135742c0.1557617,0.3837891-0.0292969,0.8212891-0.4135742,0.9770508
				C90.7526627,97.2030563,89.1595383,97.3569489,87.6972733,97.0957184z"/>
		</g>
		<g>
			<path d="M87.9160233,92.2788239c-0.4121094-0.0415039-0.7128906-0.409668-0.6713867-0.8217773
				c0.0419922-0.4125977,0.4199219-0.7094727,0.8217773-0.6713867c0.6787109,0.0688477,1.3891602-0.0566406,2.0029297-0.3515625
				c0.3745117-0.1791992,0.8217773-0.0219727,1.0014648,0.3510742c0.1796875,0.3735352,0.0224609,0.8217773-0.3510742,1.0014648
				C89.8595428,92.2002106,88.8928528,92.376503,87.9160233,92.2788239z"/>
		</g>
		<ellipse class="st6" cx="64.8596573" cy="31.2568779" rx="0.8157474" ry="2.4539013"/>
		<ellipse class="st6" cx="83.265976" cy="29.3505592" rx="0.8157474" ry="2.4539013"/>
		<path d="M69.8086166,82.540802l-2.9310608,0.139946c0.5401764-0.3299561,0.8502884-0.9803391,0.7102203-1.6505051
			l-4.6917076-22.0680847c-0.1500168-0.6901932-0.7202339-1.1803627-1.390461-1.2304268l3.3712234-0.3700104
			c0.7902679-0.0901184,1.5305252,0.4401016,1.6906204,1.2304306l4.6917038,22.0678444
			C71.4691925,81.6005173,70.7689285,82.4907379,69.8086166,82.540802z"/>
		<g>
			<path d="M66.4863358,82.0405426c0.2900391-0.1772461,0.4375-0.5214844,0.3671875-0.8564453l-4.6914101-22.065918
				c-0.0771484-0.3544922-0.3632813-0.6123047-0.7124023-0.6381836c-0.9036369-0.0661774-0.9285011-1.3953209-0.0263672-1.4936523
				l3.3715858-0.3701172c1.168457-0.1347656,2.2724609,0.668457,2.5078125,1.8271484l4.6904297,22.0605469
				c0.306282,1.371582-0.7097244,2.7116394-2.1455078,2.7861328c-0.7728577,0.0369034-3.0828857,0.1472168-2.9345703,0.1401367
				C66.1322556,83.4614258,65.8304138,82.4413223,66.4863358,82.0405426z M69.8086014,82.5410309h0.0097656H69.8086014z
				 M63.4477577,58.2734528c0.0795898,0.1655273,0.140625,0.3422852,0.1816406,0.5292969
				c4.8228569,23.0582047,4.889904,22.1518555,4.6840858,23.0585938c1.1661987-0.1218262,1.7008286,0.0960007,2.0717773-0.394043
				c0.4123459-0.5408478,0.2637024,0.3943634-4.5517578-22.71875c-0.0825195-0.4091797-0.4711914-0.6889648-0.8710938-0.6411133
				L63.4477577,58.2734528z"/>
		</g>
		<g>
			<path d="M33.3496132,83.2285309l-1.0185547-4.9072266c-0.1039047-0.4964371,0.3054314-0.940979,0.7924805-0.9003906
				c0.809082,0.0620117,1.6738281-0.2915039,2.6333008-0.7255859c0.9228401-0.4227753,0.9724998-0.5611343,0.894043-1.3085938
				c-0.0761719-0.8198242-0.2329102-1.6430664-0.4672852-2.4624023c-0.6079102,0.4560547-1.355957,0.7329102-2.1674805,0.5556641
				c-1.0073242-0.2358398-2.1279297-0.5551758-2.8208008-1.3969727c-0.3133678-0.3888779-0.0906219,0.300293-2.0454102-9.0366211
				c-0.2704315-1.364502,0.6807575-2.6229668,2.0126953-2.769043c31.7338104-3.4672241,29.9600906-3.3390732,30.4194336-3.2915039
				c0.9960938,0.0732422,1.8271484,0.8041992,2.0473633,1.8168945l4.6923866,22.0712891
				c0.2001953,0.9575195-0.2231445,1.9399414-1.0532227,2.4467773c0.8411331,0.4640579-6.860363,0.5340042-31.5478554,1.75
				C34.5728531,85.1282043,33.5688057,84.3205109,33.3496132,83.2285309z M33.9785194,78.8759918l0.8413086,4.0527344
				c0.078125,0.3886719,0.4316406,0.6479492,0.8271484,0.6435547c32.4887657-1.5403976,30.4780846-1.319809,30.8437538-1.534668
				c0.2871094-0.1777344,0.4326172-0.5200195,0.362793-0.8535156l-4.6914101-22.065918
				c-0.086441-0.3971939-0.4363632-0.6850281-0.8901367-0.6396484L31.326664,61.7685699
				c-0.4798317,0.0535431-0.8000126,0.5051765-0.706543,0.9794922l1.7490234,8.3916016
				c0.4619141,0.5219727,1.4072266,0.7431641,1.9780273,0.8769531c0.5322266,0.1171875,1.1748047-0.4008789,1.5439453-0.9296875
				c0.3490486-0.4974213,1.1051712-0.3959656,1.3173828,0.1650391c0.4767609,1.2644882,1.3394318,4.3081665,0.7529297,5.5146484
				c-0.3583984,0.7329102-1.0947266,1.0708008-1.5820313,1.2944336
				C35.7192421,78.3593903,34.8818398,78.7387848,33.9785194,78.8759918z M66.877449,82.6806793h0.0097656H66.877449z"/>
		</g>
		<g>
			<path d="M48.4213905,75.4956207c-2.5532227,0-4.8334961-2.1992188-5.0830078-4.9023438
				c-0.2543106-2.7477188,1.6611595-5.0395508,4.3027344-5.0395508c2.5527344,0,4.8325195,2.1987305,5.0830078,4.9013672v0.0004883
				C52.9793472,73.2141266,51.054287,75.4956207,48.4213905,75.4956207z M47.6411171,67.0547028
				c-1.7703362,0-2.9792328,1.5511856-2.8085938,3.4008789c0.1801758,1.9516602,1.7900391,3.5390625,3.5888672,3.5390625
				c1.7701607,0,2.9792824-1.5506439,2.8085938-3.4008789l0,0C51.0493202,68.6421051,49.4394569,67.0547028,47.6411171,67.0547028z"
				/>
		</g>
		<g>
			<path d="M32.6528358,78.8715973c-2.1339817-0.3495102-4.4221268-3.0168228-4.2280273-6.309082
				c0.1137695-1.706543,0.9003906-3.331543,2.1577148-4.4643555c0.1987305-0.1791992,0.4775391-0.2382813,0.7324219-0.15625
				c0.9501076,0.3057785,0.383749,2.1397705,0.9848633,3.0952148c0.0589828,0.1000595,0.1136703,0.1928329,0.0546875,0.0927734
				c0.4277344,0.5200195,1.4072266,0.7495117,1.9926758,0.8867188c0.5322266,0.1171875,1.1748047-0.4008789,1.5439453-0.9296875
				c0.3490486-0.4974213,1.1051712-0.3959656,1.3173828,0.1650391c0.4767609,1.2644882,1.3394318,4.3081665,0.7529297,5.5146484
				c-0.0004883,0.0004883-0.0004883,0.0009766-0.0009766,0.0014648c-0.3574219,0.7314453-1.09375,1.0693359-1.5810547,1.2929688
				C35.2653694,78.5653763,33.8511353,79.1406021,32.6528358,78.8715973z M30.557621,70.5107574
				c-1.691328,3.0507507,0.290781,6.5429306,2.3793945,6.8881836l0.1074219,0.0146484
				c0.9690132,0.0461426,1.599453-0.21418,2.7124023-0.7182617c0.3842773-0.1762695,0.7416992-0.3549805,0.8549805-0.5849609l0,0
				c0.2274513-0.4676056-0.251503-2.5682526-0.4282227-3.1860352c-0.6079102,0.4560547-1.355957,0.7329102-2.1674805,0.5556641
				C32.0315781,73.0153656,30.8989754,72.4378204,30.557621,70.5107574z"/>
		</g>
		<g>
			<path d="M30.4311562,69.1845856l-0.0800781-0.3701172c-0.1310959-0.6090012,0.5007935-1.0812149,1.0180664-0.8876953
				c0.6622887,0.2439346,0.4884777,0.8530045,0.5439453,1.0478516
				C31.9761009,69.8957214,30.6276226,70.0908585,30.4311562,69.1845856z"/>
		</g>
		<circle class="st23" cx="121.4990921" cy="45.147831" r="10.2440376"/>
		<g>
			<path class="st23" d="M108.6757889,42.7036285l-3.855957-0.4282227c-0.4121094-0.0454102-0.7089844-0.4165039-0.6630859-0.828125
				c0.0454102-0.4121094,0.4165039-0.7143555,0.828125-0.6630859l3.855957,0.4282227
				c0.4121094,0.0454102,0.7089844,0.4165039,0.6630859,0.828125
				C109.4573669,42.4610519,109.0737381,42.7524986,108.6757889,42.7036285z"/>
		</g>
		<g>
			<path class="st23" d="M111.3437576,36.8325348l-1.8896484-0.8334961
				c-0.3793945-0.1674805-0.5507813-0.6103516-0.3837891-0.9892578c0.1674805-0.3793945,0.6088867-0.5512695,0.9892578-0.3837891
				l1.8896484,0.8334961c0.3793945,0.1674805,0.5507813,0.6103516,0.3837891,0.9892578
				C112.1658707,36.8271103,111.7238159,36.9999847,111.3437576,36.8325348z"/>
		</g>
		<g>
			<path class="st23" d="M116.3823318,33.0185699l-0.7910156-3.7207031
				c-0.0859375-0.4057617,0.1723633-0.8041992,0.5776367-0.8901367c0.4057617-0.0864258,0.8037109,0.1723633,0.8901367,0.5776367
				l0.7910156,3.7207031c0.0859375,0.4057617-0.1723633,0.8041992-0.5776367,0.8901367
				C116.8684082,33.6822548,116.4690857,33.4253235,116.3823318,33.0185699z"/>
		</g>
		<g>
			<path class="st23" d="M123.8574295,33.6718903c-0.3818359-0.1616211-0.5600586-0.6020508-0.3984375-0.9833984
				l1.1386719-2.6904297c0.1616211-0.3813477,0.6005859-0.5605469,0.9833984-0.3984375
				c0.3813477,0.1611328,0.5600586,0.6015625,0.3984375,0.9833984l-1.1386719,2.6904297
				C124.6783752,33.6573105,124.2355728,33.8328438,123.8574295,33.6718903z"/>
		</g>
		<g>
			<path class="st23" d="M131.4584961,39.7690582c-0.1621094-0.3813477,0.015625-0.8217773,0.3969727-0.9838867l3.6821289-1.5644531
				c0.3823242-0.1630859,0.8222656,0.015625,0.9838867,0.3969727c0.1621094,0.3813477-0.015625,0.8217773-0.3969727,0.9838867
				l-3.6821289,1.5644531C132.0566254,40.3293839,131.6186981,40.1469307,131.4584961,39.7690582z"/>
		</g>
		<g>
			<path class="st23" d="M137.1254883,49.2016754l-3.3193359-0.5107422c-0.409668-0.0634766-0.6904297-0.4462891-0.6274414-0.855957
				s0.449707-0.6904297,0.855957-0.6274414l3.3193359,0.5107422c0.409668,0.0634766,0.6904297,0.4462891,0.6274414,0.855957
				C137.9189606,48.9795837,137.5399017,49.2646217,137.1254883,49.2016754z"/>
		</g>
		<g>
			<path class="st23" d="M134.8295898,57.5903473l-2.7529297-3.2949219
				c-0.265625-0.3178711-0.2236328-0.7910156,0.0947266-1.0566406c0.3178711-0.2661133,0.7915039-0.2231445,1.0566406,0.0947266
				l2.7529297,3.2949219c0.265625,0.3178711,0.2231445,0.7910156-0.0947266,1.0566406
				C135.5678101,57.9513588,135.0952301,57.9084167,134.8295898,57.5903473z"/>
		</g>
		<g>
			<path class="st23" d="M104.5122147,51.1181793c-0.109375-0.3994141,0.1264648-0.8120117,0.5263672-0.9208984l3.7446289-1.0209961
				c0.3999023-0.1083984,0.8125,0.1264648,0.9208984,0.5263672c0.109375,0.3994141-0.1264648,0.8120117-0.5263672,0.9208984
				l-3.7446289,1.0209961C105.0327911,51.754261,104.6207962,51.5174904,104.5122147,51.1181793z"/>
		</g>
		<g>
			<path class="st23" d="M111.0429764,59.2324371c-0.3642578-0.1972656-0.4995117-0.6523438-0.3022461-1.0170898
				l1.3422852-2.4785156c0.1977539-0.3652344,0.6533203-0.4990234,1.0170898-0.3022461
				c0.3642578,0.1972656,0.4995117,0.652832,0.3022461,1.0170898l-1.3422852,2.4785156
				C111.8632431,59.2933807,111.4091949,59.4304771,111.0429764,59.2324371z"/>
		</g>
	</g>
</g>
</svg>
