<?xml version="1.0" encoding="utf-8"?>
<!-- Generator: Adobe Illustrator 22.0.1, SVG Export Plug-In . SVG Version: 6.00 Build 0)  -->
<svg version="1.1" id="Layer_1" xmlns="http://www.w3.org/2000/svg" xmlns:xlink="http://www.w3.org/1999/xlink" x="0px" y="0px"
	 viewBox="0 0 156 156" style="enable-background:new 0 0 156 156;" xml:space="preserve">
<style type="text/css">
	.st0{fill:#FBAC02;}
	.st1{fill:#5D5D5C;}
	.st2{fill:#3A3935;}
	.st3{fill:#0A0B0D;}
	.st4{fill:#FCCD0C;}
	.st5{fill:#3B3B39;}
	.st6{fill:#404040;}
	.st7{fill:#21201C;}
	.st8{fill:#FCCD0A;}
	.st9{fill:#C6C6C4;}
	.st10{fill:#FBC606;}
	.st11{fill:#2C2C2C;}
	.st12{fill:#2D2D2D;}
	.st13{fill:#FFFFFF;}
	.st14{fill:#454545;}
	.st15{fill:#FFCE05;}
	.st16{fill:#585A59;}
	.st17{fill:#4E4F4A;}
	.st18{fill:#616362;}
	.st19{fill:#393937;}
	.st20{fill:#595758;}
	.st21{fill:#4E4E4E;}
	.st22{fill:#7E7E7E;}
	.st23{fill:#FDCE0D;}
	.st24{fill:#7D827C;}
	.st25{fill:#7F8180;}
	.st26{fill:#7C7B77;}
	.st27{fill:#81807D;}
	.st28{fill:#7E7D79;}
	.st29{fill:#FFD101;}
	.st30{fill:#686A69;}
	.st31{fill:#797977;}
	.st32{fill:#444444;}
	.st33{fill:#9D9D9D;}
	.st34{fill:#A6A5A3;}
	.st35{fill:#898989;}
	.st36{fill:#686868;}
	.st37{fill:#969694;}
	.st38{fill:#2F2E2C;}
	.st39{fill:#5D5D5D;}
	.st40{fill:#0D0D0D;}
	.st41{opacity:0.71;}
	.st42{fill:#888886;}
	.st43{fill:#888984;}
	.st44{fill:#6F6F6D;}
	.st45{fill:#616161;}
	.st46{fill:#555555;}
	.st47{fill:#FDFCF9;}
	.st48{opacity:0.37;}
	.st49{fill:#FFCB05;}
	.st50{fill:#7B7A76;}
	.st51{fill:#747570;}
	.st52{fill:#747474;}
	.st53{fill:#797C7B;}
	.st54{fill:#383838;}
	.st55{fill:#999998;}
	.st56{fill:#4D4B4C;}
	.st57{fill:#52524A;}
	.st58{fill:#AAAAA0;}
	.st59{fill:#030303;}
	.st60{fill:#545452;}
	.st61{fill:#FDCE04;}
	.st62{fill:#767674;}
	.st63{fill:#333333;}
	.st64{fill:#ABA9AA;}
	.st65{fill:#585954;}
	.st66{fill:#5E5D5B;}
	.st67{fill:#1A1615;}
	.st68{fill:#A0A19C;}
	.st69{fill:#8E9494;}
	.st70{fill:#464646;}
</style>
<g id="Lab_Robot">
	<g>
		<ellipse class="st33" cx="80.938591" cy="59.6022606" rx="13.4769735" ry="3.2264099"/>
		<path class="st23" d="M112.0438614,66.5085602l-20.345932-16.53862l1.9986191-12.2215347l20.0061951,20.3860588
			C110.2384567,59.2951508,109.3493652,64.0087128,112.0438614,66.5085602z"/>
		<path class="st23" d="M115.9211807,67.6579132l-1.5089645,0.7794952l-1.8687057-1.5189743
			C113.5188904,67.6038666,114.7150803,67.8889465,115.9211807,67.6579132z"/>
		<path class="st23" d="M118.2196426,66.4687958c2.2605667-2.1182251,2.0046005-6.028595-0.599678-7.7846603l12.3815765-5.9358406
			l2.1984406,6.5052719L118.2196426,66.4687958z"/>
		<g>
			<path d="M112.1144257,67.5327606c-0.0231018-0.015007-0.5282135-0.4302216-0.5493164-0.4477539
				c-3.1578598-2.9240417-2.1036072-8.3204041,1.8994141-9.6611366c3.3540802-1.1450768,7.043457,1.4421883,7.043457,5.3974609
				C120.5079803,67.2828064,115.7351151,70.0757904,112.1144257,67.5327606z M112.9747772,66.3052216
				c2.6080704,1.8334503,6.0341797-0.216011,6.0341797-3.4838905c0-2.928257-2.6818924-4.7932854-5.0639648-3.9775391
				c-2.9381638,0.9837761-3.66362,5.0087624-1.3916016,7.1152382c0.102951,0.0847702,0.5238495,0.4314499,0.4208984,0.3466797
				L112.9747772,66.3052216z"/>
		</g>
		<ellipse cx="115.1108017" cy="62.5743179" rx="2.3233531" ry="2.4581001"/>
		<path class="st23" d="M43.8110962,68.8370285l-17.5979481-9.1038132l2.6381912-5.3361588l0.4397602-0.609684l15.0994301,7.2649994
			C41.7695427,62.8546906,41.5616722,66.7300949,43.8110962,68.8370285z"/>
		<path class="st23" d="M49.5071106,69.2566605l-1.8987122,1.5489807l-1.5389748-0.7994995
			C47.1254845,70.2410355,48.4231071,70.0330963,49.5071106,69.2566605z"/>
		<path class="st23" d="M49.9167404,68.9270554c2.7798119-2.5022354,1.8702354-7.2504425-1.5888672-8.4341125l20.0061951-20.3760567
			l1.9886169,12.2115326L49.9167404,68.9270554z"/>
		<path d="M66.9952316,141.1256866H26.9122257c-2.8739338,0-5.2037163-2.3297882-5.2037163-5.2037201v-1.7704773
			c0-2.8739319,2.3297825-5.2037201,5.2037163-5.2037201h40.0830078c2.8739395,0,5.2037201,2.3297882,5.2037201,5.2037201v1.7704773
			C72.1989517,138.7958984,69.8691711,141.1256866,66.9952316,141.1256866z"/>
		<g>
			<path class="st23" d="M34.4235077,140.1406708c-0.9541016-0.7836914-1.9755859-1.734375-2.0219727-3.1000977
				c-0.0701065-2.0738068,2.0794678-3.2121735,2.9560547-4.2158203c0.2724609-0.3110352,0.7456055-0.34375,1.0576172-0.0712891
				c0.3115234,0.2724609,0.34375,0.7460938,0.0712891,1.0576172c-0.340332,0.3896484-0.7202148,0.7114258-1.0878906,1.0224609
				c-2.0105705,1.7046967-1.9837723,2.5375824-0.0239258,4.1489258c0.3198242,0.2626953,0.3662109,0.7348633,0.1035156,1.0546875
				C35.214077,140.3586121,34.740963,140.4024353,34.4235077,140.1406708z"/>
		</g>
		<g>
			<path class="st23" d="M45.9410858,139.4731903c-0.8081055-0.4135742-1.7749023-1.0234375-2.0771484-2.0820313
				c-0.2700195-0.9438477,0.0966797-2.0546875,0.934082-2.8295898c0.6748047-0.6254883,1.5097656-0.9589844,2.246582-1.2529297
				c0.3818359-0.1533203,0.8208008,0.0327148,0.9736328,0.4179688c0.1538086,0.3842773-0.0332031,0.8203125-0.4179688,0.9736328
				c-0.6455078,0.2583008-1.3129883,0.5249023-1.7836914,0.9609375c-0.3496094,0.3237305-0.6430664,0.8569336-0.5112305,1.3183594
				c0.1425781,0.5004883,0.746582,0.8666992,1.3183594,1.1586914c0.3686523,0.1884766,0.5146484,0.6401367,0.3261719,1.0087891
				C46.7610359,139.5156708,46.3099937,139.6609344,45.9410858,139.4731903z"/>
		</g>
		<g>
			<path class="st23" d="M57.5436249,139.06987c-3.5082169-0.9099121-3.3731422-5.4516907,0.0019531-6.4707031
				c0.394043-0.1210938,0.8144531,0.1040039,0.934082,0.5004883s-0.1044922,0.8144531-0.5004883,0.934082
				c-1.9119797,0.5776062-2.1160965,3.0517883-0.0595703,3.5849609c0.4008789,0.1040039,0.6416016,0.5131836,0.5375977,0.9135742
				C58.3542252,138.9303589,57.9483871,139.1734161,57.5436249,139.06987z"/>
		</g>
		<path d="M90.6437607,141.1256866h40.0830002c2.8739319,0,5.2037201-2.3297882,5.2037201-5.2037201v-1.7704773
			c0-2.8739319-2.3297882-5.2037201-5.2037201-5.2037201H90.6437607c-2.8739395,0-5.2037201,2.3297882-5.2037201,5.2037201
			v1.7704773C85.4400406,138.7958984,87.7698212,141.1256866,90.6437607,141.1256866z"/>
		<g>
			<path class="st23" d="M122.7399139,140.3110809c-0.6992416,0-1.0204849-0.8814545-0.4760742-1.3286133
				c1.4863586-1.2211914,2.0890579-2.123642,0.6816406-3.5200195c-0.5733261-0.5695648-1.2066879-0.9801331-1.7929688-1.6513672
				c-0.2724609-0.3115234-0.2402344-0.7851563,0.0712891-1.0576172s0.784668-0.2397461,1.0576172,0.0712891
				c0.848793,0.971817,3.0268707,2.1211243,2.9560547,4.2158203c-0.0463867,1.3662109-1.0683594,2.3168945-2.0224609,3.1000977
				C123.0758514,140.2554169,122.9073944,140.3110809,122.7399139,140.3110809z"/>
		</g>
		<g>
			<path class="st23" d="M111.3571014,139.5552216c-0.7847672,0-1.0406647-1.0596924-0.3417969-1.4169922
				c0.5717773-0.2919922,1.1757813-0.6582031,1.3183594-1.1582031c0.1318359-0.4619141-0.1616211-0.9951172-0.5112305-1.3188477
				c-0.4707031-0.4360352-1.1381836-0.7026367-1.7836914-0.9609375c-0.3847656-0.1533203-0.5717773-0.5893555-0.4179688-0.9736328
				c0.1533203-0.3852539,0.5932617-0.5712891,0.9736328-0.4179688c0.7368164,0.2939453,1.5717773,0.6274414,2.246582,1.2529297
				c0.8374023,0.7749023,1.2041016,1.8857422,0.934082,2.8300781c-0.3022461,1.0581055-1.269043,1.6679688-2.0771484,2.081543
				C111.5885468,139.5288544,111.4718475,139.5552216,111.3571014,139.5552216z"/>
		</g>
		<g>
			<path class="st23" d="M99.7194061,137.6186981c2.0567398-0.5332336,1.852272-3.0074005-0.0595703-3.5849609
				c-0.3959961-0.1196289-0.6201172-0.5375977-0.5004883-0.934082c0.1196289-0.3959961,0.5375977-0.621582,0.934082-0.5004883
				c3.3773956,1.0196991,3.5065155,5.5617371,0.0019531,6.4707031
				C99.1186981,139.3197174,98.7727814,137.8642883,99.7194061,137.6186981z"/>
		</g>
		<polyline class="st23" points="41.4943962,121.1909714 53.5816498,92.7288361 65.1652679,95.2537384 58.7858849,122.6179352 		"/>
		<polyline class="st23" points="116.1445999,121.1909714 104.0573425,92.7288361 92.4737244,95.2537384 98.8531036,122.6179352 		
			"/>
		<polygon points="70.3265991,57.2848816 70.7457809,73.5397949 90.0746841,73.5397949 90.3541336,57.5643387 		"/>
		<g>
			<path class="st23" d="M81.0153732,14.8743172c-7.4848251,0-13.5506973,6.065876-13.5506973,13.5506954v30.8685627
				c0,0.3798637,0.3397293,0.7394791,0.6994629,0.6396942c8.8539963-2.3984871,17.5679398-2.3984871,25.6823349-0.0300064
				c0.3697357,0.109787,0.7194672-0.2498283,0.7194672-0.6396942V28.4250126
				C94.5659409,20.9423599,88.5056763,14.8743172,81.0153732,14.8743172z M80.7655411,37.4087944
				c-3.3123627,0-5.4962006-3.4813995-5.4962006-6.9151421c0-3.5289631,2.2787857-6.905386,5.4962006-6.905386
				c3.0378189,0,5.4962006,3.0879536,5.4962006,6.905386C86.2617416,34.3108368,83.80336,37.4087944,80.7655411,37.4087944z"/>
		</g>
		<path class="st23" d="M103.6196213,80.2190628c-0.2137451,1.80439,0.887207,5.8058319-2.3982391,9.4934387
			c0.3567886-2.3756943-1.4454575-4.2270584-3.5776062-4.2270584c-1.9986191,0-3.6173782,1.6189957-3.6173782,3.6176147
			c0,1.6087494,1.049202,2.9779205,2.4982758,3.4575729c-0.7396011,0.1898117-1.5289764,0.2898407-2.3284683,0.2898407
			c-30.0649567-0.2006531-29.6337967,0.451416-32.4475517-0.5796814c1.1092186-0.6194458,1.8687057-1.8088074,1.8687057-3.1677322
			c0-1.9986191-1.6288795-3.6176147-3.6274986-3.6176147c-1.5089684,0-2.8081207,0.9295273-3.3477859,2.2386856
			c-1.5254631-2.9375229-0.9103813-5.2327347-1.049202-7.5050659c0-5.1963654,4.2170563-9.4134216,9.4235458-9.4134216h29.1797867
			C99.402565,70.8056412,103.6196213,75.0226974,103.6196213,80.2190628z"/>
		<g>
			<path class="st1" d="M55.5928726,82.2876968c-2.4183731,1.468956-4.0272484,4.1272736-4.0272484,7.1652145
				c0,4.6266861,3.7474136,8.3841019,8.3842239,8.3841019c4.6450233,0,8.3842201-3.781311,8.3842201-8.3841019
				C68.3340683,82.8711624,61.0861359,78.9138107,55.5928726,82.2876968z M59.9898605,92.7304306
				c-2.6437187,0-4.3162766-2.7349777-3.3477859-4.9965439c0,0,0,0,0-0.009758
				c0.5396652-1.3091583,1.8388176-2.2386856,3.3477859-2.2386856c1.9986191,0,3.6274986,1.6189957,3.6274986,3.6176147
				C63.6173592,91.1124573,61.9651031,92.7304306,59.9898605,92.7304306z"/>
		</g>
		<g>
			<path class="st1" d="M67.3846512,118.9025345H27.3024826c-2.8781376,0-5.2064857,2.3382263-5.2064857,5.2063675v1.7687912
				c0,2.8778915,2.3283482,5.2063675,5.2064857,5.2063675h40.0821686c2.8681335,0,5.1964798-2.328476,5.1964798-5.2063675
				v-1.7687912C72.581131,121.2407608,70.2527847,118.9025345,67.3846512,118.9025345z M31.2096958,126.5571594
				c-1.1691151,0-2.1185322-0.949295-2.1185322-2.1186523c0-1.1691132,0.9494171-2.1184082,2.1185322-2.1184082
				c1.1692371,0,2.1185322,0.949295,2.1185322,2.1184082C33.328228,125.6078644,32.378933,126.5571594,31.2096958,126.5571594z
				 M46.1194382,126.5571594c-1.1692352,0-2.1085281-0.949295-2.1085281-2.1186523
				c0-1.1691132,0.9392929-2.1184082,2.1085281-2.1184082s2.1185303,0.949295,2.1185303,2.1184082
				C48.2379684,125.6078644,47.2886734,126.5571594,46.1194382,126.5571594z M61.0391808,126.5571594
				c-1.1692352,0-2.1186523-0.949295-2.1186523-2.1186523c0-1.1691132,0.9494171-2.1184082,2.1186523-2.1184082
				c1.169117,0,2.118412,0.949295,2.118412,2.1184082C63.1575928,125.6078644,62.2082977,126.5571594,61.0391808,126.5571594z"/>
		</g>
		<g>
			<path class="st1" d="M97.6937866,81.068573c-6.0799026,0-10.1077271,6.2591553-7.6646271,11.7818985
				c1.2990341,2.937912,4.2370682,4.9865417,7.6646271,4.9865417c4.6268082,0,8.3842239-3.7574158,8.3842239-8.3841019
				C106.0780106,84.8327866,102.3201828,81.068573,97.6937866,81.068573z M96.5246735,92.5606308
				c-1.4490738-0.4796524-2.4982758-1.8488235-2.4982758-3.4575729c0-1.9986191,1.6187592-3.6176147,3.6173782-3.6176147
				c2.126709,0,3.9351654,1.8462067,3.5776062,4.2270584C100.9315414,91.421524,98.6662674,93.234642,96.5246735,92.5606308z"/>
		</g>
		<g>
			<path class="st1" d="M130.341156,118.9025345H90.2589798c-2.8781357,0-5.2064819,2.3382263-5.2064819,5.2063675v1.7687912
				c0,2.8778915,2.3283463,5.2063675,5.2064819,5.2063675h40.0821762c2.8781281,0,5.2064819-2.328476,5.2064819-5.2063675
				v-1.7687912C135.5476379,121.2407608,133.2192841,118.9025345,130.341156,118.9025345z M96.604454,126.5571594
				c-1.1691132,0-2.1184082-0.949295-2.1184082-2.1186523c0-1.1691132,0.949295-2.1184082,2.1184082-2.1184082
				c1.1693573,0,2.1186523,0.949295,2.1186523,2.1184082C98.7231064,125.6078644,97.7738113,126.5571594,96.604454,126.5571594z
				 M111.5143127,126.5571594c-1.1693573,0-2.1186523-0.949295-2.1186523-2.1186523
				c0-1.1691132,0.949295-2.1184082,2.1186523-2.1184082c1.1691208,0,2.1184158,0.949295,2.1184158,2.1184082
				C113.6327286,125.6078644,112.6834335,126.5571594,111.5143127,126.5571594z M126.4339371,126.5571594
				c-1.1692352,0-2.1185303-0.949295-2.1185303-2.1186523c0-1.1691132,0.949295-2.1184082,2.1185303-2.1184082
				c1.1691132,0,2.1085281,0.949295,2.1085281,2.1184082C128.5424652,125.6078644,127.6030502,126.5571594,126.4339371,126.5571594z
				"/>
		</g>
		<g>
			<path d="M94.2135468,32.0185966c-2.6318359-0.5107422-5.3271484-0.859375-8.0112305-1.0366211
				c-0.4130859-0.0273438-0.7260742-0.3842773-0.6987305-0.7973633c0.0273438-0.4140625,0.4013672-0.7207031,0.7973633-0.6987305
				c2.746582,0.1816406,5.5048828,0.5385742,8.1977539,1.0610352c0.4067383,0.0791016,0.671875,0.472168,0.5932617,0.878418
				C95.0128784,31.8341408,94.617218,32.096859,94.2135468,32.0185966z"/>
		</g>
		<g>
			<path d="M67.7926483,30.718792c2.4306641-0.5024414,4.9238281-0.8696289,7.409668-1.0917969
				c0.4135742-0.0400391,0.7768555,0.2670898,0.8134766,0.6796875s-0.2675781,0.7763672-0.6796875,0.8134766
				c-2.4296875,0.2172852-4.8652344,0.5761719-7.2397461,1.0664063
				C67.1145859,32.3922691,66.8309937,30.9169178,67.7926483,30.718792z"/>
		</g>
		<g>
			<path d="M80.7653046,38.1582451c-3.7340546,0-6.2456055-3.7938538-6.2456055-7.6645508v-0.1201172
				c0.0494843-3.8939762,2.6302948-7.534668,6.2456055-7.534668c3.7282028,0,6.2460938,3.7237186,6.2460938,7.6547852
				C87.0113983,34.7197685,84.2091522,38.1582451,80.7653046,38.1582451z M80.7653046,24.3379326
				c-2.7634964,0-4.7080383,2.9861946-4.746582,6.0449219v0.1108398c0,3.022747,1.8804169,6.1655273,4.746582,6.1655273
				c2.6176758,0,4.7470703-2.765625,4.7470703-6.1655273C85.5123749,27.4451828,83.6523132,24.3379326,80.7653046,24.3379326z"/>
		</g>
		<ellipse cx="80.7680206" cy="30.2641296" rx="2.8352225" ry="3.4546044"/>
		<g>
			<path d="M94.651535,104.0225067c-0.1855469-0.3701172-0.0361328-0.8203125,0.3339844-1.0058594
				c3.8857422-1.9472656,8.4980469-2.3393555,12.6557617-1.0732422c0.3959961,0.1201172,0.6191406,0.5390625,0.4985352,0.9350586
				c-0.1201172,0.3959961-0.5400391,0.6206055-0.9350586,0.4985352c-3.7924805-1.1533203-8.0014648-0.796875-11.5473633,0.9794922
				C95.2891159,104.5414581,94.8373871,104.3935242,94.651535,104.0225067z"/>
		</g>
		<g>
			<path d="M97.26091,112.9585419c-0.2358398-0.3398438-0.1518555-0.8071289,0.1879883-1.043457
				c3.8349609-2.6635742,9.1870117-2.9921875,13.3178711-0.8149414c0.3662109,0.1928711,0.5068359,0.6459961,0.3139648,1.012207
				c-0.1933594,0.3671875-0.6464844,0.5058594-1.0126953,0.3139648c-3.6484375-1.9223633-8.3764648-1.6328125-11.7636719,0.7202148
				C97.9652634,113.381485,97.4986572,113.2996597,97.26091,112.9585419z"/>
		</g>
		<g>
			<path d="M61.1490936,103.5552216c-2.6948242-1.605957-5.9042969-2.3779297-9.0341797-2.1674805
				c-0.4067383,0.0239258-0.7700195-0.2851563-0.7978516-0.6982422c-0.0273438-0.4130859,0.2851563-0.7700195,0.6982422-0.7978516
				c3.4267578-0.2270508,6.9472656,0.6152344,9.9013672,2.3754883c0.3554688,0.2119141,0.472168,0.6723633,0.2602539,1.027832
				C61.9671211,103.6460953,61.5105324,103.7688599,61.1490936,103.5552216z"/>
		</g>
		<g>
			<path d="M56.8776093,112.9341278c-2.5483398-1.6098633-5.7143555-2.2475586-8.6870117-1.7509766
				c-0.4072266,0.0668945-0.7944336-0.2070313-0.862793-0.6157227c-0.0683594-0.4082031,0.2075195-0.7944336,0.6157227-0.862793
				c3.3325195-0.5556641,6.8793945,0.1586914,9.7348633,1.9619141c0.3496094,0.2211914,0.4541016,0.684082,0.2333984,1.0341797
				C57.6917992,113.04879,57.2308197,113.1557465,56.8776093,112.9341278z"/>
		</g>
		<g>
			<path d="M41.5123749,65.1797333c0-3.827961,3.5631905-6.5628357,7.0522461-5.397953
				c4.3086548,1.4747314,5.0558662,7.4625282,1.3779297,10.0849648
				C46.3483734,72.4401779,41.5123749,69.6826477,41.5123749,65.1797333z M43.0113983,65.1797333
				c0,3.2936859,3.4668007,5.3254929,6.059082,3.4677734c2.7044182-1.9317322,2.1439209-6.3745461-0.9853516-7.4458046
				C45.5566139,60.3588638,43.0113983,62.3916359,43.0113983,65.1797333z"/>
		</g>
		<ellipse cx="46.9135628" cy="64.9362259" rx="2.3233531" ry="2.4581001"/>
		<g>
			<path d="M64.0724335,55.0351982c-1.4350586-2.0839844-2.3051758-4.519043-2.5161133-7.0410156
				c-0.0341797-0.4125977,0.2719727-0.7749023,0.6845703-0.8095703c0.4199219-0.0249023,0.7753906,0.2724609,0.8095703,0.6845703
				c0.1889648,2.2626953,0.9692383,4.4462891,2.2563477,6.315918c0.2348633,0.3408203,0.1489258,0.8071289-0.1918945,1.0419922
				C64.7724228,55.4627151,64.3057861,55.3746185,64.0724335,55.0351982z"/>
		</g>
		<g>
			<path d="M59.0870819,59.840374c-1.3813477-2.1245117-2.1464844-4.690918-2.1542969-7.2260742
				c-0.0025864-0.7309875,0.8495293-0.7969551,0.7495117-0.7519531c0.4130859,0,0.7480469,0.3339844,0.7495117,0.7470703
				c0.0068359,2.2504883,0.6860352,4.5283203,1.9121094,6.4135742c0.2255859,0.347168,0.1269531,0.8115234-0.2197266,1.0371094
				C59.7775116,60.2849731,59.3131981,60.1880112,59.0870819,59.840374z"/>
		</g>
		<g>
			<path d="M53.8444061,63.2627373c-0.7036133-1.9335938-1.1826172-3.9506836-1.4223633-5.9956055
				c-0.0483398-0.4111328,0.2456055-0.7836914,0.6567383-0.831543c0.409668-0.0541992,0.7832031,0.2456055,0.831543,0.6567383
				c0.2270508,1.9296875,0.6787109,3.8330078,1.3422852,5.6577148c0.1416016,0.3891602-0.0585938,0.8193359-0.4477539,0.9604492
				C54.4144211,63.8526726,53.9848557,63.6499023,53.8444061,63.2627373z"/>
		</g>
		<g>
			<path d="M37.2819061,65.6421356c-0.2838135-2.0273972,0.5351906-3.8912849,1.3574219-5.6796913
				c0.1728516-0.3769531,0.6201172-0.5439453,0.9956055-0.371582c0.3759766,0.1728516,0.5424805,0.6147461,0.3696289,0.9907227
				c-0.704155,1.52528-1.4695854,3.1945076-1.2382813,4.8535194c0.0571289,0.409668-0.2285156,0.7885742-0.6386719,0.8457031
				C37.7152367,66.3380814,37.3387871,66.0503998,37.2819061,65.6421356z"/>
		</g>
		<g>
			<path d="M30.9098358,60.8603935c-0.3730469-0.1787109-0.53125-0.6259766-0.3520508-0.9995117l1.6191406-3.3842773
				c0.1787109-0.3730469,0.625-0.5317383,0.9995117-0.3530273c0.3735352,0.1787109,0.53125,0.6259766,0.3530273,0.9995117
				l-1.6201172,3.3852539C31.7301254,60.8838234,31.2796803,61.0384026,30.9098358,60.8603935z"/>
		</g>
		<g>
			<path d="M97.2184296,53.2412529c-0.3891602-0.1416016-0.5898438-0.5712891-0.4487305-0.9604492
				c0.6948242-1.9121094,1.5942383-3.7548828,2.6743164-5.4765625c0.2202148-0.3500977,0.6831055-0.4555664,1.0332031-0.2363281
				c0.3505859,0.2197266,0.456543,0.6821289,0.2363281,1.0332031c-1.0234375,1.6318359-1.8764648,3.378418-2.534668,5.1914063
				C98.0358734,53.1856384,97.6021881,53.3810043,97.2184296,53.2412529z"/>
		</g>
		<g>
			<path d="M103.1178436,57.2231865c-0.3798828-0.1640625-0.5546875-0.6054688-0.390625-0.9853516
				c0.7734375-1.7905273,1.8613281-3.4013672,3.2329102-4.7875977c0.2910156-0.2944336,0.765625-0.2973633,1.0595703-0.0058594
				c0.2944336,0.2910156,0.296875,0.765625,0.0058594,1.0595703c-1.2397461,1.253418-2.2231445,2.7099609-2.9223633,4.3286133
				C103.9383621,57.2149658,103.4949188,57.3861427,103.1178436,57.2231865z"/>
		</g>
		<g>
			<path d="M125.6163788,61.1924248l-2.140625-3.6259766c-0.2104492-0.3564453-0.0917969-0.815918,0.2646484-1.0263672
				c0.3554688-0.2089844,0.8154297-0.0922852,1.0263672,0.2646484l2.140625,3.6259766
				c0.2104492,0.3564453,0.0917969,0.815918-0.2646484,1.0263672
				C126.2828369,61.6686134,125.8258057,61.5463409,125.6163788,61.1924248z"/>
		</g>
		<g>
			<path d="M16.8541718,65.1704559c-3.203125-1.5903358-4.5112305-5.4619179-2.9345703-8.6381874l8.7636719-17.7172852
				c0.6856155-1.4096031,2.4023666-2.0081139,3.8330078-1.2978516l6.6850586,3.3066406
				c1.4218559,0.7053947,2.0013504,2.4214249,1.2983398,3.8325195l-8.7539063,17.7167969
				c-0.7661133,1.5444336-2.0844727,2.6977577-3.7114258,3.2490273
				C19.2382908,66.5689392,17.0385227,65.2226105,16.8541718,65.1704559z M24.8043671,38.7905693
				c-0.3422852,0.1166992-0.6171875,0.3598633-0.7749023,0.6845703l-8.7666016,17.7226563
				c-1.2099609,2.4370117-0.2050781,5.4072266,2.2397461,6.6210938l0.2617188,0.1210938
				c2.4845543,1.233181,5.4278355,0.2063255,6.6381836-2.2314453c2.9805164-6.0325165,8.8184547-17.8466797,8.7548828-17.7197266
				c0.33778-0.67453,0.0490112-1.4894562-0.621582-1.8217773C25.7044277,38.8398666,25.5975685,38.518074,24.8043671,38.7905693z"/>
		</g>
		<path d="M34.5790787,45.576313c-3.7450943-2.8340111-8.0518761-4.9519348-12.9001713-6.3788414
			c-0.5847473-0.28899-0.8243198-0.9973526-0.5352154-1.5820198l1.342823-2.7156563
			c0.2891045-0.5846672,0.9973927-0.8241959,1.58214-0.5352058c4.7065563,1.5116234,9.0110836,3.6313057,12.9001713,6.3788414
			c0.5846214,0.2892418,0.8242607,0.9974594,0.5351563,1.5821266l-1.342823,2.7156563
			C35.8720551,45.6258812,35.1637001,45.865551,34.5790787,45.576313z"/>
		<g>
			<path d="M131.6696014,60.0229912L126.32341,44.1938896c-0.4536362-1.316555,0.2552414-2.7676849,1.5942383-3.2099609
				l5.9702148-2.0263672c1.3300781-0.4438477,2.7700195,0.2709961,3.2099609,1.5917969l5.3554688,15.8256836
				c0.4750977,1.4086914,0.3740234,2.9165039-0.2841797,4.246582
				C140.0608826,64.8787766,133.3432617,64.9870987,131.6696014,60.0229912z M134.3654022,40.3779716l-5.972168,2.0273438
				c-0.5570068,0.1846504-0.8328857,0.776989-0.6513672,1.3046875l5.3476563,15.8325195
				c0.6816101,2.0208244,2.8957977,3.3652534,5.3964844,2.4584961c2.1201172-0.7148438,3.2626953-3.0234375,2.5473633-5.1464844
				c-5.6134186-16.2586365-5.1558533-16.0650864-5.875-16.4204102
				C135.01091,40.3613701,134.6257782,40.2915764,134.3654022,40.3779716z"/>
		</g>
		<path d="M137.5845184,41.0908089c-3.9320831,0.5444412-7.7718964,1.852562-11.5223694,3.897316
			c-0.5222015,0.1767502-1.0887375-0.1034355-1.2653732-0.6256561l-0.8204422-2.4256096
			c-0.1766357-0.5222206,0.1035309-1.0886879,0.6257324-1.2654381c3.7164001-1.9094124,7.5559082-3.2151337,11.5223694-3.897316
			c0.5222778-0.1765251,1.0887756,0.1035347,1.2654114,0.6257553l0.8204346,2.4256096
			C138.3869171,40.3476906,138.1067963,40.9142838,137.5845184,41.0908089z"/>
		<path class="st23" d="M15.8860922,59.8865089c0.0533228,2.8004761,2.4424887,4.0231133,4.8425112,2.8099747
			c1.0845776-0.5482178,1.9376316-1.4548149,2.7668552-2.3432083c0.537775-0.576149,1.0835991-1.1638489,1.4276466-1.872921
			c0.3440495-0.7090683,0.4620438-1.5709152,0.1221409-2.2819786c-0.4327164-0.9052315-1.5443325-1.4900551-1.5984192-2.4919357
			c-0.0723248-1.3397217,1.079031-2.0250435-0.002676-3.2812996c-0.71105-0.8257904-1.7258129-1.3035164-2.7542515-0.7624245
			c-1.1340008,0.5966339-1.7664795,2.1457176-2.3376102,3.2184982
			C17.4366989,54.6010132,15.8490105,57.9389725,15.8860922,59.8865089z"/>
		<g>
			<path d="M126.4401093,37.1763115l-1.0068359-5.2446289c-3.3025436,0.5126686-6.2010803-2.8247871-4.4677734-6.1376953
				c0.5944748-1.1359711,1.5785446-1.3326626,2.0400391-1.8920898c0.0136719-0.0854492-0.1289063-0.3105469-0.2231445-0.4599609
				c-3.2072372-5.0521049,3.7762985-10.7162323,8.2441406-6.3388672c1.4418945-0.7236328,3.3681641-0.4370117,4.59375,0.7753906
				c1.7976532,1.7793808,1.971756,5.1672592-0.6181641,7.5551758c1.2631073,0.898304,1.2755585,2.6972942,0.3720703,3.9780273
				c-1.0214996,1.4475422-2.7887268,1.9628525-4.0014648,2.7050781l0.6367188,3.5048828
				c0.0742188,0.4077148-0.1958008,0.7978516-0.6030273,0.871582c-0.4082031,0.0751953-0.7973633-0.1958008-0.871582-0.6030273
				l-0.7246094-3.9887695c-0.0512695-0.2827148,0.0629883-0.5698242,0.2949219-0.7392578
				c1.3174896-0.9628735,3.2069092-1.4280128,4.0444336-2.6147461c0.5294495-0.7504005,0.5254211-1.850296-0.3598633-2.0449219
				c-0.0673828-0.0146484-0.1733398-0.027832-0.2802734-0.0073242c-0.0986328,0.0532227-0.1987305,0.1044922-0.300293,0.1533203
				c-0.8794098,0.4248848-1.7718964-0.9944267-0.2856445-1.5419922c2.8376465-1.617815,3.1626434-4.6580524,1.6420898-6.1625977
				c-0.8510742-0.8432617-2.3486328-0.9755859-3.203125-0.284668c-0.326889,0.2639446-0.808197,0.2076759-1.0649414-0.1254883
				c-0.8398438-1.0913086-2.315918-1.6601563-3.6694336-1.4160156c-2.5574417,0.4598789-3.9348907,3.3857765-2.5791016,5.5224609
				c1.5334167,2.4263191-1.2004929,2.7890396-1.7553711,3.8491211c-0.3666992,0.7001953-0.4472656,1.4819336-0.2216797,2.1445313
				c0.4764557,1.4006882,2.2915115,2.2292614,3.6630859,1.6713867c0.434021-0.1787148,0.9298325,0.086441,1.0185547,0.5527344
				l1.1582031,6.0361328c0.078125,0.40625-0.1879883,0.7993164-0.5947266,0.8769531
				C126.9172745,37.8493462,126.5190125,37.587635,126.4401093,37.1763115z"/>
		</g>
		<path class="st1" d="M132.1141968,51.0752792c-0.2185822,2.4015923,0.3836212,4.8703842,1.6834717,6.9015923
			c0.4999695,0.7812729,1.1231232,1.5178528,1.9496307,1.9388504c0.8265076,0.4210014,1.8882446,0.470665,2.6472626-0.0624924
			c1.0114899-0.7105103,1.1704102-2.1351204,1.1054535-3.3695221c-0.0605774-1.1508827-0.4452209-4.035347-1.0638428-4.8576088
			c-0.2123108-0.2822037-0.5471649-0.4952774-0.8996429-0.4736137c-0.4197693,0.0257988-0.7642059,0.3655891-1.1811523,0.4206276
			c-0.8982391,0.1185646-1.3922272-0.9195557-2.1968994-1.1821136c-0.4049835-0.1321449-0.9416046,0.0075302-1.0720673,0.4130592
			C132.6901093,51.1583023,132.5105133,50.721035,132.1141968,51.0752792z"/>
		<g>
			<path d="M20.5367889,32.8003349l-2.2719727-2.6455078c-0.2700195-0.3139648-0.2338867-0.7871094,0.0800781-1.0566406
				c0.3144531-0.2695313,0.7875977-0.234375,1.0566406,0.0800781l2.2719727,2.6455078
				c0.2700195,0.3139648,0.2338867,0.7871094-0.0800781,1.0566406
				C21.2776337,33.1515617,20.8044262,33.1130219,20.5367889,32.8003349z"/>
		</g>
		<g>
			<path d="M25.1974335,32.2930107c-0.4077148-0.0712891-0.6806641-0.4594727-0.609375-0.8671875l1.4858398-8.5058594
				c0.0712891-0.4077148,0.4648438-0.6811523,0.8671875-0.609375c0.4077148,0.0712891,0.6806641,0.4594727,0.609375,0.8671875
				l-1.4858398,8.5058594C25.992136,32.0995903,25.5943489,32.3643684,25.1974335,32.2930107z"/>
		</g>
		<g>
			<path d="M29.4835663,33.1826591c-0.3125-0.2714844-0.3461914-0.7446289-0.074707-1.0571289l4.8139648-5.5439453
				c0.2709961-0.3125,0.7446289-0.3466797,1.0571289-0.074707c0.3125,0.2714844,0.3461914,0.7446289,0.074707,1.0571289
				l-4.8139648,5.5439453C30.2695217,33.4211884,29.7954197,33.4536514,29.4835663,33.1826591z"/>
		</g>
	</g>
</g>
</svg>
