<?xml version="1.0" encoding="utf-8"?>
<!-- Generator: Adobe Illustrator 22.0.1, SVG Export Plug-In . SVG Version: 6.00 Build 0)  -->
<svg version="1.1" id="Layer_1" xmlns="http://www.w3.org/2000/svg" xmlns:xlink="http://www.w3.org/1999/xlink" x="0px" y="0px"
	 viewBox="0 0 156 156" style="enable-background:new 0 0 156 156;" xml:space="preserve">
<style type="text/css">
	.st0{fill:#FBAC02;}
	.st1{fill:#5D5D5C;}
	.st2{fill:#3A3935;}
	.st3{fill:#0A0B0D;}
	.st4{fill:#FCCD0C;}
	.st5{fill:#3B3B39;}
	.st6{fill:#404040;}
	.st7{fill:#21201C;}
	.st8{fill:#FCCD0A;}
	.st9{fill:#C6C6C4;}
	.st10{fill:#FBC606;}
	.st11{fill:#2C2C2C;}
	.st12{fill:#2D2D2D;}
	.st13{fill:#FFFFFF;}
	.st14{fill:#454545;}
	.st15{fill:#FFCE05;}
	.st16{fill:#585A59;}
	.st17{fill:#4E4F4A;}
	.st18{fill:#616362;}
	.st19{fill:#393937;}
	.st20{fill:#595758;}
	.st21{fill:#4E4E4E;}
	.st22{fill:#7E7E7E;}
	.st23{fill:#FDCE0D;}
	.st24{fill:#7D827C;}
	.st25{fill:#7F8180;}
	.st26{fill:#7C7B77;}
	.st27{fill:#81807D;}
	.st28{fill:#7E7D79;}
	.st29{fill:#FFD101;}
	.st30{fill:#686A69;}
	.st31{fill:#797977;}
	.st32{fill:#444444;}
	.st33{fill:#9D9D9D;}
	.st34{fill:#A6A5A3;}
	.st35{fill:#898989;}
	.st36{fill:#686868;}
	.st37{fill:#969694;}
	.st38{fill:#2F2E2C;}
	.st39{fill:#5D5D5D;}
	.st40{fill:#0D0D0D;}
	.st41{opacity:0.71;}
	.st42{fill:#888886;}
	.st43{fill:#888984;}
	.st44{fill:#6F6F6D;}
	.st45{fill:#616161;}
	.st46{fill:#555555;}
	.st47{fill:#FDFCF9;}
	.st48{opacity:0.37;}
	.st49{fill:#FFCB05;}
	.st50{fill:#7B7A76;}
	.st51{fill:#747570;}
	.st52{fill:#747474;}
	.st53{fill:#797C7B;}
	.st54{fill:#383838;}
	.st55{fill:#999998;}
	.st56{fill:#4D4B4C;}
	.st57{fill:#52524A;}
	.st58{fill:#AAAAA0;}
	.st59{fill:#030303;}
	.st60{fill:#545452;}
	.st61{fill:#FDCE04;}
	.st62{fill:#767674;}
	.st63{fill:#333333;}
	.st64{fill:#ABA9AA;}
	.st65{fill:#585954;}
	.st66{fill:#5E5D5B;}
	.st67{fill:#1A1615;}
	.st68{fill:#A0A19C;}
	.st69{fill:#8E9494;}
	.st70{fill:#464646;}
</style>
<g id="Robot_Hologram">
	<g>
		<g>
			<path d="M86.9609375,28.5253696c-0.4140625,0-0.75-0.3359375-0.75-0.75s0.3359375-0.75,0.75-0.75H113.3125l3.730957-4.6708984
				c0.2578125-0.3227539,0.7304688-0.3764648,1.0541992-0.1176758c0.3232422,0.2583008,0.3764648,0.7304688,0.1176758,1.0541992
				l-3.9560547,4.9526367C113.8299866,28.780611,114.9678802,28.418108,86.9609375,28.5253696z"/>
		</g>
		<g>
			<path d="M140.2124023,22.0991001h-16.9399414c-0.4140625,0-0.75-0.3359375-0.75-0.75s0.3359375-0.75,0.75-0.75h16.9399414
				c0.4140625,0,0.75,0.3359375,0.75,0.75S140.6264648,22.0991001,140.2124023,22.0991001z"/>
		</g>
		<g>
			<path d="M129.9135742,26.0243931h-6.4008789c-0.4140625,0-0.75-0.3359375-0.75-0.75s0.3359375-0.75,0.75-0.75h6.4008789
				c0.4140625,0,0.75,0.3359375,0.75,0.75S130.3276367,26.0243931,129.9135742,26.0243931z"/>
		</g>
		<g>
			<path d="M51.0097656,54.3627701c-18.3257828-0.1030159-17.8698158,0.2492828-18.2958984-0.277832l-2.9892578-3.6884766
				c-0.2607422-0.3217773-0.2114258-0.7939453,0.1103516-1.0546875c0.3208008-0.2612305,0.7939453-0.2119141,1.0546875,0.1103516
				l2.7641602,3.4106445h17.355957c0.4140625,0,0.75,0.3359375,0.75,0.75S51.4238281,54.3627701,51.0097656,54.3627701z"/>
		</g>
		<g>
			<path d="M30.5371094,46.5190201H15.7875977c-0.4140625,0-0.75-0.3359375-0.75-0.75s0.3359375-0.75,0.75-0.75h14.7495117
				c0.4140625,0,0.75,0.3359375,0.75,0.75S30.9511719,46.5190201,30.5371094,46.5190201z"/>
		</g>
		<g>
			<path d="M27.4960938,50.1708755h-4.6914063c-0.4140625,0-0.75-0.3359375-0.75-0.75s0.3359375-0.75,0.75-0.75h4.6914063
				c0.4140625,0,0.75,0.3359375,0.75,0.75S27.9101563,50.1708755,27.4960938,50.1708755z"/>
		</g>
		<path class="st59" d="M67.0482101,23.9750042c-0.502388-0.0793171-1.0134811-0.1587811-1.5173874-0.0897141
			c-0.5038986,0.0690689-1.0087585,0.3095417-1.2772827,0.7414951c-0.5769768,0.9281559-0.234787,4.6598759-0.0574341,5.8275795
			c0.3858948,2.5408325,1.4652405,2.999649,3.7977448,2.621048"/>
		<path class="st59" d="M84.0881424,23.9750042c0.502388-0.0793171,1.0134811-0.1587811,1.5173874-0.0897141
			c0.5038986,0.0690689,1.0087662,0.3095417,1.2772827,0.7414951c0.5769806,0.9281559,0.234787,4.6598759,0.0574341,5.8275795
			c-0.3858948,2.5408325-1.4652405,2.999649-3.7977448,2.621048"/>
		<path d="M123.4144974,135.723053c-22.435524,10.8011017-93.8406143,7.4108887-96.8809433-4.1661835
			c-0.3232117-1.2307281-0.2587223-5.5086365-0.2071152-6.8597565c0.0672703-1.7612305,1.6987782,0.1013489,2.2234707,0.4908447
			c1.2814159,0.9512329,2.8862591,1.6488724,4.3172684,2.34375c21.0769844,10.2346802,55.2304115,9.1814728,78.5401917,3.9805145
			c5.0747833-1.132309,8.2017517-2.1151581,11.9174347-4.8364182c1.0229645-0.7491837,2.1905594-0.9206696,3.2377853-1.6521454
			c0.2073441-0.1448288,1.5410461-1.0863113,1.4632568-1.3543549c0.6534424,2.2515793,0.7633209,4.6575546,0.3267975,6.9605789
			C127.8663864,133.195282,125.7627869,134.5925293,123.4144974,135.723053z"/>
		<g>
			<path class="st23" d="M90.1737518,113.2375946c-0.0226746,0.4756241-0.1937943,2.1047745-0.2399826,2.5199585
				c-0.0500488,0.530014-0.3200607,1.1899109,0.2900314,1.4599228c0.3300705,0.1401367,0.6799164,0.2499924,1.0199966,0.3901291
				c2.7659912,1.1567383,5.5619965,3.0690308,7.3897018,5.4598236c0.2900314,0.359848,0.9101334,0.9899597,0.8200531,1.5099716
				c-0.119873,0.6100922-1.7699814,0.530014-2.2399368,0.5900726l-0.3300705,0.0297852
				c-5.8567886-6.6592407-9.6930847-5.8284302-9.4096756-7.7698288c0.1388474-0.8062363,0.3828964-3.4936905,0.4499435-4.3097
				c-7.2608337-0.3619003-15.7992783-0.3565445-24.4893723,0.179924c0.2046585,4.6338501,1.1298141,5.0357132-1.8097649,6.3997421
				c-3.9399567,1.8721924-5.3227577,3.9545898-6.9300003,5.2899017c-0.4491768-0.0473404-1.3047523-0.2094955-1.7399483-0.310051
				c-0.3498459-0.0798264-0.6198578-0.4199066-0.6899223-0.7499771c-0.1398888-0.6699066,0.4599495-1.3298035,0.8298111-1.8097687
				c4.1754608-5.2948608,8.504818-5.0730209,8.6899643-5.3399506c0.0998535-0.1298828,0.0300293-0.3300705,0.0100098-0.4699631
				c-0.1298218-1.4589157-0.214817-2.3007126-0.2600021-2.8800507c-20.3696022,1.4999619-35.0891953,5.809906-35.0891953,10.8998642
				c0,6.3296738,22.7794514,11.4696884,50.8688278,11.4696884c28.099144,0,50.8785934-5.1400146,50.8785934-11.4696884
				C128.1928101,118.9974594,112.0433197,114.5175934,90.1737518,113.2375946z M32.3951912,123.847435
				c-3.0672874-1.2553406-0.8249493-3.4200821,3.6500549-3.4200821c2.4899254,0,4.5599403,0.7201996,4.969841,1.6701279
				C41.8967094,124.0327454,35.8207588,125.2989197,32.3951912,123.847435z M53.0648308,130.5071716
				c-2.5958252,1.7127075-9.908062,1.2952881-10.7199402-0.6799011v-0.0100098
				c-0.0498047-0.1000977-0.0698242-0.2099609-0.0698242-0.3100586c0-2.0191422,7.0512428-2.7625198,10.2497406-1.269989
				c0.0100098,0,0.0100098,0,0.0100098,0C53.8218956,128.8131561,54.2569695,129.6856842,53.0648308,130.5071716z
				 M69.0844421,132.6873016c-0.2402267-0.2402344-0.3801117-0.4999847-0.3801117-0.7802582
				c0-1.2499695,2.7499313-2.2597046,6.1299667-2.2597046c0.8111343,0,1.7893753,0.0585632,2.679863,0.2299652
				c2.0399933,0.3598633,3.4498672,1.1298676,3.4498672,2.0297394
				C80.9640274,134.4010315,71.4603882,135.0908966,69.0844421,132.6873016z M107.033432,129.2872314
				c-0.0100098,0.0600586-0.0200195,0.119873-0.0500412,0.1699219c-0.535614,1.4512024-6.5395279,2.2197418-9.7297363,0.8801117
				c-1.6818924-0.69133-1.7211151-1.8522034,1.0099869-2.5299683c1.7078247-0.4269562,4.0100937-0.4584961,5.6797867-0.1799316
				c1.8200226,0.2797852,3.090004,0.8998871,3.090004,1.6098328V129.2872314z M111.7132492,122.7073288
				c0-1.039772,2.3700562-1.8898468,5.2698822-1.8898468c2.9198532,0,5.2798996,0.8500748,5.2798996,1.8898468
				C122.263031,125.2366409,111.7132492,125.1610565,111.7132492,122.7073288z"/>
		</g>
		<path d="M32.3905144,123.8509903c-0.9731884-1.942421,5.209034-3.231926,8.6266136-1.7516251
			C41.8963814,124.0337219,35.8561745,125.2988129,32.3905144,123.8509903z"/>
		<path d="M53.0661583,130.5032654c-2.5365639,1.6903992-9.8909836,1.3164368-10.72258-0.6783142v-0.010376
			c1.9768753-1.2971344,7.0213928-1.4492798,9.5479088-0.2832794c0.0101357,0,0.0101357,0,0.0101357,0
			C52.4990959,129.8046875,52.914135,130.1386414,53.0661583,130.5032654z"/>
		<path d="M80.7075195,132.5586853c-1.6377258,2.0534973-9.5594101,2.2200165-11.6236115,0.1315155
			C70.7716599,130.5692291,78.7712097,130.5492401,80.7075195,132.5586853z"/>
		<path d="M107.0328064,129.2880554c-0.0101318,0.0608063-0.0202713,0.1216125-0.0504227,0.172287
			c-0.5352325,1.4324646-6.4877243,2.2241821-9.7303467,0.8807526
			C97.3707047,128.6819,103.8249588,127.9674377,107.0328064,129.2880554z"/>
		<path d="M122.0686951,123.2233658c-1.3411942,1.7081757-7.981102,1.8671036-9.9327927,0.2328568
			C113.440834,121.7382584,120.122345,121.5723343,122.0686951,123.2233658z"/>
		<path class="st13" d="M71.9642563,37.4494781c-0.2148666,0.2417221-0.6517029,0.3673401-0.959938,0.4702034
			c-0.0400391-0.530014-0.0400391-1.190155,0.1398926-1.630085c0.2199631-0.0200195,0.4401703-0.0500488,0.6501236-0.0700684
			C71.9942856,36.4995537,72.2342682,37.1396713,71.9642563,37.4494781z"/>
		<g>
			<path d="M58.3095703,49.6801529c-0.9995117-1.3847656-2.1606445-2.6450195-3.4516602-3.746582
				c-0.3149414-0.2685547-0.3525391-0.7421875-0.0834961-1.0571289c0.2685547-0.3144531,0.7421875-0.3525391,1.0571289-0.0834961
				c1.3818359,1.1787109,2.6245117,2.527832,3.6938477,4.0092773c0.2426758,0.3359375,0.1669922,0.8046875-0.1689453,1.046875
				C59.021904,50.0913963,58.5521698,50.0165596,58.3095703,49.6801529z"/>
		</g>
		<g>
			<path d="M54.4155273,65.3368912c-0.4337425,0-0.5073242-0.0499878-5.1206055-1.0380859
				c-0.4052734-0.0869141-0.6630859-0.4853516-0.5766602-0.8901367c0.0869141-0.4057617,0.4887695-0.6611328,0.8901367-0.5766602
				c4.3917389,0.927803,4.7559128,1.0523071,4.8833008,0.9980469c0.0209961-0.0219727,0.0742188-0.1254883,0.1503906-0.4521484
				c0.2094727-0.8999023,0.3935547-1.9086914-0.0751953-2.4960938c-0.1875-0.2353516-0.4980469-0.4165039-0.8056641-0.5771484
				c-1.0908203-0.5712891-2.2607422-0.9658203-3.4765625-1.1733398c-0.4086914-0.0698242-0.6831055-0.4570313-0.6132813-0.8652344
				c0.0698242-0.4086914,0.4604492-0.6801758,0.8652344-0.6132813c1.4834213,0.2530479,4.2738533,1.1283913,5.2026367,2.293457
				c0.9609375,1.2045898,0.5722656,2.8745117,0.3637695,3.7714844
				C55.8813782,64.6722488,55.4132004,65.3368912,54.4155273,65.3368912z"/>
		</g>
		<path class="st70" d="M58.4545898,83.1284943c-0.2299767,1.5797958-0.5400276,3.2198944-1.5199814,4.4898758
			c-0.1999474,0.2600098-0.4499397,0.5100021-0.7800102,0.5598068c-0.43993,0.0700607-0.8498306-0.2700195-1.0199928-0.6799164
			c-0.1699181-0.4099045-0.1599083-0.8698502-0.1398888-1.3097839c-0.2499962,0.6899261-0.6000824,1.349823-1.1100807,1.8698273
			c-1.3517761,1.4055099-3.5825119,1.4280624-3.6598206-0.5800629c-0.0100098-0.5200043,0.0600586-1.1799011,0.2099571-1.6698837
			c-0.4591255,0.5736084-0.981678,1.1908035-1.6798897,1.3898621c0.3701096-0.4199142,0.609848-0.9299088,0.8500748-1.4298935
			c1.3097458-2.7211914,2.8794975-6.076828,3.6598206-8.989769c0.668148-0.0983276,1.8380852,0.0419083,2.1298294,0.4799728
			c0.381218,0.4997635,0.0373535,0.7309113,1.4201279,1.939888C58.3891106,80.5446091,58.7837563,81.0352478,58.4545898,83.1284943z
			"/>
		<g>
			<path d="M50.3374023,86.8002701c-0.5127678,0-0.8714142-0.5017166-0.7124023-0.9853516l1.0136719-3.0708008
				c0.1298828-0.3925781,0.5512695-0.6054688,0.9477539-0.4770508c0.3930664,0.1298828,0.6064453,0.5541992,0.4770508,0.9477539
				l-1.0136719,3.0708008C50.9453125,86.600563,50.6523438,86.8002701,50.3374023,86.8002701z"/>
		</g>
		<g>
			<path d="M54.6816406,87.3412857c-0.40625-0.0800781-0.6708984-0.4746094-0.5908203-0.8808594l0.6542969-3.3227539
				c0.0795898-0.4072266,0.4770508-0.671875,0.8803711-0.5913086c0.4067383,0.0795898,0.6713867,0.4741211,0.5913086,0.8803711
				L55.5625,86.7504654C55.4818993,87.1601791,55.0831947,87.4216003,54.6816406,87.3412857z"/>
		</g>
		<path class="st70" d="M98.5536728,76.2185135c-0.25,0.8300629-0.5200119,1.7799835-0.3200607,2.5800171
			c-0.6799164-0.0900879-1.3400574-0.1799316-2.009964-0.1999512c-1.0029602,0-1.4989319-0.269516-1.5998077-1.7399445
			c-0.6821747-8.4429474,0.0105667-19.9352798-7.0899124-27.0593719
			c-1.6363144,4.7087402-2.9915848,10.1949081-3.7599106,15.6895447c-0.0900879,0.6501312-0.3300705,1.5400009-0.25,2.3099976
			c-0.2860184,0.019104-0.854866,0.0595627-1.1899109,0.2199707c-0.6486969,0.2541046-0.7937088,0.9836197-0.10009,1.6100616
			c0.3200607,0.2900314,0.709938,0.4699631,1.0898132,0.6699066c1.9401398,1.0400162,1.9501495,3.8597641,2.3600464,5.8199234
			c1.4300156,6.892395,2.3654099,14.4149246,2.6100464,21.8993454c0.2891083,8.4433823-0.4472961,17.2448959-0.8200531,19.4094162
			c-0.2823944,1.9344559,3.5425034,1.0987778,9.4096756,7.7698288c-4.1809845,0.3804626-10.1070633,0.5079422-14.0994949-0.8498383
			c-0.4001389-0.1401291-0.9201431-0.2600021-1.1701355-0.6201019c-0.2873154-0.4311447-0.1355667-0.544136-0.9699478-9.2597733
			c-0.0222244-0.290451-2.8602448-31.9669266-2.8397751-31.7692108c-0.0300217-0.2900314-0.0300217-0.5200119-0.3600922-0.569809
			c-0.2199707-0.0300293-0.429924,0.0200195-0.6498871,0.0200195c-3.8174362,0.1352844-3.5494003,0.06147-3.6898499,0.2199631
			c-0.0102539,0-0.0200195,0.0100098-0.0200195,0.0200195c-0.216423,0.246582-3.4272003,40.4125595-3.519928,40.9689331
			c-0.0700684,0.5497894-0.7299652,0.609848-1.150116,0.709938c-4.1598816,0.9337463-9.488678,1.5446396-13.7196236,0.919899
			c1.5088158-1.25354,3.0698929-3.4556503,6.9300003-5.2899017c0.5597992-0.259758,1.1498718-0.5097504,1.5898018-0.959938
			c0.8700943-0.8598404,0.4299202-2.3300171,0.35009-3.419838c-0.5245781-7.0216446-0.5499153-14.0575943-0.1401329-20.8993683
			c0.4459076-7.169426-0.3297539-2.3962784,2.8900642-20.5995789c0.1999435-1.1401062,0.0698166-2.2299194,1.1498718-2.8900604
			c0.4999847-0.2997971,1.1000671-0.4599533,1.5500107-0.8398209c1.3089142-1.0737228,0.6978455-3.2112579-1.0500259-3.4498672
			c-0.0800781-0.5500336-0.310051-1.1300964-0.3798752-1.6200714c-0.7877808-5.1590118-1.8551941-10.130188-3.6500511-15.6495094
			c-7.2774925,7.0454903-6.5920944,18.6234856-7.2898521,27.2593193c-0.1053238,1.5346069-0.6358719,1.7107162-1.5998154,1.7399445
			c-0.6601372,0.0200195-1.3300438,0.1098633-2.0099564,0.1999435c0.1999435-0.8000259-0.0700684-1.7499542-0.3200607-2.5800095
			c-3.3814659-11.2011948-0.8077354-23.5985336,7.9297295-32.7989731c0.2199669-0.230217,0.4999886-0.4501839,0.8000298-0.660141
			c0.0300293,0.0800781,0.0600548,0.1498985,0.0900841,0.2299767c2.7726936-2.4183655,5.9281044-3.9615135,9.4697304-4.8397217
			c0.2863083,4.8602028,5.4913254,6.5310173,8.2998428,3.0397186c1.1271667-1.4008064,1.6954956-3.4740181,1.589798-4.5299149
			c4.9639969,0.7914085,6.6253815,1.9483376,7.9099579,2.590023c-0.7241287,0.6336136-0.839447,1.5787888-0.5099945,2.2799721
			c0.3998871,0.8500748,1.6598663,1.4198837,2.3300171,2.1200638
			C99.3552246,52.6132088,101.9433365,65.0525894,98.5536728,76.2185135z"/>
		<g>
			<path d="M90.0214844,53.5253677c-0.3735352-0.1787109-0.5317383-0.6264648-0.3525391-1
				c1.3666992-2.8549805,3.3618164-5.4487305,5.769043-7.5019531c0.3168945-0.2680664,0.7890625-0.2304688,1.0576172,0.0839844
				c0.2685547,0.3154297,0.230957,0.7885742-0.0839844,1.0576172c-2.2490234,1.9179688-4.112793,4.3413086-5.3901367,7.0078125
				C90.8410568,53.5494003,90.3909225,53.7031822,90.0214844,53.5253677z"/>
		</g>
		<g>
			<path d="M95.1665039,63.9487076c-0.6596603-2.8313065,0.0444641-3.9031181,1.6459961-4.7426758
				c1.2329102-0.6445313,2.5517578-1.0893555,3.9204102-1.3222656c0.4091797-0.0688477,0.7958984,0.2050781,0.8652344,0.6132813
				c0.0698242,0.4086914-0.2050781,0.7958984-0.6132813,0.8652344c-1.2138672,0.206543-2.3837891,0.6010742-3.4765625,1.1728516
				c-0.3081055,0.1616211-0.6191406,0.3432617-0.8066406,0.5776367c-0.4682617,0.5874023-0.2841797,1.5961914-0.0742188,2.4956055
				c0.0756836,0.3266602,0.1293945,0.4296875,0.1606445,0.4589844c0.1376419,0.0422287,0.8872452-0.1643715,4.2685547-0.8754883
				c0.4038086-0.0859375,0.8032227,0.1708984,0.890625,0.5761719c0.0869141,0.4052734-0.1713867,0.8037109-0.5761719,0.890625
				l-3.8256836,0.8198242C96.2004776,65.7650528,95.4807892,65.3021469,95.1665039,63.9487076z"/>
		</g>
		<path class="st70" d="M102.5135269,87.4281921c-0.7071304-0.2090683-1.2201843-0.8146286-1.6798859-1.3898544
			c0.1498947,0.489975,0.2199631,1.150116,0.2099533,1.6698761c-0.0457687,2.3776627-3.5056458,2.1992722-4.7698975-1.2897644
			c0.0200195,0.4399338,0.0300293,0.8998795-0.1401291,1.3097839c-0.1699219,0.4101486-0.5798187,0.7499847-1.0199966,0.6799164
			c-0.3298264-0.0498047-0.5798187-0.2997971-0.7797623-0.5597992c-0.9799576-1.2599792-1.2799988-2.9098434-1.5199814-4.4898758
			c-0.1000977-0.6699066-0.2402344-1.5199814,0.0097656-2.1801224c0.2900314-0.7897797,0.9999695-1.5797958,1.4501572-2.2997513
			c0.3598557-0.5500336,0.7299576-1.1200867,1.2799988-1.4701767c0.8000259-0.4999847,1.6598663-0.5998383,2.4498825-0.3798676
			c0.7841492,2.8896484,2.3557129,6.2610779,3.6598206,8.9697418
			C101.9034348,86.4982834,102.143425,87.0082779,102.5135269,87.4281921z"/>
		<g>
			<path d="M100.2192383,86.5160904l-1.0131836-3.0708008c-0.1293945-0.3935547,0.0839844-0.8173828,0.4775391-0.9472656
				c0.3959961-0.128418,0.8178711,0.0844727,0.9472656,0.4775391l1.0131836,3.0698242
				c0.1293945,0.3935547-0.0839844,0.8178711-0.4770508,0.9477539
				C100.7686081,87.1226196,100.3486023,86.9059982,100.2192383,86.5160904z"/>
		</g>
		<g>
			<path d="M95.706543,86.9809341l-0.6538086-3.3232422c-0.0800781-0.40625,0.1845703-0.800293,0.5913086-0.8803711
				c0.402832-0.0820313,0.800293,0.184082,0.8803711,0.5913086l0.6538086,3.3232422
				c0.0800781,0.40625-0.1845703,0.8007813-0.5913086,0.8803711C96.1886597,87.6518936,95.7876511,87.3938065,95.706543,86.9809341z
				"/>
		</g>
		<g>
			<path class="st23" d="M60.8305664,99.4462662c-0.3984375-0.112793-0.6298828-0.5273438-0.5170898-0.9262695
				c0.1132813-0.3984375,0.527832-0.6279297,0.9262695-0.5170898c3.2285156,0.9155273,6.5737305,1.359375,9.925293,1.2998047
				c1.0422363,0.0422668,0.9722061,1.4854584,0.0234375,1.5C71.0014648,100.8056412,64.2029419,100.4012527,60.8305664,99.4462662z"
				/>
		</g>
		<g>
			<path class="st23" d="M71.1772461,105.5903091c-0.9014282-0.1086578-4.8901672-0.0342941-10.1040039-2.1157227
				c-0.3842773-0.1533203-0.5717773-0.5898438-0.4179688-0.9746094c0.1533203-0.3847656,0.5913086-0.5712891,0.9746094-0.4179688
				c3.0595703,1.2211914,6.2802734,1.8974609,9.5722656,2.0087891c0.4140625,0.0141602,0.7382813,0.3608398,0.7241211,0.7749023
				C71.9125977,105.2709732,71.5795898,105.5903091,71.1772461,105.5903091z"/>
		</g>
		<g>
			<path class="st23" d="M80.0913086,100.9296646c-0.4135742,0-0.7495117-0.3349609-0.75-0.7490234
				s0.3344727-0.7504883,0.7490234-0.7509766c3.3081055-0.0048828,6.6181641-0.3852539,9.8383789-1.1303711
				c0.4038086-0.0942383,0.8066406,0.1582031,0.8994141,0.5615234c0.09375,0.4033203-0.1577148,0.8061523-0.5615234,0.8994141
				C85.1446381,100.9460983,81.7227478,100.8347015,80.0913086,100.9296646z"/>
		</g>
		<g>
			<path class="st23" d="M80.3134766,105.5331802c-0.9841843-0.0651474-0.9034424-1.5597687,0.0986328-1.4970703
				c3.1464844,0.2070313,6.4072266-0.1928711,9.4160156-1.1552734c0.3930664-0.1264648,0.8164063,0.0917969,0.9428711,0.4858398
				c0.1259766,0.3945313-0.0913086,0.8164063-0.4858398,0.9428711
				C87.0431137,105.3468323,83.5905151,105.7482986,80.3134766,105.5331802z"/>
		</g>
		<g>
			<path d="M77.8110352,82.428688c-0.4121094-0.0410156-0.7133789-0.4082031-0.6728516-0.8203125
				c0.421875-4.2680664,2.5820313-8.2553711,5.9277344-10.9389648c0.3232422-0.2597656,0.7958984-0.2070313,1.0541992,0.1157227
				c0.2592773,0.3232422,0.2075195,0.7949219-0.1157227,1.0541992c-2.9882813,2.3969727-4.9970703,6.1040039-5.3730469,9.9165039
				C78.5899429,82.171463,78.219696,82.46875,77.8110352,82.428688z"/>
		</g>
		<g>
			<path d="M72.7617188,82.4174576c-0.3427734-4.074707-2.5302734-7.9316406-5.8510742-10.3178711
				c-0.3364258-0.2416992-0.4130859-0.7099609-0.1713867-1.0463867c0.2421875-0.3369141,0.7119141-0.4121094,1.0463867-0.1713867
				c3.6728516,2.6386719,6.0917969,6.9038086,6.4711914,11.409668c0.034668,0.4125977-0.2719727,0.7753906-0.6845703,0.8105469
				C73.132988,83.1319809,72.7951355,82.8111115,72.7617188,82.4174576z"/>
		</g>
		<g>
			<path d="M77.9682617,64.513649h-6.6259766c-0.4140625,0-0.75-0.3359375-0.75-0.75s0.3359375-0.75,0.75-0.75h6.6259766
				c0.4140625,0,0.75,0.3359375,0.75,0.75S78.3823242,64.513649,77.9682617,64.513649z"/>
		</g>
		<g>
			<path class="st23" d="M85.8564453,56.0390396h-6.5683594c-0.5761719,0-1.0854492-0.3886719-1.2373047-0.9453125
				l-0.6557617-2.4072266h-3.1313477l-0.9648438,2.5219727c-0.1928711,0.5019531-0.6743164,0.8359375-1.2207031,0.8237305
				l-6.4824219-0.1123047c-0.4140625-0.0073242-0.7436523-0.3486328-0.7368164-0.7631836
				c0.0073242-0.409668,0.3417969-0.7368164,0.7495117-0.7368164c2.4771194,0.0429001,6.6035614,0.1143646,6.34375,0.1098633
				l0.9638672-2.519043c0.1894531-0.4931641,0.6708984-0.8242188,1.1982422-0.8242188h3.4467773
				c0.5776367,0,1.0864258,0.3891602,1.237793,0.9462891l0.6552734,2.40625h6.4023438c0.4140625,0,0.75,0.3359375,0.75,0.75
				S86.2705078,56.0390396,85.8564453,56.0390396z"/>
		</g>
		<g>
			<path d="M93.9960938,125.3979263c-0.0244141-0.4135742,0.2915039-0.7680664,0.7050781-0.7919922
				c1.3175888-0.0766449,2.3335724-0.1806641,2.4360352-0.1894531c0.2927246-0.0313034,1.0490799-0.0254669,1.5029297-0.1279297
				c-0.1529617-0.2429428-0.4373322-0.556282-0.5947266-0.7592773c-1.9177933-2.4562149-4.8858795-4.4352493-7.5571289-5.409668
				c-1.8708267-0.679863-1.3956528-1.1399841-1.112793-4.3110352c0.9365768-10.4291229,0.7246475-20.8585587-0.7060547-31.4086914
				c-0.8718872-6.3748016-1.7273483-8.3378448-3.0551758-11.2651367c-0.15625-0.3242188-0.3325195-0.6914063-0.5253906-0.8491211
				c-0.2099915-0.1702576-0.996254-0.3619156-1.4677734-0.7431641c-1.3302536-1.0534515-0.7537079-2.9667511-0.5869141-4.159668
				c0.0437927-0.3123779,4.2535629-19.4105644,4.3466797-19.9155273c0.0742188-0.4023438,0.4536133-0.6757813,0.862793-0.6079102
				c0.4038086,0.0678711,0.6791992,0.4423828,0.6181641,0.847168c-0.0219727,0.1445313-0.503418,2.3442383-2.0375977,9.3354492
				c-2.9084091,13.2566071-3.1152649,13.0557251-1.7099609,13.5996094c0.9043503,0.3479462,1.2525558,0.5961685,1.8515625,1.84375
				c0.1556625,0.343338,0.8462143,1.521965,1.6010742,3.9487305c1.7431183,5.5839691,2.5723343,15.8528214,2.784668,21.6831055
				c0.4427719,12.1927109-0.7639236,20.3062744-0.769043,20.4335938c0.2717209,0.1132965,2.0454178,0.6818314,4.2451172,2.1005859
				c2.3153152,1.4874878,3.3952255,2.7489853,4.5522461,4.1411133c0.3793945,0.4541016,0.9526367,1.140625,0.8071289,1.9208984
				c-0.199707,1.081543-1.6293945,1.1396484-2.5751953,1.1777344c-0.0558701,0.0022507-1.826683,0.1539764-2.8237305,0.2119141
				C94.3838882,126.1299515,94.0202332,125.8175812,93.9960938,125.3979263z M90.5854492,116.6166763h0.0102539H90.5854492z"/>
		</g>
		<g>
			<path d="M56.84375,125.9472427c-0.1203537-0.0111389-2.1029015-0.0779877-4.0639648-0.5395508
				c-0.6079102-0.1450195-1.1079102-0.6787109-1.2460938-1.3291016c-0.2011719-0.9433594,0.4326172-1.7387695,0.8515625-2.2646484
				c0.0843391-0.1009598,0.9275627-1.2246628,2.027832-2.2407227c1.9180603-1.7673874,4.1161957-2.9414215,6.621582-3.3657227
				c-1.71381-17.1809311-0.4757233-26.8742981-0.1269531-31.5898438c0.2954979-3.9670029,1.1496887-11.0099487,3.2207031-14.4287109
				c1.4395981-2.3645782,2.8934784-2.4104767,3.0844727-2.9492188c0.1522369-0.432579-0.2656403-1.4287186-0.3710938-2.1064453
				c-1.4087524-9.0229492-5.5377731-20.39468-6.4526367-25.0317383c-0.0800781-0.40625,0.1845703-0.8007813,0.5908203-0.8808594
				c0.4023438-0.081543,0.800293,0.184082,0.8808594,0.5908203c0.9365578,4.7490501,5.0289536,15.9073982,6.4633789,25.0908203
				c0.1054459,0.6870651,0.6587524,1.829567,0.3027344,2.8364258c-0.3583527,1.0158005-1.4817429,1.3406448-1.9697266,1.753418
				c-0.4726563,0.4023438-0.9047852,0.9135742-1.246582,1.4750977c-1.8885574,3.1180801-2.7262688,9.9887314-3.0068359,13.7617188
				c-0.2470551,3.3310318-0.596653,6.7269516-0.6982422,10.0800781c-0.1898994,6.4807053,0.1994057,15.1300735,0.8388672,21.4204102
				c0.0410156,0.2416992,0.1088867,0.6450195-0.1640625,1.0043945c-0.5623322,0.7504578-1.6453056,0.0633774-4.5258789,1.6665039
				c-1.6252403,0.9114914-3.0365143,2.2199554-4.1616211,3.6777344c-0.4678307,0.5882416-0.7417908,0.955452-0.6923828,1.1879883
				c0.0185547,0.0859375,0.0942383,0.1699219,0.1279297,0.1831055c1.6252251,0.3801498,3.6905518,0.4905014,3.7924805,0.5
				c0.4135742,0.0214844,0.7314453,0.3740234,0.7104492,0.7875977
				C57.6110954,125.6321945,57.2822037,125.9634857,56.84375,125.9472427z"/>
		</g>
		<g>
			<path d="M48.9287109,71.7216568c-0.6782227-4.5761719-0.6230469-9.2138672,0.1625977-13.784668
				c0.659668-3.8369141,2.3222656-7.9418945,4.8071289-11.8710938c2.8061523-4.4365234,6.1010742-7.3632813,9.7924805-8.6992188
				c0.3901367-0.1416016,0.8193359,0.0600586,0.9604492,0.449707s-0.0605469,0.8198242-0.449707,0.9604492
				c-7.1227417,2.5778046-12.4425545,12.4962196-13.6318359,19.4140625
				c-0.7592773,4.4140625-0.8120117,8.8925781-0.1577148,13.3110352c0.0610352,0.409668-0.222168,0.7910156-0.6318359,0.8515625
				C49.3829651,72.4162292,48.990612,72.1396179,48.9287109,71.7216568z"/>
		</g>
		<g>
			<path d="M46.5463867,87.4740982c-0.9358292-1.4222717,0.3924789-2.8475494,1.9316406-6.0751953
				c0.5150909-1.0779724,1.4265633-2.7391586,2.3295898-3.5131836c0.4326172-0.3710938,1.5595703-1.2329102,2.5991211-1.1186523
				c0.831543,0.0839844,1.7407227,0.3598633,2.4946289,0.7573242c0.3666992,0.1933594,0.5068359,0.6469727,0.3139648,1.0131836
				c-0.1933594,0.3666992-0.6484375,0.5063477-1.0131836,0.3139648c-0.5810547-0.3066406-1.3085938-0.527832-1.9458008-0.5922852
				c-0.2919922-0.0307617-0.9194336,0.2905273-1.472168,0.7651367c-0.9892006,0.8467102-2.0393677,3.23806-2.3740234,3.8769531
				c-0.9822617,2.0067215-1.9076538,3.2983932-1.6108398,3.7475586c0.0966797,0.1469727,0.4072266,0.203125,0.6669922,0.121582
				c0.3876953-0.1225586,0.7504883-0.4672852,1.0600586-0.78125c0.2905273-0.2949219,0.7651367-0.2978516,1.0605469-0.0068359
				c0.2949219,0.2905273,0.2978516,0.765625,0.0068359,1.0605469c-0.4355469,0.4418945-0.9609375,0.9321289-1.6757813,1.1577148
				C47.9850235,88.4955826,47.0152206,88.185791,46.5463867,87.4740982z"/>
		</g>
		<g>
			<path d="M70.2988281,38.4721451c-0.1077423-0.9531975-0.2129669-2.7959976,0.7446289-2.9257813
				c2.974144-0.4015694,6.5575027-0.3964043,9.9677734,0.1425781c0.3369141,0.0532227,0.5952148,0.3271484,0.6289063,0.6665039
				c0.1272964,1.2706375-0.513588,3.5350113-1.7514648,5.0742188
				C76.6557312,45.4476395,70.8468475,43.4066124,70.2988281,38.4721451z M71.7524414,36.9765396
				c-0.4905777,4.5787468,4.3157883,6.8071671,6.9672852,3.5126953c0.7665558-0.9524689,1.3151169-2.4386635,1.4204102-3.4125977
				C76.9962311,36.6436272,74.4203949,36.7155457,71.7524414,36.9765396z"/>
		</g>
		<g>
			<path class="st13" d="M76.8640366,36.0396042c-0.7499847-0.0300293-1.4999619-0.0300293-2.2499466-0.0100098
				C75.3640747,35.9995651,76.1140518,36.0095749,76.8640366,36.0396042z"/>
			<path d="M76.8344727,36.7890396c-0.690918-0.027832-1.4106445-0.0297852-2.2001953-0.0097656
				c-0.3891602,0.0263672-0.7553711-0.3120117-0.7695313-0.7246094c-0.0136719-0.4116211,0.3076172-0.7578125,0.7192383-0.7744141
				c0.6992188-0.027832,1.4335938-0.0244141,2.3100586,0.0097656c0.4236221,0.0169258,0.7379684,0.3779907,0.7197266,0.7792969
				C77.5968857,36.4923592,77.2353287,36.8081284,76.8344727,36.7890396z"/>
		</g>
		<g>
			<path class="st70" d="M75.4341354,14.3301926c-5.0797043,0-9.1997147,5.4798412-9.1997147,12.2296696
				c0,6.75984,4.1200104,12.2296696,9.1997147,12.2296696c5.0899582,0,9.2097321-5.4698296,9.2097321-12.2296696
				C84.6438675,19.8100338,80.5240936,14.3301926,75.4341354,14.3301926z M72.8441162,27.3899193
				c-0.7499847,0-1.3598328-0.8500748-1.3598328-1.890089c0-1.0400124,0.609848-1.8898449,1.3598328-1.8898449
				c0.7499771,0,1.3500595,0.8498325,1.3500595,1.8898449C74.1941757,26.5398445,73.5940933,27.3899193,72.8441162,27.3899193z
				 M79.2541122,27.1699543c-0.7499847,0-1.3600769-0.8500767-1.3600769-1.890089
				c0-1.0500221,0.6100922-1.8898449,1.3600769-1.8898449c0.7499771,0,1.3598251,0.8398228,1.3598251,1.8898449
				C80.6139374,26.3198776,80.0040894,27.1699543,79.2541122,27.1699543z"/>
		</g>
		<g>
			<path d="M76.1635742,39.0429459c-0.4130859-0.0307617-0.7231445-0.3901367-0.6928711-0.8032227
				c0.5874023-7.928709-0.0859375-15.8608379-2.0014648-23.5761719c-0.0996094-0.4018555,0.1455078-0.8085938,0.5473633-0.9086914
				s0.809082,0.1455078,0.9086914,0.5473633c1.9536133,7.8696299,2.6401367,15.9609385,2.0415039,24.0478516
				C76.9358368,38.766964,76.5704498,39.0750694,76.1635742,39.0429459z"/>
		</g>
		<g>
			<path d="M101.5561523,72.0971451c-0.4125977-0.0351563-0.7182617-0.3984375-0.6826172-0.8115234
				c0.4399414-5.1225586-0.1064453-9.6308594-1.0629883-14.8237305c-1.34375-7.3007813-6.269043-13.9672852-12.8530273-17.3974609
				c-0.3671875-0.1914063-0.5097656-0.644043-0.3183594-1.0117188c0.1914063-0.3666992,0.6435547-0.5097656,1.0117188-0.3183594
				c6.984375,3.6391602,12.2089844,10.7109375,13.6352539,18.4560547c0.9780273,5.3120117,1.5361328,9.934082,1.081543,15.2241211
				C102.3325577,71.8276901,101.9670029,72.133667,101.5561523,72.0971451z"/>
		</g>
		<g>
			<path d="M100.6206055,87.1591568c-0.3164063-0.2670898-0.3564453-0.7402344-0.0888672-1.0566406
				c0.2670898-0.3164063,0.7402344-0.3569336,1.0566406-0.0888672c0.2709961,0.2290039,0.5654297,0.4584961,0.8823242,0.5893555
				c0.605278,0.2505341,0.996933-0.0027237,1.0161133-0.2348633c0.0170593-0.2087708-0.0670929-0.3035431-2.1748047-4.3999023
				c-1.3644409-2.6527481-2.0660706-2.9916-4.8935547-2.7739258c-0.421875,0.0317383-0.7734375-0.2783203-0.8051758-0.690918
				c-0.03125-0.4130859,0.2783203-0.7734375,0.690918-0.8051758c3.3706589-0.2524033,4.6631012,0.3218918,6.3417969,3.5834961
				c2.1346893,4.1490555,2.396843,4.4496918,2.3359375,5.2075195c-0.0571289,0.7021484-0.5722656,1.3417969-1.28125,1.5917969
				C102.5749359,88.4787674,101.5317459,87.9291382,100.6206055,87.1591568z"/>
		</g>
		<g>
			<path d="M119.5302734,95.2890396H86.3432617c-0.4140625,0-0.75-0.3359375-0.75-0.75s0.3359375-0.75,0.75-0.75h33.1870117
				c0.4140625,0,0.75,0.3359375,0.75,0.75S119.9443359,95.2890396,119.5302734,95.2890396z"/>
		</g>
		<g>
			<path d="M134.9462891,91.8871841h-10.190918c-0.4140625,0-0.75-0.3359375-0.75-0.75s0.3359375-0.75,0.75-0.75h10.190918
				c0.4140625,0,0.75,0.3359375,0.75,0.75S135.3603516,91.8871841,134.9462891,91.8871841z"/>
		</g>
		<g>
			<path d="M128.4863281,96.1181412h-4.0957031c-0.4140625,0-0.75-0.3359375-0.75-0.75s0.3359375-0.75,0.75-0.75h4.0957031
				c0.4140625,0,0.75,0.3359375,0.75,0.75S128.9003906,96.1181412,128.4863281,96.1181412z"/>
		</g>
		<g>
			<path d="M137.8198242,100.9325943h-13.7939453c-0.4140625,0-0.75-0.3359375-0.75-0.75s0.3359375-0.75,0.75-0.75h13.7939453
				c0.4140625,0,0.75,0.3359375,0.75,0.75S138.2338867,100.9325943,137.8198242,100.9325943z"/>
		</g>
		<g>
			<path d="M54.4155273,65.3368912c-0.4337425,0-0.5073242-0.0499878-5.1206055-1.0380859
				c-0.4052734-0.0869141-0.6630859-0.4853516-0.5766602-0.8901367c0.0869141-0.4057617,0.4887695-0.6611328,0.8901367-0.5766602
				c4.3917389,0.927803,4.7559128,1.0523071,4.8833008,0.9980469c0.0209961-0.0219727,0.0742188-0.1254883,0.1503906-0.4521484
				c0.2094727-0.8999023,0.3935547-1.9086914-0.0751953-2.4960938c-0.1875-0.2353516-0.4980469-0.4165039-0.8056641-0.5771484
				c-1.0908203-0.5712891-2.2607422-0.9658203-3.4765625-1.1733398c-0.4086914-0.0698242-0.6831055-0.4570313-0.6132813-0.8652344
				c0.0698242-0.4086914,0.4604492-0.6801758,0.8652344-0.6132813c1.4834213,0.2530479,4.2738533,1.1283913,5.2026367,2.293457
				c0.9609375,1.2045898,0.5722656,2.8745117,0.3637695,3.7714844
				C55.8813782,64.6722488,55.4132004,65.3368912,54.4155273,65.3368912z"/>
		</g>
	</g>
</g>
</svg>
