<?xml version="1.0" encoding="utf-8"?>
<!-- Generator: Adobe Illustrator 22.0.1, SVG Export Plug-In . SVG Version: 6.00 Build 0)  -->
<svg version="1.1" id="Layer_1" xmlns="http://www.w3.org/2000/svg" xmlns:xlink="http://www.w3.org/1999/xlink" x="0px" y="0px"
	 viewBox="0 0 156 156" style="enable-background:new 0 0 156 156;" xml:space="preserve">
<style type="text/css">
	.st0{fill:#FBAC02;}
	.st1{fill:#5D5D5C;}
	.st2{fill:#3A3935;}
	.st3{fill:#0A0B0D;}
	.st4{fill:#FCCD0C;}
	.st5{fill:#3B3B39;}
	.st6{fill:#404040;}
	.st7{fill:#21201C;}
	.st8{fill:#FCCD0A;}
	.st9{fill:#C6C6C4;}
	.st10{fill:#FBC606;}
	.st11{fill:#2C2C2C;}
	.st12{fill:#2D2D2D;}
	.st13{fill:#FFFFFF;}
	.st14{fill:#454545;}
	.st15{fill:#FFCE05;}
	.st16{fill:#585A59;}
	.st17{fill:#4E4F4A;}
	.st18{fill:#616362;}
	.st19{fill:#393937;}
	.st20{fill:#595758;}
	.st21{fill:#4E4E4E;}
	.st22{fill:#7E7E7E;}
	.st23{fill:#FDCE0D;}
	.st24{fill:#7D827C;}
	.st25{fill:#7F8180;}
	.st26{fill:#7C7B77;}
	.st27{fill:#81807D;}
	.st28{fill:#7E7D79;}
	.st29{fill:#FFD101;}
	.st30{fill:#686A69;}
	.st31{fill:#797977;}
	.st32{fill:#444444;}
	.st33{fill:#9D9D9D;}
	.st34{fill:#A6A5A3;}
	.st35{fill:#898989;}
	.st36{fill:#686868;}
	.st37{fill:#969694;}
	.st38{fill:#2F2E2C;}
	.st39{fill:#5D5D5D;}
	.st40{fill:#0D0D0D;}
	.st41{opacity:0.71;}
	.st42{fill:#888886;}
	.st43{fill:#888984;}
	.st44{fill:#6F6F6D;}
	.st45{fill:#616161;}
	.st46{fill:#555555;}
	.st47{fill:#FDFCF9;}
	.st48{opacity:0.37;}
	.st49{fill:#FFCB05;}
	.st50{fill:#7B7A76;}
	.st51{fill:#747570;}
	.st52{fill:#747474;}
	.st53{fill:#797C7B;}
	.st54{fill:#383838;}
	.st55{fill:#999998;}
	.st56{fill:#4D4B4C;}
	.st57{fill:#52524A;}
	.st58{fill:#AAAAA0;}
	.st59{fill:#030303;}
	.st60{fill:#545452;}
	.st61{fill:#FDCE04;}
	.st62{fill:#767674;}
	.st63{fill:#333333;}
	.st64{fill:#ABA9AA;}
	.st65{fill:#585954;}
	.st66{fill:#5E5D5B;}
	.st67{fill:#1A1615;}
	.st68{fill:#A0A19C;}
	.st69{fill:#8E9494;}
	.st70{fill:#464646;}
</style>
<g id="Robot_Chef">
	<g>
		<path d="M46.6216774,114.1873932c2.041172-1.9811554,1.9438744-1.9666748,2.2212791-1.9254379l2.9055138,0.4319611
			c0.1792526,0.0266495,0.3213806,0.1649399,0.3529243,0.343399l0.3701057,2.0938263
			c0.0263634,0.1491623-0.0293694,0.3009949-0.145977,0.3976669l-1.5653,1.2977829
			c-0.1343422,0.1113815-0.3234444,0.1284103-0.4755249,0.0428238l-3.5762138-2.0125351
			C46.4631081,114.7187881,46.419632,114.3834991,46.6216774,114.1873932z"/>
		<path class="st23" d="M123.2797165,56.7836952c-0.8479996-2.3480225-3.9094315-4.1334724-3.361351-2.0899506
			c0.6072083,2.2639771,0.5950851,4.6915359-0.0310364,6.953434c-0.1083374,0.3913689-0.3834915,0.9005623-0.2135086,1.3064728
			C120.2287064,64.278717,124.8176422,61.0420494,123.2797165,56.7836952z"/>
		<path d="M120.6906738,54.0718536c0.8078156,1.3991432,0.5660706,5.5218124,0.3650055,7.1393433
			c-0.2743683,2.2073364-0.9923325,2.7252693-3.0523758,3.0849686c1.4352875-8.0215988-0.4696655-11.3469543,1.0769272-11.2536621
			C119.7463455,53.0826836,120.3625717,53.5035782,120.6906738,54.0718536z"/>
		<path class="st23" d="M82.3034134,50.9074249c0.2564545-0.0566902,0.5739517-0.0722694,0.7299423,0.1390381
			c0.4709244,0.6379356-1.3830566,1.8352051-1.7463226,6.1579323c-0.1584549,1.8855286,0.1788406,2.2688942-0.1561279,2.7149925
			c-0.443512,0.5906563-1.2642365-0.2202187-1.5702438-0.5679474
			C76.9512939,56.3863297,78.4917755,51.7500496,82.3034134,50.9074249z"/>
		<path d="M82.3208466,51.059124c-1.1259537,1.1586151-1.9015198,5.2148857-2.1028442,6.8323822
			c-0.2747269,2.2072945,0.2944794,2.8853302,2.2036362,3.7387238c0.5735321-8.1287842,3.2350616-10.8861504,1.712738-11.1745758
			C83.4787216,50.3314285,82.7781601,50.5885353,82.3208466,51.059124z"/>
		<path class="st15" d="M80.3858109,76.3222885c-0.1899414,0.1799316-0.3698807,1.0500717-0.4299393,1.2400208
			c-0.3733521,1.1206665-0.6770706,2.5446625-0.6298981,3.9000092c0.247673,7.1653976,0.1115875,6.8422928,0.0898438,8.840332
			c-3.8423004,2.0317154-7.5066528,4.4271011-11.0803833,7.3900986c-0.2199783-0.8598862-0.8698959-1.6299286-1.6799774-2.0198288
			c-2.8586006-1.3952408-6.7979965,0.9489212-9.1201286,3.159996c-2.0579872,1.9592209-6.0965424,7.1530762-7.4904404,9.6501694
			c-0.0898476-0.0400391-0.1398964-0.0500488-0.1499062-0.0300293c3.1700096-5.440094,6.8202553-10.5901337,10.8904381-15.3803101
			C66.0524292,86.8550186,72.250473,79.4571457,80.3858109,76.3222885z"/>
		<rect x="96.5635376" y="119.0644989" class="st15" width="8.0440311" height="19.4332695"/>
		<path class="st52" d="M93.212822,142.1011963c0.181221-1.5061798,1.1331635-2.840744,2.334465-3.7671814
			c4.3608093-3.3630371,10.8100586-1.382431,12.504303,3.8871765L93.212822,142.1011963z"/>
		
			<rect x="96.685997" y="66.1699295" transform="matrix(0.9994894 -0.0319532 0.0319532 0.9994894 -2.2010853 3.2588494)" width="8.351326" height="8.6531811"/>
		<g>
			<path d="M49.8911667,115.7444382c-0.644474,0-0.9926071-0.7704544-0.5561523-1.2529297l0.6669922-0.7363281
				c0.2783203-0.3081055,0.7524414-0.3310547,1.059082-0.0532227c0.3076172,0.277832,0.3310547,0.7519531,0.0532227,1.059082
				C50.563282,115.2930527,50.4140587,115.7444382,49.8911667,115.7444382z"/>
		</g>
		<g>
			<path d="M52.4893112,115.7395554c-0.3946114-0.0415649-0.6537857-0.2186584-0.9692383-0.40625
				c-1.6394768-0.9766006-3.3864288-1.7697144-3.4936523-3.6367188c-0.1858444-2.7807922,6.9464378-11.4593658,8.9916992-13.4069824
				c2.5664787-2.4437332,6.7687988-4.8502274,9.9663086-3.2907715c1.5721359,0.7567596,2.6251755,2.6445618,1.9946289,4.3540039
				c-0.6480103,1.7536469-2.045372,1.9074249-5.8828125,5.1157227c-0.3692169,0.3063049-0.9247665,0.1945343-1.1450195-0.2275391
				c-0.8293877-1.5772705-2.8399658-3.0461426-2.6889648-1.3237305c0.0895119,1.018425,1.0721016,2.1276093,0.3901367,4.6508789
				c-0.1562576,0.5776749-2.2593002,2.1071472-5.3432617,6.9863281
				C53.8710594,115.2453461,53.3039398,115.8248978,52.4893112,115.7395554z M62.837944,96.3460007
				c-3.7596817,1.2135239-6.3575592,4.5886917-8.7558594,7.6533203c-3.4546852,4.4681931-3.4030571,4.9954453-3.7802734,5.5820313
				c-0.9838715,1.7653885-1.2695274,2.5250473,0.5556641,3.6069336c0.05513,0.0333252,1.7281609,1.0459366,1.7910156,1.0600586
				c-0.0068359-0.0068359,0.1196289-0.0654297,0.3935547-0.4970703c1.5175781-2.4008789,3.269043-4.6689453,5.206543-6.7426758
				c0.4433365-1.9633408-0.3688622-2.678299-0.4804688-3.9604492c-0.1760674-2.0135803,1.6734848-3.223587,3.6210938-1.7421875
				c0.5283203,0.3935547,1.0141602,0.8989258,1.4091797,1.4658203c3.2280197-2.6017609,4.3759613-2.8618164,4.7734375-3.9387207
				c0,0,0,0,0-0.0002441C68.0981827,97.4095764,66.4581223,95.1665039,62.837944,96.3460007z"/>
		</g>
		<g>
			<path d="M59.9580612,102.13311c-0.2709961-0.3134766-0.2363281-0.7871094,0.0771484-1.0576172
				c1.8271484-1.5783691,3.7700195-2.9650879,5.7753906-4.1223145c0.3583984-0.2067871,0.8173828-0.0842285,1.0244141,0.2749023
				c0.2070313,0.3586426,0.0839844,0.8173828-0.2744141,1.0244141c-1.9238281,1.1098633-3.7890625,2.4416504-5.5449219,3.9577637
				C60.7013474,102.4823227,60.2268181,102.4453354,59.9580612,102.13311z"/>
		</g>
		<g>
			<path d="M52.2627487,111.8640671c-0.359375-0.2055664-0.484375-0.6635742-0.2783203-1.0234375
				c1.6601563-2.9033203,3.706543-5.574707,6.081543-7.9394531c0.2939453-0.2919922,0.7680664-0.2905273,1.0610352,0.0024414
				c0.2919922,0.293457,0.2910156,0.7685547-0.0024414,1.0610352c-2.2802734,2.2695313-4.2441406,4.8339844-5.8383789,7.6210938
				C53.0808182,111.9449615,52.6221008,112.0698395,52.2627487,111.8640671z"/>
		</g>
		<path d="M118.7389755,123.2688293H85.1776047c-0.5766678,0-1.134407-0.5710144-1.2470093-1.2834091l-0.990303-6.265419
			c-0.1269379-0.8031235,0.273735-1.4620972,0.8964844-1.4620972h36.2430267c0.6227417,0,1.0234222,0.6589737,0.8964767,1.4620972
			l-0.990303,6.265419C119.8733749,122.6978149,119.3156433,123.2688293,118.7389755,123.2688293z"/>
		<path class="st15" d="M128.8311005,86.6977158c-0.7251892,8.8656006-2.1312637,17.7680817-3.5358276,24.6519928
			c-0.3804016,1.9030838-2.193306,3.8025436-3.383316,4.1544724c-0.8485565,0.2505341,1.9429626,0.1763306-38.734726,0.1681824
			c-0.8552475,0-1.4280167,0.0609665-2.1383896-0.5041656c-1.0308838-0.8399506-1.5730743-2.1993561-2.0237274-3.4060593
			c-0.8934631-1.7794724-1.4509506-3.9711914-1.9015961-5.8880768c-1.3806229-5.9765472-2.4738693-10.7877579-2.9401245-19.260437
			c-0.1223145-2.1536789-0.2215042-4.4141922,1.0461655-6.2395325c2.7504425-3.9088135,8.1003723-5.5925674,12.7995834-6.3079681
			c5.4495544-0.8650513,24.2539139-1.39888,28.41716-1.1227951c3.3745422,0.1521454,6.3770142,0.8478775,9.1567307,2.932663
			C129.0908203,78.4879684,129.1517944,82.7339859,128.8311005,86.6977158z"/>
		<path class="st52" d="M127.2350922,100.3219604c-0.5327301,3.5763168-1.2277451,7.5052338-1.8941803,10.8029785
			c-0.3450317,1.7073441-1.3629913,3.1077957-2.6882629,4.0032883c-1.1541519,0.7798615,1.1799088,0.550766-39.4754181,0.544136
			c-0.8552475,0-1.4280167,0.0609665-2.1383896-0.5041656c-1.0308838-0.8399506-1.5730743-2.1993561-2.0237274-3.4060593
			c-0.8934631-1.7794724-1.4509506-3.9711914-1.9015961-5.8880768c-0.4950714-2.1430893-1.0060196-4.2783356-1.4054947-6.4375305
			c0.0000839-0.000145,0.0002213-0.0003891,0.0002213-0.0003891c5.5293503-2.1842575,4.9487457-18.0233383,4.6127625-23.1400757
			c2.4286957-1.1455536,5.0404816-1.8253479,7.6981354-2.2299423l2.3272552,17.900528
			c0.1147537,0.8826981,0.8666763,1.54319,1.7568054,1.54319h21.0131912c0.9222412,0,1.6902313-0.70755,1.7656555-1.6267014
			l1.5542526-18.9398117c2.5431747,0.1146622,4.8801346,0.527092,7.09478,1.6573486
			c-1.1684799,4.9411011-3.7726212,19.2298508,3.2686462,25.3012161
			C126.9524307,100.0393066,127.1051331,100.1769028,127.2350922,100.3219604z"/>
		<g>
			<path d="M93.0972214,109.9890671c-0.5493164-0.1054688-0.9838867-0.5297852-1.1074219-1.081543l-2.043457-9.0866699
				c-0.196312-0.8695908,0.4552765-1.7045135,1.3505859-1.7214355l22.3696289-0.4199219
				c0.9214096-0.0100021,1.5916061,0.8215561,1.4091797,1.6992188l-1.9726563,9.4794922
				c-0.1240234,0.59375-0.609375,1.0405273-1.2080078,1.1132813
				C106.3681717,110.6490021,98.5915222,111.0477142,93.0972214,109.9890671z M91.400444,99.5979538l2.0532227,8.980957
				c6.5351563,1.2094727,16.152832,0.1591797,18.1938477-0.0883789l1.9370117-9.309082L91.400444,99.5979538z"/>
		</g>
		<path class="st15" d="M119.246994,57.131813c-0.0700684-1.660202-0.2399979-3.3201599-0.5901031-4.9503326
			c-3.0598984-2.9500313-14.3302307-12.2801208-30.6907883-7.9801979c-3.5601578,4.3602257-5.1600571,10.3003311-5.91008,15.7206497
			c-0.2900467,2.1399498-0.4799881,4.3900108,1.2598038,6.0099297c1.0000305,0.9301987,2.0200729,1.0600891,3.3201599,1.2900772
			c8.9338837,1.5423813,18.2805328,1.5999146,27.670929-0.1198807c1.0000305-0.1799316,2.0200806-0.3901443,2.8999863-0.9001694
			C120.0570755,64.5819702,119.3568649,59.891655,119.246994,57.131813z M94.8862152,56.1718254
			c-2.1044693-0.0484314-3.4188538-2.2911072-3.3699646-4.4403076c0.0428467-2.1722984,1.4606094-4.3197479,3.5601578-4.2901573
			c1.9099655,0.0500488,3.4200134,2.0300865,3.3699646,4.4403076
			C98.3963242,54.2916489,96.8064346,56.2116241,94.8862152,56.1718254z M104.526619,58.4116364
			c-1.0323029,3.6709213-4.4833755,4.3501892-6.0602264,1.8501472c-0.4001617-0.6098785-1.0100403-1.820118-0.830101-2.5701408
			c0.0600586-0.2800369,0.2500076-0.5398102,0.5200348-0.6198883c0.5415192-0.1734581,1.0177841,0.4479408,1.3201065,0.7199898
			c1.1499329,1.0300598,3.0899277,0.8100815,4.140007-0.2500076c0.2199707-0.2199745,0.5400543-0.6301422,0.8401108-0.3300858
			C104.7265778,57.481678,104.6164627,58.0918007,104.526619,58.4116364z M106.1965866,55.9115639
			c-2.0982056-0.0482864-3.4286194-2.2949486-3.3802185-4.4400635c0.0584717-2.2052498,1.4894562-4.3186378,3.5601578-4.2901573
			c1.9199753,0.0500526,3.4302673,2.0300865,3.3802185,4.4403076
			C109.7066956,54.0316315,108.1065521,55.9516068,106.1965866,55.9115639z"/>
		<g>
			<path d="M122.7188034,49.8796959c-0.9985352-0.3549805-2.0029297-0.8879395-3.1635742-1.6782227
				c-0.2246094-0.152832-0.3491211-0.4150391-0.3251953-0.6855469l0.2983398-3.3876953
				c-14.5234375-13.5810547-26.1533203-10.7792969-28.2431641-10.1191406l-0.8657227,3.1601563
				c-0.0908203,0.3303223-0.3676758,0.5495605-0.7373047,0.5517578c-3.8935471-0.0732384-7.2024612-4.031456-8.0375977-7.6933594
				c-0.6176758-2.5480957-0.4682617-6.1577148,1.8115234-8.6166992c1.4482422-1.5625,3.6435547-2.3139648,5.7338867-2.0058594
				c1.4506836-3.1159668,5.1010742-5.6057138,8.7758789-5.9021006c3.6933594-0.3029785,6.2949219,1.5981445,8.3496094,3.496583
				c0.1577148,0.1459961,0.2172852,0.1572266,0.7885742,0.0019531c4.299942-1.1691093,11.9276428,0.566431,12.4614258,4.9462891
				c3.5874023,0.1882324,6.5234375,1.1967773,8.7358322,3.0019531c2.0437927,1.6601887,3.5760651,3.8891563,3.4179688,6.5075684
				c2.8074341,1.5815468,4.1729889,5.0177116,2.8837891,8.223877c0,0.0004883-0.0004883,0.0007324-0.0004883,0.0012207
				c-0.1206055,0.2980957-0.3168945,0.5541992-0.4907227,0.7802734c-0.5915222,0.7699051-0.2335358,0.4058418,0.1171875,1.4614258
				C135.9383087,47.2740402,129.1589966,52.1334648,122.7188034,49.8796959z M120.763237,47.2039146
				c0.8974609,0.5834961,1.6855469,0.987793,2.4545898,1.2609863c2.0004883,0.7001953,4.2524414,0.619873,6.1796799-0.2209473
				c3.2792969-1.4277229,4.2133026-4.4278755,3.234375-6.2070313c-0.9155731-1.6561699,0.3334503-2.3067741,0.5800781-2.9165039
				c1.0648041-2.6516685-0.2149963-5.4668045-2.6035156-6.5458984c-0.3095703-0.1398926-0.4863281-0.4699707-0.4316406-0.8051758
				c0.3676453-2.2368298-1.0712738-4.2333183-2.8227463-5.6564941c-2.0947266-1.7094727-4.96875-2.6147461-8.5429688-2.6921387
				c-0.4388351-0.0091858-0.7765808-0.3919945-0.7294922-0.8295898c0.0698242-0.6513672-0.2080078-1.3947754-0.7421875-1.9887695
				c-1.6689758-1.8540287-6.4639282-3.0689049-9.8422852-2.1533203c-0.5947266,0.161377-1.4091797,0.3828125-2.1992188-0.3474121
				c-1.9072266-1.7619629-4.1054688-3.3579111-7.2104492-3.1035166c-3.3613281,0.2712402-6.6875,2.6442881-7.7368164,5.5197763
				c-0.1328125,0.3625488-0.5214844,0.5639648-0.890625,0.4694824c-1.7236328-0.440918-3.6943359,0.1381836-4.9038086,1.4433594
				c-1.8759766,2.0236816-1.9799805,5.0737305-1.4511719,7.2536621c0.6542053,2.8770103,3.2146912,6.1038132,6.03125,6.4924316
				l0.8066406-2.9440918c0.0610352-0.223877,0.2226563-0.4069824,0.4375-0.4953613
				c0.5493164-0.2263184,13.6420898-5.3520508,30.4423828,10.5493164c0.1665039,0.1574707,0.2514648,0.3823242,0.2314453,0.6103516
				L120.763237,47.2039146z"/>
		</g>
		<g>
			<path d="M107.075737,21.114315c-0.4023438,0-0.7348633-0.3186035-0.7490234-0.7236328
				c-0.0297852-0.8532715-0.3710938-1.7097168-0.9360352-2.3498535c-0.2744141-0.3105469-0.2451172-0.7844238,0.0654297-1.0585938
				c0.3110352-0.2746582,0.7851563-0.2443848,1.0585938,0.065918c0.8032227,0.9091797,1.2685547,2.0776367,1.3110352,3.2897949
				c0.0146484,0.4140625-0.309082,0.7614746-0.7231445,0.7758789
				C107.0938034,21.1140709,107.0845261,21.114315,107.075737,21.114315z"/>
		</g>
		<g>
			<path d="M127.3652878,33.025692c-0.2475586-0.3322754-0.1787109-0.8022461,0.1538086-1.0495605
				c0.997551-0.7431641,2.2763596-1.0605469,3.5068283-0.8728027c0.4091797,0.0629883,0.6904297,0.4458008,0.6274414,0.8552246
				c-0.0629883,0.409668-0.4511719,0.6875-0.8549805,0.6276855c-0.8227539-0.1264648-1.715332,0.095459-2.3837891,0.5930176
				C128.0839233,33.425766,127.6138229,33.3589897,127.3652878,33.025692z"/>
		</g>
		<g>
			<path d="M111.6943893,38.0833092c-0.3657227-0.1948242-0.5043945-0.6489258-0.3095703-1.0146484
				c1.4458008-2.7148438,3.5957031-5.0351563,6.2182617-6.7097168c0.3481445-0.2226563,0.8129883-0.1213379,1.0361328,0.2285156
				c0.2226563,0.3491211,0.1206055,0.8127441-0.2285156,1.0356445c-2.4057617,1.5361328-4.3774414,3.6628418-5.7016602,6.1506348
				C112.5150299,38.1382065,112.0610046,38.2785683,111.6943893,38.0833092z"/>
		</g>
		<g>
			<path d="M116.8740768,41.7866783c-0.2739258-0.3110352-0.2431641-0.7849121,0.0678711-1.0585938
				c2.4003906-2.1113281,5.4370117-3.3776855,8.5498047-3.5654297c0.4277344-0.0280762,0.769043,0.2897949,0.7939453,0.7033691
				c0.0249023,0.4133301-0.2900391,0.7687988-0.703125,0.7937012c-2.7822266,0.1679688-5.4990234,1.3027344-7.6503906,3.1948242
				C117.6232452,42.1268539,117.1483231,42.098938,116.8740768,41.7866783z"/>
		</g>
		<g>
			<path d="M124.7564011,45.1414146c-0.1401367,0-0.2817383-0.0390625-0.4082031-0.1210938
				c-1.1450195-0.7431641-2.6342773-0.9660645-3.9824219-0.5957031c-0.3974609,0.1081543-0.8125-0.125-0.921875-0.5249023
				c-0.1098633-0.3994141,0.125-0.8120117,0.5244141-0.921875c1.7573242-0.4814453,3.6992188-0.1882324,5.1972656,0.784668
				C125.7916794,44.169342,125.4979858,45.1414146,124.7564011,45.1414146z"/>
		</g>
		<g>
			<path d="M103.7383347,34.0867271c-1.3458252-4.486208,0.9273682-9.0619774,2.7617188-9.9157715
				c0.7993164-0.3459473,1.6987305-0.1804199,2.2070313,0.3918457c0.9141083,1.0719452,0.4162827,3.603817-0.3261719,5.0170898
				c-0.1933594,0.3664551-0.6469727,0.5065918-1.0126953,0.3151855c-0.3666992-0.1928711-0.5078125-0.6462402-0.3154297-1.0129395
				c0.7851105-1.4932461,0.6993484-3.1265526,0.5229492-3.3349609c-0.6477127-0.7157459-3.7958298,3.4568939-2.4008789,8.1083984
				c0.1191406,0.3967285-0.105957,0.8149414-0.5029297,0.934082
				C104.2743835,34.7086487,103.8567276,34.4826584,103.7383347,34.0867271z"/>
		</g>
		<g>
			<path d="M98.013237,33.3306236c-0.3916016-0.1340332-0.6005859-0.5605469-0.4663086-0.9523926
				c1.4373779-4.1998215-0.3665543-8.1887703-0.8735352-8.1975098c-0.0004883,0-0.0009766,0-0.0009766,0
				c-0.0869141,0-0.253418,0.1782227-0.2851563,0.3842773c-0.1106567,0.7246799,0.7290344,1.7280655,0.8354492,2.8444824
				c0.0395508,0.4123535-0.2626953,0.7785645-0.675293,0.8181152c-0.4082031,0.0412598-0.7788086-0.2629395-0.8178711-0.6750488
				c-0.0805054-0.8459473-1.0277939-1.8929844-0.824707-3.215332c0.1269531-0.8291016,0.8417969-1.6611328,1.7954102-1.6564941
				c0.5473633,0.0092773,1.3227539,0.2937012,1.9013672,1.5952148c1.184082,2.6772461,1.3164063,5.8068848,0.3642578,8.5881348
				C98.8323288,33.2549019,98.4067764,33.4653816,98.013237,33.3306236z"/>
		</g>
		<g>
			<path d="M89.8814011,34.6824303c-0.6601563-0.9094238-1.671875-1.5512695-2.7753906-1.7614746
				c-0.4072266-0.0773926-0.6743164-0.4702148-0.5966797-0.8771973c0.0771484-0.4069824,0.472168-0.6733398,0.8769531-0.5964355
				c1.4750977,0.2807617,2.8271484,1.1386719,3.7089844,2.3537598c0.2431641,0.3352051,0.1689453,0.8041992-0.1665039,1.0476074
				C90.595726,35.0911217,90.1250839,35.0187187,89.8814011,34.6824303z"/>
		</g>
		<g>
			<path d="M59.150444,111.9163132c-0.9643555,0-1.9257813-0.2612305-2.7329102-0.7836914
				c-0.538372-0.3484879-0.4139366-1.1588898,0.184082-1.3452148c0.3642578-0.3720703,1.2485352-1.7104492,1.3964844-2.0058594
				c0.1444626-0.3357773,0.2466965-0.7379074,0.2695313-0.862793h0.0004883
				c0.3176041-1.729187-0.1454964-2.2536697-0.4013672-3.3081055c-0.6725082-2.5017242,1.7085495-4.2044449,4.1186523-1.7880859
				c0.293541,0.2392349,0.9363861,1.0390091,1.2939453,1.722168
				C65.4791183,107.7148743,63.1878853,111.9163132,59.150444,111.9163132z M58.1377487,110.2825241
				c2.9938087,0.8637695,5.8808365-2.1199875,3.8139648-6.0400391c-0.8374138-1.5978165-2.8388824-3.0296783-2.6894531-1.3251953
				c0.0535698,0.7563019,0.612793,1.4188919,0.612793,2.9956055c0,0.8216858-0.1651115,1.6928101-0.512207,2.4897461
				C59.3506393,108.4294968,58.7710495,109.4685593,58.1377487,110.2825241z"/>
		</g>
		<path class="st15" d="M139.7375488,120.5034409c-0.0600586-0.0998611-0.1398926-0.1999588-0.2099609-0.2900467
			c-2.249115-2.8665619-5.6986237-3.3717041-8.3603363-0.7099838c0.7299957-8.0002213-1.2700653-16.2404404-5.6202774-23.0006332
			l-1.5898895-21.6404953c0.532753,0.1933517,1.9850159,1.3730011,2.2800903,1.6399384
			c0.2329865,0.2058716,1.1279678,1.271904,1.4199677,1.6301727c2.9685745,3.7730637,4.0365219,7.2233887,5.7301407,12.0101013
			c1.2200012,3.4402771,2.2800903,6.9403763,3.1702423,10.4805145
			C138.197464,107.133194,139.2675629,113.7932892,139.7375488,120.5034409z"/>
		<g>
			<path d="M134.0654755,133.1062622c-0.6884766-1.2592773,0.355957-2.6054688,0.7490234-3.1123047
				c0.6005859-0.7548828,1.1948242-1.5581055,1.3549805-2.4350662c0.1005859-0.5683594-0.0664063-1.3857422-0.4682617-1.6450195
				c-0.3486328-0.2285156-1.1381836,0.0444336-1.6318359,0.4311523c-0.7458649,0.5842667-1.1076965,3.1604691-3.0073242,3.3256912
				c-0.3583984,0.0351563-0.9067383-0.0375977-1.4365234-0.546875c-1.1455078-1.1025391-1.5087891-3.6215897-1.4672852-4.4863358
				c0.0888672-2.0932617,1.0166016-4.2128906,2.4804688-5.6665039c5.2192993-5.2192917,12.7183838,0.7434464,11.1132813,8.6235352
				c-0.5209961,2.55616-1.9428711,4.7128983-3.9013672,5.9179764c-0.0004883,0.0004883-0.0004883,0.0004883-0.0009766,0.0004883
				c-0.4541016,0.2788086-1.0683594,0.6025391-1.793457,0.6303711
				C135.2642212,134.1933899,134.4456329,133.8199158,134.0654755,133.1062622z M135.3686981,124.3323288
				c1.7421265,0,2.5657501,1.8646317,2.2768555,3.4921875c-0.416687,2.2822495-2.6971436,3.7708511-2.2597656,4.5693436
				c0.4999847,0.9403076,4.0235901-0.8177338,4.8964844-5.0986404c1.2913055-6.3367767-4.4006042-11.4455719-8.5849609-7.2612305
				c-1.2045898,1.1958008-1.9667969,2.9418945-2.0405273,4.6713867c-0.0493469,1.02034,0.6242218,3.5132065,1.2753906,3.471199
				c0.7702789-0.0677338,1.1935883-2.2137604,2.2124023-3.0127029
				C133.7466278,124.6936569,134.5796356,124.3323288,135.3686981,124.3323288z"/>
		</g>
		<g>
			<path d="M118.9414597,53.5454674c-0.0083008-0.0092773-0.2875977-0.3161621-0.8100586-0.8286133
				c-2.9916992-2.8847656-14.0102539-11.986084-29.9750977-7.7902832c-0.1031036,0.0065804-0.6108246,0.2744446-1.0039063-0.1381836
				c-0.1811523-0.1904297-0.2495117-0.4616699-0.1796875-0.715332c3.1658859-11.152256,2.7721558-11.0742493,3.4077148-11.3356934
				c0.5493164-0.2263184,13.6420898-5.3520508,30.4423828,10.5493164c0.1665039,0.1574707,0.2514648,0.3823242,0.2314453,0.6103516
				l-0.8100586,9.2102051c-0.0258789,0.296875-0.2255859,0.5500488-0.5078125,0.6450195
				C119.4509506,53.8479881,119.1400604,53.764534,118.9414597,53.5454674z M118.8911667,51.3696861l0.637207-7.2414551
				c-14.5234375-13.5810547-26.1533203-10.7792969-28.2431641-10.1191406l-2.5268555,9.2226563
				C100.3011475,40.5293236,111.2743988,44.2450981,118.8911667,51.3696861z"/>
		</g>
		<g>
			<path d="M97.8320847,60.6621666c-2.2564087-3.4426804-0.0670242-5.1395531,1.5004883-4.020752
				c0.2978897,0.2263451,0.4466934,0.4144516,0.6455078,0.5925293c0.8740234,0.7844238,2.3618164,0.5307617,3.1054688-0.2199707
				c0.2773438-0.2883301,0.6269531-0.652832,1.1337891-0.6582031c0.7263031-0.0144196,1.4575119,0.7394524,1.03125,2.2587891
				c0,0,0,0,0,0.0002441C104.0307541,62.9445953,99.7434387,63.6897812,97.8320847,60.6621666z M98.3262253,57.7944908
				c-0.0449219,0.4248047,0.28125,1.3149414,0.7675781,2.0559082c1.2163239,1.9293175,3.7362518,1.3978195,4.644043-1.4216309
				c-1.4140625,1.0644531-3.4853516,1.0654297-4.7617188-0.0783691
				C98.6894073,58.0931511,98.4707108,57.8167191,98.3262253,57.7944908z M104.5264206,58.4116783h0.0097656H104.5264206z"/>
		</g>
		
			<ellipse transform="matrix(0.0214053 -0.9997709 0.9997709 0.0214053 49.6581459 157.4640503)" cx="105.2648087" cy="53.3656654" rx="2.1816213" ry="1.7904749"/>
		
			<ellipse transform="matrix(0.0214053 -0.9997709 0.9997709 0.0214053 38.4716454 146.2355652)" cx="93.9358292" cy="53.4657097" rx="2.1816213" ry="1.7904749"/>
		<g>
			<path d="M126.8164597,99.3745651l-1.6025391-3.4665527c-0.1738281-0.3759766-0.0102539-0.8217773,0.3657227-0.9956055
				c0.375-0.1730957,0.8217773-0.0100098,0.9956055,0.3662109l1.6025314,3.4665527
				c0.1738281,0.3759766,0.0102539,0.8217773-0.365715,0.9956055
				C127.4316483,99.9155197,126.9884949,99.7475281,126.8164597,99.3745651z"/>
		</g>
		<g>
			<path d="M14.7090368,124.2156296c5.6380739-12.1255798,42.5064774-14.2632828,44.1318359-1.6757813
				c0.2538261,2.367836-1.0863724,4.4818039-2.8276367,6.1020584c-0.1000099,0.0501556-5.4392166,5.8083496-19.3227539,7.015625
				C22.2728081,136.9470825,11.3279772,131.4254913,14.7090368,124.2156296z M40.4043503,115.5310593
				c-19.7447433,0-34.9218292,12.6962662-16.5996113,17.7939529c14.8834133,3.690094,34.3329468-3.2490234,33.5449219-10.6245193
				l0,0c-0.090065-0.831337-0.4483566-1.5890198-0.9658203-2.253418
				C53.9702682,117.3718796,47.7397995,115.5310593,40.4043503,115.5310593z"/>
		</g>
		<path d="M58.2553139,128.1742859c-0.4812927,1.8699646-1.4757042,3.6497955-2.674572,5.0862274
			c-4.8054161,6.1531372-16.4517784,10.2399445-27.2328243,7.8288269
			c-7.4878712-1.6342621-14.4172192-6.8858337-13.48388-14.3235779c0.068099,5.1685181,7.7840185,7.4608612,12.9253378,8.0513763
			c8.5355759,1.0162811,21.9279861-1.0003967,27.7129059-6.7245483c1.6796379-1.5617752,3.006115-3.6771545,2.525238-5.9015656
			C58.2786026,122.9181976,58.78479,126.1119461,58.2553139,128.1742859z"/>
		<g>
			<path d="M28.1841335,141.821106c-7.9131088-1.7208862-15.0563631-7.2361145-14.0644522-15.1484451
				c0.0493164-0.390625,0.3974609-0.6708984,0.7851563-0.6557617c0.3935547,0.0219727,0.703125,0.34375,0.7089844,0.737793
				c0.0645342,4.66259,7.5723982,6.7796249,12.2612295,7.3173904c14.823534,1.7645874,30.8353634-5.1417694,29.4194355-11.7216873
				c-0.0844727-0.3876953,0.1484375-0.7744141,0.5307617-0.8813477c0.3798828-0.1074219,0.7817383,0.1015625,0.9111328,0.4775391
				c0.2714844,0.7866211,0.4541016,1.6025391,0.5419922,2.4248047l0,0c0.1420898,1.3266602,0.0424805,2.6689453-0.2963867,3.9892654
				C56.3028374,138.7645264,40.8217659,144.6502075,28.1841335,141.821106z M54.9888229,132.8001099
				c1.469841-1.7663269,2.5571365-3.9368591,2.7993164-6.2504959c-6.329792,9.9633102-33.7897797,12.5855942-41.7773438,4.4653397
				C20.1549931,143.6467896,46.038475,144.2588348,54.9888229,132.8001099z"/>
		</g>
		<path class="st52" d="M55.2005424,127.3729172c-7.7346954,7.2673721-27.9247417,9.2200394-36.8655777,3.8528061
			c-0.8598309-0.9862823,0.0096607-2.0128479,0.5950432-2.9223938c1.4039345-2.1809921,3.2655048-4.0710983,5.4331207-5.4995575
			c7.8188667-5.1371155,26.5780678-6.191185,31.1357803,2.5686264
			C55.9338684,126.1930542,55.9727516,126.6744995,55.2005424,127.3729172z"/>
		<g>
			<path d="M17.7778835,104.815239c-1.0925617-2.0607147-1.0382538-4.9836273,1.1069336-7.9445801
				c0.4160252-0.5736923,0.1837254-0.6903915,0.0947266-1.8129883c-0.391695-4.9411392,2.6993389-9.1797638,7.0234375-10.6040039
				c3.7946663-1.2501221,8.1243267-0.2383499,11.1357441-2.2558594c1.3582153-0.9087448,2.4111443-2.4062042,4.1264648-3.1071777
				c2.2573242-0.9230957,5.1293945-0.0212402,6.6796875,2.0959473c1.3466797,1.8391113,1.6972656,4.4938965,0.9145508,6.9282227
				c-1.5226822,4.7356491-6.8733139,8.3738327-11.8720703,9.5019531c-3.3976631,0.7649765-4.3909836,0.5630951-7.3012714,4.2414551
				c-1.1699028,1.4920425-2.2886715,2.9939041-3.8168945,4.0493164
				C23.2532215,107.7147293,19.3241596,107.7351379,17.7778835,104.815239z M43.1426315,80.231987
				c-2.2021027,0-3.2926903,1.9547043-5.1689453,3.2121582c-3.4478226,2.3090134-7.919054,1.2540131-11.5014668,2.4343262
				c-3.7465591,1.2337723-6.3279095,4.8914413-5.9975586,9.0603027c0.080122,0.9920349,0.4399128,1.6883392-0.3754883,2.8122559
				c-0.6049805,0.8349609-1.0175781,1.6369629-1.2617188,2.4509277c0,0,0,0,0,0.0004883
				c-0.6503067,2.1666718-0.0935574,4.7981567,2.1357422,5.3432617c1.2480469,0.3037109,2.8354492-0.0380859,4.043457-0.8725586
				c2.7928753-1.9279022,4.2499332-5.9182358,7.7368183-7.498291c1.2754631-0.5777969,2.6359291-0.7354355,3.9038086-1.0214844
				c4.4386902-1.0016251,9.414917-4.274292,10.7744141-8.4978027C48.6898575,83.7419815,46.4257736,80.231987,43.1426315,80.231987z
				"/>
		</g>
		
			<ellipse transform="matrix(0.8423952 -0.5388602 0.5388602 0.8423952 -44.1760826 31.0789642)" class="st15" cx="31.0423737" cy="91.0598068" rx="5.1637597" ry="3.3438153"/>
		<g>
			<path d="M38.7734909,123.2449265l-2.8632813-22.2036133c-0.0532227-0.4106445,0.2368164-0.7866211,0.6479492-0.8393555
				c0.4042969-0.0576172,0.7866211,0.2363281,0.8393555,0.6479492l2.8632813,22.2036133
				c0.0532227,0.4106445-0.2368164,0.7866211-0.6479492,0.8393555
				C39.2143784,123.9472122,38.827095,123.6645508,38.7734909,123.2449265z"/>
		</g>
		<g>
			<path d="M31.3765163,109.9710007l-1.0981445-5.4912109c-0.081543-0.40625,0.1821289-0.8012695,0.5883789-0.8823242
				c0.4033203-0.0830078,0.8012695,0.1821289,0.8823242,0.5883789l1.0981464,5.4912109
				c0.081543,0.40625-0.1821289,0.8012695-0.5883789,0.8823242
				C31.8630123,110.6416855,31.4590321,110.3835754,31.3765163,109.9710007z"/>
		</g>
	</g>
</g>
</svg>
